G04 #@! TF.GenerationSoftware,KiCad,Pcbnew,5.1.9+dfsg1-1+deb11u1*
G04 #@! TF.CreationDate,2023-05-13T00:47:09+02:00*
G04 #@! TF.ProjectId,base,62617365-2e6b-4696-9361-645f70636258,rev?*
G04 #@! TF.SameCoordinates,Original*
G04 #@! TF.FileFunction,Copper,L2,Bot*
G04 #@! TF.FilePolarity,Positive*
%FSLAX46Y46*%
G04 Gerber Fmt 4.6, Leading zero omitted, Abs format (unit mm)*
G04 Created by KiCad (PCBNEW 5.1.9+dfsg1-1+deb11u1) date 2023-05-13 00:47:09*
%MOMM*%
%LPD*%
G01*
G04 APERTURE LIST*
G04 #@! TA.AperFunction,SMDPad,CuDef*
%ADD10R,0.650000X1.060000*%
G04 #@! TD*
G04 #@! TA.AperFunction,ComponentPad*
%ADD11O,1.600000X1.000000*%
G04 #@! TD*
G04 #@! TA.AperFunction,ComponentPad*
%ADD12O,2.100000X1.000000*%
G04 #@! TD*
G04 #@! TA.AperFunction,SMDPad,CuDef*
%ADD13R,2.500000X1.250000*%
G04 #@! TD*
G04 #@! TA.AperFunction,ViaPad*
%ADD14C,0.500000*%
G04 #@! TD*
G04 #@! TA.AperFunction,ViaPad*
%ADD15C,0.800000*%
G04 #@! TD*
G04 #@! TA.AperFunction,Conductor*
%ADD16C,0.250000*%
G04 #@! TD*
G04 #@! TA.AperFunction,Conductor*
%ADD17C,0.350000*%
G04 #@! TD*
G04 #@! TA.AperFunction,Conductor*
%ADD18C,0.200000*%
G04 #@! TD*
G04 #@! TA.AperFunction,Conductor*
%ADD19C,0.100000*%
G04 #@! TD*
G04 APERTURE END LIST*
G04 #@! TA.AperFunction,SMDPad,CuDef*
G36*
G01*
X-2900000Y-3425000D02*
X-2400000Y-3425000D01*
G75*
G02*
X-2175000Y-3650000I0J-225000D01*
G01*
X-2175000Y-4100000D01*
G75*
G02*
X-2400000Y-4325000I-225000J0D01*
G01*
X-2900000Y-4325000D01*
G75*
G02*
X-3125000Y-4100000I0J225000D01*
G01*
X-3125000Y-3650000D01*
G75*
G02*
X-2900000Y-3425000I225000J0D01*
G01*
G37*
G04 #@! TD.AperFunction*
G04 #@! TA.AperFunction,SMDPad,CuDef*
G36*
G01*
X-2900000Y-1875000D02*
X-2400000Y-1875000D01*
G75*
G02*
X-2175000Y-2100000I0J-225000D01*
G01*
X-2175000Y-2550000D01*
G75*
G02*
X-2400000Y-2775000I-225000J0D01*
G01*
X-2900000Y-2775000D01*
G75*
G02*
X-3125000Y-2550000I0J225000D01*
G01*
X-3125000Y-2100000D01*
G75*
G02*
X-2900000Y-1875000I225000J0D01*
G01*
G37*
G04 #@! TD.AperFunction*
G04 #@! TA.AperFunction,SMDPad,CuDef*
G36*
G01*
X-2375000Y3525000D02*
X-2925000Y3525000D01*
G75*
G02*
X-3125000Y3725000I0J200000D01*
G01*
X-3125000Y4125000D01*
G75*
G02*
X-2925000Y4325000I200000J0D01*
G01*
X-2375000Y4325000D01*
G75*
G02*
X-2175000Y4125000I0J-200000D01*
G01*
X-2175000Y3725000D01*
G75*
G02*
X-2375000Y3525000I-200000J0D01*
G01*
G37*
G04 #@! TD.AperFunction*
G04 #@! TA.AperFunction,SMDPad,CuDef*
G36*
G01*
X-2375000Y1875000D02*
X-2925000Y1875000D01*
G75*
G02*
X-3125000Y2075000I0J200000D01*
G01*
X-3125000Y2475000D01*
G75*
G02*
X-2925000Y2675000I200000J0D01*
G01*
X-2375000Y2675000D01*
G75*
G02*
X-2175000Y2475000I0J-200000D01*
G01*
X-2175000Y2075000D01*
G75*
G02*
X-2375000Y1875000I-200000J0D01*
G01*
G37*
G04 #@! TD.AperFunction*
G04 #@! TA.AperFunction,SMDPad,CuDef*
G36*
G01*
X-55000Y650000D02*
X-55000Y950000D01*
G75*
G02*
X95000Y1100000I150000J0D01*
G01*
X1745000Y1100000D01*
G75*
G02*
X1895000Y950000I0J-150000D01*
G01*
X1895000Y650000D01*
G75*
G02*
X1745000Y500000I-150000J0D01*
G01*
X95000Y500000D01*
G75*
G02*
X-55000Y650000I0J150000D01*
G01*
G37*
G04 #@! TD.AperFunction*
G04 #@! TA.AperFunction,SMDPad,CuDef*
G36*
G01*
X-55000Y1920000D02*
X-55000Y2220000D01*
G75*
G02*
X95000Y2370000I150000J0D01*
G01*
X1745000Y2370000D01*
G75*
G02*
X1895000Y2220000I0J-150000D01*
G01*
X1895000Y1920000D01*
G75*
G02*
X1745000Y1770000I-150000J0D01*
G01*
X95000Y1770000D01*
G75*
G02*
X-55000Y1920000I0J150000D01*
G01*
G37*
G04 #@! TD.AperFunction*
G04 #@! TA.AperFunction,SMDPad,CuDef*
G36*
G01*
X-55000Y3190000D02*
X-55000Y3490000D01*
G75*
G02*
X95000Y3640000I150000J0D01*
G01*
X1745000Y3640000D01*
G75*
G02*
X1895000Y3490000I0J-150000D01*
G01*
X1895000Y3190000D01*
G75*
G02*
X1745000Y3040000I-150000J0D01*
G01*
X95000Y3040000D01*
G75*
G02*
X-55000Y3190000I0J150000D01*
G01*
G37*
G04 #@! TD.AperFunction*
G04 #@! TA.AperFunction,SMDPad,CuDef*
G36*
G01*
X-50000Y4460000D02*
X-50000Y4760000D01*
G75*
G02*
X100000Y4910000I150000J0D01*
G01*
X1740000Y4910000D01*
G75*
G02*
X1890000Y4760000I0J-150000D01*
G01*
X1890000Y4460000D01*
G75*
G02*
X1740000Y4310000I-150000J0D01*
G01*
X100000Y4310000D01*
G75*
G02*
X-50000Y4460000I0J150000D01*
G01*
G37*
G04 #@! TD.AperFunction*
G04 #@! TA.AperFunction,SMDPad,CuDef*
G36*
G01*
X4895000Y4460000D02*
X4895000Y4760000D01*
G75*
G02*
X5045000Y4910000I150000J0D01*
G01*
X6695000Y4910000D01*
G75*
G02*
X6845000Y4760000I0J-150000D01*
G01*
X6845000Y4460000D01*
G75*
G02*
X6695000Y4310000I-150000J0D01*
G01*
X5045000Y4310000D01*
G75*
G02*
X4895000Y4460000I0J150000D01*
G01*
G37*
G04 #@! TD.AperFunction*
G04 #@! TA.AperFunction,SMDPad,CuDef*
G36*
G01*
X4895000Y3190000D02*
X4895000Y3490000D01*
G75*
G02*
X5045000Y3640000I150000J0D01*
G01*
X6695000Y3640000D01*
G75*
G02*
X6845000Y3490000I0J-150000D01*
G01*
X6845000Y3190000D01*
G75*
G02*
X6695000Y3040000I-150000J0D01*
G01*
X5045000Y3040000D01*
G75*
G02*
X4895000Y3190000I0J150000D01*
G01*
G37*
G04 #@! TD.AperFunction*
G04 #@! TA.AperFunction,SMDPad,CuDef*
G36*
G01*
X4895000Y1920000D02*
X4895000Y2220000D01*
G75*
G02*
X5045000Y2370000I150000J0D01*
G01*
X6695000Y2370000D01*
G75*
G02*
X6845000Y2220000I0J-150000D01*
G01*
X6845000Y1920000D01*
G75*
G02*
X6695000Y1770000I-150000J0D01*
G01*
X5045000Y1770000D01*
G75*
G02*
X4895000Y1920000I0J150000D01*
G01*
G37*
G04 #@! TD.AperFunction*
G04 #@! TA.AperFunction,SMDPad,CuDef*
G36*
G01*
X4895000Y650000D02*
X4895000Y950000D01*
G75*
G02*
X5045000Y1100000I150000J0D01*
G01*
X6695000Y1100000D01*
G75*
G02*
X6845000Y950000I0J-150000D01*
G01*
X6845000Y650000D01*
G75*
G02*
X6695000Y500000I-150000J0D01*
G01*
X5045000Y500000D01*
G75*
G02*
X4895000Y650000I0J150000D01*
G01*
G37*
G04 #@! TD.AperFunction*
D10*
X-1050000Y-800000D03*
X-100000Y-800000D03*
X850000Y-800000D03*
X850000Y-3000000D03*
X-1050000Y-3000000D03*
G04 #@! TA.AperFunction,SMDPad,CuDef*
G36*
G01*
X5725000Y-2275000D02*
X6275000Y-2275000D01*
G75*
G02*
X6475000Y-2475000I0J-200000D01*
G01*
X6475000Y-2875000D01*
G75*
G02*
X6275000Y-3075000I-200000J0D01*
G01*
X5725000Y-3075000D01*
G75*
G02*
X5525000Y-2875000I0J200000D01*
G01*
X5525000Y-2475000D01*
G75*
G02*
X5725000Y-2275000I200000J0D01*
G01*
G37*
G04 #@! TD.AperFunction*
G04 #@! TA.AperFunction,SMDPad,CuDef*
G36*
G01*
X5725000Y-3925000D02*
X6275000Y-3925000D01*
G75*
G02*
X6475000Y-4125000I0J-200000D01*
G01*
X6475000Y-4525000D01*
G75*
G02*
X6275000Y-4725000I-200000J0D01*
G01*
X5725000Y-4725000D01*
G75*
G02*
X5525000Y-4525000I0J200000D01*
G01*
X5525000Y-4125000D01*
G75*
G02*
X5725000Y-3925000I200000J0D01*
G01*
G37*
G04 #@! TD.AperFunction*
D11*
X-1050000Y-4320000D03*
X-1050000Y4320000D03*
D12*
X3130000Y4320000D03*
X3130000Y-4320000D03*
G04 #@! TA.AperFunction,SMDPad,CuDef*
G36*
G01*
X-1375000Y3525000D02*
X-825000Y3525000D01*
G75*
G02*
X-625000Y3325000I0J-200000D01*
G01*
X-625000Y2925000D01*
G75*
G02*
X-825000Y2725000I-200000J0D01*
G01*
X-1375000Y2725000D01*
G75*
G02*
X-1575000Y2925000I0J200000D01*
G01*
X-1575000Y3325000D01*
G75*
G02*
X-1375000Y3525000I200000J0D01*
G01*
G37*
G04 #@! TD.AperFunction*
G04 #@! TA.AperFunction,SMDPad,CuDef*
G36*
G01*
X-1375000Y1875000D02*
X-825000Y1875000D01*
G75*
G02*
X-625000Y1675000I0J-200000D01*
G01*
X-625000Y1275000D01*
G75*
G02*
X-825000Y1075000I-200000J0D01*
G01*
X-1375000Y1075000D01*
G75*
G02*
X-1575000Y1275000I0J200000D01*
G01*
X-1575000Y1675000D01*
G75*
G02*
X-1375000Y1875000I200000J0D01*
G01*
G37*
G04 #@! TD.AperFunction*
G04 #@! TA.AperFunction,SMDPad,CuDef*
G36*
G01*
X-2400000Y-1225000D02*
X-2900000Y-1225000D01*
G75*
G02*
X-3125000Y-1000000I0J225000D01*
G01*
X-3125000Y-550000D01*
G75*
G02*
X-2900000Y-325000I225000J0D01*
G01*
X-2400000Y-325000D01*
G75*
G02*
X-2175000Y-550000I0J-225000D01*
G01*
X-2175000Y-1000000D01*
G75*
G02*
X-2400000Y-1225000I-225000J0D01*
G01*
G37*
G04 #@! TD.AperFunction*
G04 #@! TA.AperFunction,SMDPad,CuDef*
G36*
G01*
X-2400000Y325000D02*
X-2900000Y325000D01*
G75*
G02*
X-3125000Y550000I0J225000D01*
G01*
X-3125000Y1000000D01*
G75*
G02*
X-2900000Y1225000I225000J0D01*
G01*
X-2400000Y1225000D01*
G75*
G02*
X-2175000Y1000000I0J-225000D01*
G01*
X-2175000Y550000D01*
G75*
G02*
X-2400000Y325000I-225000J0D01*
G01*
G37*
G04 #@! TD.AperFunction*
G04 #@! TA.AperFunction,SMDPad,CuDef*
G36*
G01*
X6825000Y-550000D02*
X6825000Y-1050000D01*
G75*
G02*
X6600000Y-1275000I-225000J0D01*
G01*
X6150000Y-1275000D01*
G75*
G02*
X5925000Y-1050000I0J225000D01*
G01*
X5925000Y-550000D01*
G75*
G02*
X6150000Y-325000I225000J0D01*
G01*
X6600000Y-325000D01*
G75*
G02*
X6825000Y-550000I0J-225000D01*
G01*
G37*
G04 #@! TD.AperFunction*
G04 #@! TA.AperFunction,SMDPad,CuDef*
G36*
G01*
X5275000Y-550000D02*
X5275000Y-1050000D01*
G75*
G02*
X5050000Y-1275000I-225000J0D01*
G01*
X4600000Y-1275000D01*
G75*
G02*
X4375000Y-1050000I0J225000D01*
G01*
X4375000Y-550000D01*
G75*
G02*
X4600000Y-325000I225000J0D01*
G01*
X5050000Y-325000D01*
G75*
G02*
X5275000Y-550000I0J-225000D01*
G01*
G37*
G04 #@! TD.AperFunction*
D13*
X8500000Y-3810000D03*
X8500000Y-1270000D03*
X8500000Y1270000D03*
X8500000Y3810000D03*
D14*
X4500000Y-4900000D03*
X4550000Y-3900000D03*
X-2600000Y-3300000D03*
X-2600000Y200000D03*
X-100000Y-1500000D03*
X-300000Y2900000D03*
X1900000Y0D03*
X8300000Y4900000D03*
X8900000Y2600000D03*
D15*
X1400000Y-1300000D03*
D14*
X7100000Y100000D03*
X6200000Y-2200000D03*
X7100000Y2334999D03*
X7900000Y-200000D03*
X6000000Y-3800000D03*
X2625014Y-500000D03*
X2900000Y600000D03*
X-1100007Y900007D03*
X-2600000Y3399998D03*
D16*
X-2600000Y-3875000D02*
X-2600000Y-3300000D01*
X-2600000Y775000D02*
X-2600000Y200000D01*
X-100000Y-800000D02*
X-100000Y-1500000D01*
X-1100000Y3125000D02*
X-525000Y3125000D01*
X-525000Y3125000D02*
X-300000Y2900000D01*
X8500000Y4700000D02*
X8300000Y4900000D01*
X8500000Y3810000D02*
X8500000Y4700000D01*
D17*
X-1075000Y-775000D02*
X-1050000Y-800000D01*
X-2600000Y-775000D02*
X-1075000Y-775000D01*
X525001Y105001D02*
X850000Y-219998D01*
X-725001Y105001D02*
X525001Y105001D01*
X-1050000Y-219998D02*
X-725001Y105001D01*
X850000Y-219998D02*
X850000Y-800000D01*
X-1050000Y-800000D02*
X-1050000Y-219998D01*
X850000Y-800000D02*
X1100000Y-800000D01*
X1100000Y-800000D02*
X1499999Y-1199999D01*
D18*
X8500000Y2100000D02*
X8500000Y1270000D01*
X7715001Y2884999D02*
X8500000Y2100000D01*
X7009999Y2884999D02*
X7715001Y2884999D01*
X6949999Y2944999D02*
X7009999Y2884999D01*
X6949999Y3300000D02*
X6949999Y2944999D01*
X5910000Y3300000D02*
X6949999Y3300000D01*
X5870000Y3340000D02*
X5910000Y3300000D01*
X8270000Y1270000D02*
X7100000Y100000D01*
X8500000Y1270000D02*
X8270000Y1270000D01*
X6200000Y-2475000D02*
X6000000Y-2675000D01*
X6200000Y-2200000D02*
X6200000Y-2475000D01*
X6835001Y2070000D02*
X7100000Y2334999D01*
X5870000Y2070000D02*
X6835001Y2070000D01*
X7900000Y-670000D02*
X8500000Y-1270000D01*
X7900000Y-200000D02*
X7900000Y-670000D01*
X6000000Y-3800000D02*
X6000000Y-4325000D01*
D17*
X5422522Y4610000D02*
X4500000Y3687478D01*
X5870000Y4610000D02*
X5422522Y4610000D01*
X4895000Y800000D02*
X5870000Y800000D01*
X4500000Y1195000D02*
X4895000Y800000D01*
X4500000Y3687478D02*
X4500000Y1195000D01*
X-1725000Y-2325000D02*
X-1050000Y-3000000D01*
X-2600000Y-2325000D02*
X-1725000Y-2325000D01*
X5870000Y-295000D02*
X6375000Y-800000D01*
X5870000Y800000D02*
X5870000Y-295000D01*
X-680002Y-3000000D02*
X-1050000Y-3000000D01*
X224999Y-3905001D02*
X-680002Y-3000000D01*
X1475001Y-3905001D02*
X224999Y-3905001D01*
X1704990Y-3675012D02*
X1475001Y-3905001D01*
X1704990Y-2749008D02*
X1704990Y-3675012D01*
X2263999Y-2189999D02*
X1704990Y-2749008D01*
X4985001Y-2189999D02*
X2263999Y-2189999D01*
X6375000Y-800000D02*
X4985001Y-2189999D01*
X6850010Y-2160010D02*
X8500000Y-3810000D01*
X6850010Y-1275010D02*
X6850010Y-2160010D01*
X6375000Y-800000D02*
X6850010Y-1275010D01*
D18*
X920000Y800000D02*
X1895000Y800000D01*
X2625014Y69986D02*
X2625014Y-500000D01*
X1895000Y800000D02*
X2625014Y69986D01*
X920000Y2070000D02*
X1430000Y2070000D01*
X1430000Y2070000D02*
X2900000Y600000D01*
X-1100000Y1475000D02*
X-1100000Y900000D01*
X-1100000Y900000D02*
X-1100007Y900007D01*
X-2600000Y3875000D02*
X-2650000Y3925000D01*
X-2600000Y3399998D02*
X-2600000Y3875000D01*
X5223549Y-2875000D02*
X5233184Y-2972828D01*
X5261720Y-3066897D01*
X5308059Y-3153591D01*
X5370421Y-3229579D01*
X5446409Y-3291941D01*
X5533103Y-3338280D01*
X5627172Y-3366816D01*
X5654329Y-3369491D01*
X5649396Y-3372787D01*
X5572787Y-3449396D01*
X5512597Y-3539477D01*
X5471136Y-3639571D01*
X5458834Y-3701418D01*
X5446409Y-3708059D01*
X5370421Y-3770421D01*
X5308059Y-3846409D01*
X5261720Y-3933103D01*
X5233184Y-4027172D01*
X5223549Y-4125000D01*
X5223549Y-4525000D01*
X5233184Y-4622828D01*
X5261720Y-4716897D01*
X5308059Y-4803591D01*
X5370421Y-4879579D01*
X5446409Y-4941941D01*
X5533103Y-4988280D01*
X5627172Y-5016816D01*
X5725000Y-5026451D01*
X6275000Y-5026451D01*
X6372828Y-5016816D01*
X6466897Y-4988280D01*
X6553591Y-4941941D01*
X6629579Y-4879579D01*
X6691941Y-4803591D01*
X6738280Y-4716897D01*
X6766816Y-4622828D01*
X6776451Y-4525000D01*
X6776451Y-4125000D01*
X6766816Y-4027172D01*
X6738280Y-3933103D01*
X6691941Y-3846409D01*
X6629579Y-3770421D01*
X6553591Y-3708059D01*
X6541166Y-3701418D01*
X6528864Y-3639571D01*
X6487403Y-3539477D01*
X6427213Y-3449396D01*
X6350604Y-3372787D01*
X6345671Y-3369491D01*
X6372828Y-3366816D01*
X6466897Y-3338280D01*
X6553591Y-3291941D01*
X6629579Y-3229579D01*
X6691941Y-3153591D01*
X6738280Y-3066897D01*
X6766816Y-2972828D01*
X6776451Y-2875000D01*
X6776451Y-2758201D01*
X7015769Y-2997520D01*
X6999353Y-3017523D01*
X6971496Y-3069640D01*
X6954341Y-3126190D01*
X6948549Y-3185000D01*
X6948549Y-4435000D01*
X6954341Y-4493810D01*
X6971496Y-4550360D01*
X6999353Y-4602477D01*
X7036842Y-4648158D01*
X7082523Y-4685647D01*
X7134640Y-4713504D01*
X7191190Y-4730659D01*
X7250000Y-4736451D01*
X9406364Y-4736451D01*
X9332639Y-4826847D01*
X9156176Y-4972830D01*
X8954727Y-5081753D01*
X8735958Y-5149474D01*
X8493085Y-5175000D01*
X-1984104Y-5175000D01*
X-2227922Y-5151094D01*
X-2447166Y-5084900D01*
X-2649370Y-4977386D01*
X-2826847Y-4832639D01*
X-2972830Y-4656176D01*
X-2989334Y-4625651D01*
X-2879000Y-4625000D01*
X-2804000Y-4550000D01*
X-2804000Y-4029000D01*
X-2824000Y-4029000D01*
X-2824000Y-3721000D01*
X-2804000Y-3721000D01*
X-2804000Y-3200000D01*
X-2879000Y-3125000D01*
X-3125000Y-3123548D01*
X-3175000Y-3128472D01*
X-3175000Y-2997072D01*
X-3101464Y-3036377D01*
X-3002705Y-3066335D01*
X-2900000Y-3076451D01*
X-2400000Y-3076451D01*
X-2297295Y-3066335D01*
X-2198536Y-3036377D01*
X-2107519Y-2987728D01*
X-2027743Y-2922257D01*
X-1962272Y-2842481D01*
X-1939566Y-2800000D01*
X-1921750Y-2800000D01*
X-1676451Y-3045300D01*
X-1676451Y-3530000D01*
X-1671082Y-3584513D01*
X-1796606Y-3651607D01*
X-1881160Y-3720998D01*
X-1949998Y-3720998D01*
X-1875000Y-3646000D01*
X-1873548Y-3425000D01*
X-1879340Y-3366190D01*
X-1896495Y-3309639D01*
X-1924352Y-3257522D01*
X-1961841Y-3211841D01*
X-2007522Y-3174352D01*
X-2059639Y-3146495D01*
X-2116190Y-3129340D01*
X-2175000Y-3123548D01*
X-2421000Y-3125000D01*
X-2496000Y-3200000D01*
X-2496000Y-3721000D01*
X-2476000Y-3721000D01*
X-2476000Y-4029000D01*
X-2496000Y-4029000D01*
X-2496000Y-4550000D01*
X-2421000Y-4625000D01*
X-2175000Y-4626452D01*
X-2116190Y-4620660D01*
X-2096596Y-4614716D01*
X-2092679Y-4627628D01*
X-2018393Y-4766606D01*
X-1918422Y-4888422D01*
X-1796606Y-4988393D01*
X-1657628Y-5062679D01*
X-1506827Y-5108424D01*
X-1389293Y-5120000D01*
X-710707Y-5120000D01*
X-593173Y-5108424D01*
X-442372Y-5062679D01*
X-303394Y-4988393D01*
X-181578Y-4888422D01*
X-81607Y-4766606D01*
X-7321Y-4627628D01*
X38424Y-4476827D01*
X51052Y-4348608D01*
X131883Y-4373128D01*
X224999Y-4382299D01*
X248331Y-4380001D01*
X1451669Y-4380001D01*
X1475001Y-4382299D01*
X1498333Y-4380001D01*
X1568117Y-4373128D01*
X1657655Y-4345967D01*
X1740174Y-4301860D01*
X1781236Y-4268162D01*
X1776130Y-4320000D01*
X1791576Y-4476827D01*
X1837321Y-4627628D01*
X1911607Y-4766606D01*
X2011578Y-4888422D01*
X2133394Y-4988393D01*
X2272372Y-5062679D01*
X2423173Y-5108424D01*
X2540707Y-5120000D01*
X3719293Y-5120000D01*
X3836827Y-5108424D01*
X3987628Y-5062679D01*
X4126606Y-4988393D01*
X4248422Y-4888422D01*
X4348393Y-4766606D01*
X4422679Y-4627628D01*
X4468424Y-4476827D01*
X4483870Y-4320000D01*
X4468424Y-4163173D01*
X4422679Y-4012372D01*
X4348393Y-3873394D01*
X4248422Y-3751578D01*
X4126606Y-3651607D01*
X3987628Y-3577321D01*
X3836827Y-3531576D01*
X3719293Y-3520000D01*
X2540707Y-3520000D01*
X2423173Y-3531576D01*
X2272372Y-3577321D01*
X2179990Y-3626701D01*
X2179990Y-3353873D01*
X2201586Y-3375469D01*
X2303952Y-3443868D01*
X2417694Y-3490981D01*
X2538443Y-3515000D01*
X2661557Y-3515000D01*
X2782306Y-3490981D01*
X2896048Y-3443868D01*
X2998414Y-3375469D01*
X3085469Y-3288414D01*
X3153868Y-3186048D01*
X3200981Y-3072306D01*
X3225000Y-2951557D01*
X3225000Y-2828443D01*
X3200981Y-2707694D01*
X3183296Y-2664999D01*
X4961669Y-2664999D01*
X4985001Y-2667297D01*
X5008333Y-2664999D01*
X5033717Y-2662499D01*
X5078117Y-2658126D01*
X5085478Y-2655893D01*
X5167655Y-2630965D01*
X5223549Y-2601089D01*
X5223549Y-2875000D01*
G04 #@! TA.AperFunction,Conductor*
D19*
G36*
X5223549Y-2875000D02*
G01*
X5233184Y-2972828D01*
X5261720Y-3066897D01*
X5308059Y-3153591D01*
X5370421Y-3229579D01*
X5446409Y-3291941D01*
X5533103Y-3338280D01*
X5627172Y-3366816D01*
X5654329Y-3369491D01*
X5649396Y-3372787D01*
X5572787Y-3449396D01*
X5512597Y-3539477D01*
X5471136Y-3639571D01*
X5458834Y-3701418D01*
X5446409Y-3708059D01*
X5370421Y-3770421D01*
X5308059Y-3846409D01*
X5261720Y-3933103D01*
X5233184Y-4027172D01*
X5223549Y-4125000D01*
X5223549Y-4525000D01*
X5233184Y-4622828D01*
X5261720Y-4716897D01*
X5308059Y-4803591D01*
X5370421Y-4879579D01*
X5446409Y-4941941D01*
X5533103Y-4988280D01*
X5627172Y-5016816D01*
X5725000Y-5026451D01*
X6275000Y-5026451D01*
X6372828Y-5016816D01*
X6466897Y-4988280D01*
X6553591Y-4941941D01*
X6629579Y-4879579D01*
X6691941Y-4803591D01*
X6738280Y-4716897D01*
X6766816Y-4622828D01*
X6776451Y-4525000D01*
X6776451Y-4125000D01*
X6766816Y-4027172D01*
X6738280Y-3933103D01*
X6691941Y-3846409D01*
X6629579Y-3770421D01*
X6553591Y-3708059D01*
X6541166Y-3701418D01*
X6528864Y-3639571D01*
X6487403Y-3539477D01*
X6427213Y-3449396D01*
X6350604Y-3372787D01*
X6345671Y-3369491D01*
X6372828Y-3366816D01*
X6466897Y-3338280D01*
X6553591Y-3291941D01*
X6629579Y-3229579D01*
X6691941Y-3153591D01*
X6738280Y-3066897D01*
X6766816Y-2972828D01*
X6776451Y-2875000D01*
X6776451Y-2758201D01*
X7015769Y-2997520D01*
X6999353Y-3017523D01*
X6971496Y-3069640D01*
X6954341Y-3126190D01*
X6948549Y-3185000D01*
X6948549Y-4435000D01*
X6954341Y-4493810D01*
X6971496Y-4550360D01*
X6999353Y-4602477D01*
X7036842Y-4648158D01*
X7082523Y-4685647D01*
X7134640Y-4713504D01*
X7191190Y-4730659D01*
X7250000Y-4736451D01*
X9406364Y-4736451D01*
X9332639Y-4826847D01*
X9156176Y-4972830D01*
X8954727Y-5081753D01*
X8735958Y-5149474D01*
X8493085Y-5175000D01*
X-1984104Y-5175000D01*
X-2227922Y-5151094D01*
X-2447166Y-5084900D01*
X-2649370Y-4977386D01*
X-2826847Y-4832639D01*
X-2972830Y-4656176D01*
X-2989334Y-4625651D01*
X-2879000Y-4625000D01*
X-2804000Y-4550000D01*
X-2804000Y-4029000D01*
X-2824000Y-4029000D01*
X-2824000Y-3721000D01*
X-2804000Y-3721000D01*
X-2804000Y-3200000D01*
X-2879000Y-3125000D01*
X-3125000Y-3123548D01*
X-3175000Y-3128472D01*
X-3175000Y-2997072D01*
X-3101464Y-3036377D01*
X-3002705Y-3066335D01*
X-2900000Y-3076451D01*
X-2400000Y-3076451D01*
X-2297295Y-3066335D01*
X-2198536Y-3036377D01*
X-2107519Y-2987728D01*
X-2027743Y-2922257D01*
X-1962272Y-2842481D01*
X-1939566Y-2800000D01*
X-1921750Y-2800000D01*
X-1676451Y-3045300D01*
X-1676451Y-3530000D01*
X-1671082Y-3584513D01*
X-1796606Y-3651607D01*
X-1881160Y-3720998D01*
X-1949998Y-3720998D01*
X-1875000Y-3646000D01*
X-1873548Y-3425000D01*
X-1879340Y-3366190D01*
X-1896495Y-3309639D01*
X-1924352Y-3257522D01*
X-1961841Y-3211841D01*
X-2007522Y-3174352D01*
X-2059639Y-3146495D01*
X-2116190Y-3129340D01*
X-2175000Y-3123548D01*
X-2421000Y-3125000D01*
X-2496000Y-3200000D01*
X-2496000Y-3721000D01*
X-2476000Y-3721000D01*
X-2476000Y-4029000D01*
X-2496000Y-4029000D01*
X-2496000Y-4550000D01*
X-2421000Y-4625000D01*
X-2175000Y-4626452D01*
X-2116190Y-4620660D01*
X-2096596Y-4614716D01*
X-2092679Y-4627628D01*
X-2018393Y-4766606D01*
X-1918422Y-4888422D01*
X-1796606Y-4988393D01*
X-1657628Y-5062679D01*
X-1506827Y-5108424D01*
X-1389293Y-5120000D01*
X-710707Y-5120000D01*
X-593173Y-5108424D01*
X-442372Y-5062679D01*
X-303394Y-4988393D01*
X-181578Y-4888422D01*
X-81607Y-4766606D01*
X-7321Y-4627628D01*
X38424Y-4476827D01*
X51052Y-4348608D01*
X131883Y-4373128D01*
X224999Y-4382299D01*
X248331Y-4380001D01*
X1451669Y-4380001D01*
X1475001Y-4382299D01*
X1498333Y-4380001D01*
X1568117Y-4373128D01*
X1657655Y-4345967D01*
X1740174Y-4301860D01*
X1781236Y-4268162D01*
X1776130Y-4320000D01*
X1791576Y-4476827D01*
X1837321Y-4627628D01*
X1911607Y-4766606D01*
X2011578Y-4888422D01*
X2133394Y-4988393D01*
X2272372Y-5062679D01*
X2423173Y-5108424D01*
X2540707Y-5120000D01*
X3719293Y-5120000D01*
X3836827Y-5108424D01*
X3987628Y-5062679D01*
X4126606Y-4988393D01*
X4248422Y-4888422D01*
X4348393Y-4766606D01*
X4422679Y-4627628D01*
X4468424Y-4476827D01*
X4483870Y-4320000D01*
X4468424Y-4163173D01*
X4422679Y-4012372D01*
X4348393Y-3873394D01*
X4248422Y-3751578D01*
X4126606Y-3651607D01*
X3987628Y-3577321D01*
X3836827Y-3531576D01*
X3719293Y-3520000D01*
X2540707Y-3520000D01*
X2423173Y-3531576D01*
X2272372Y-3577321D01*
X2179990Y-3626701D01*
X2179990Y-3353873D01*
X2201586Y-3375469D01*
X2303952Y-3443868D01*
X2417694Y-3490981D01*
X2538443Y-3515000D01*
X2661557Y-3515000D01*
X2782306Y-3490981D01*
X2896048Y-3443868D01*
X2998414Y-3375469D01*
X3085469Y-3288414D01*
X3153868Y-3186048D01*
X3200981Y-3072306D01*
X3225000Y-2951557D01*
X3225000Y-2828443D01*
X3200981Y-2707694D01*
X3183296Y-2664999D01*
X4961669Y-2664999D01*
X4985001Y-2667297D01*
X5008333Y-2664999D01*
X5033717Y-2662499D01*
X5078117Y-2658126D01*
X5085478Y-2655893D01*
X5167655Y-2630965D01*
X5223549Y-2601089D01*
X5223549Y-2875000D01*
G37*
G04 #@! TD.AperFunction*
D18*
X11926Y4017224D02*
X100000Y4008549D01*
X1740000Y4008549D01*
X1828074Y4017224D01*
X1835194Y4019384D01*
X1837321Y4012372D01*
X1875249Y3941414D01*
X1149000Y3940000D01*
X1074000Y3865000D01*
X1074000Y3494000D01*
X1094000Y3494000D01*
X1094000Y3186000D01*
X1074000Y3186000D01*
X1074000Y2815000D01*
X1149000Y2740000D01*
X1895000Y2738548D01*
X1953810Y2744340D01*
X1989572Y2755188D01*
X1999019Y2707694D01*
X2046132Y2593952D01*
X2114531Y2491586D01*
X2201586Y2404531D01*
X2303952Y2336132D01*
X2417694Y2289019D01*
X2538443Y2265000D01*
X2661557Y2265000D01*
X2782306Y2289019D01*
X2896048Y2336132D01*
X2998414Y2404531D01*
X3085469Y2491586D01*
X3153868Y2593952D01*
X3200981Y2707694D01*
X3225000Y2828443D01*
X3225000Y2951557D01*
X3200981Y3072306D01*
X3153868Y3186048D01*
X3085469Y3288414D01*
X2998414Y3375469D01*
X2896048Y3443868D01*
X2782306Y3490981D01*
X2661557Y3515000D01*
X2538443Y3515000D01*
X2417694Y3490981D01*
X2303952Y3443868D01*
X2201586Y3375469D01*
X2195000Y3368883D01*
X2195000Y3494002D01*
X2120002Y3494002D01*
X2195000Y3569000D01*
X2196005Y3618140D01*
X2272372Y3577321D01*
X2423173Y3531576D01*
X2540707Y3520000D01*
X3719293Y3520000D01*
X3836827Y3531576D01*
X3987628Y3577321D01*
X4025000Y3597297D01*
X4025001Y1218342D01*
X4022702Y1195000D01*
X4031873Y1101884D01*
X4059035Y1012346D01*
X4103142Y929827D01*
X4162500Y857499D01*
X4180629Y842621D01*
X4542620Y480629D01*
X4557499Y462499D01*
X4629827Y403141D01*
X4694957Y368328D01*
X4725776Y330776D01*
X4794187Y274632D01*
X4872237Y232914D01*
X4956926Y207224D01*
X5045000Y198549D01*
X5395001Y198549D01*
X5395001Y-48975D01*
X5390361Y-46495D01*
X5333810Y-29340D01*
X5275000Y-23548D01*
X5054000Y-25000D01*
X4979000Y-100000D01*
X4979000Y-646000D01*
X5500000Y-646000D01*
X5523935Y-622065D01*
X5532500Y-632501D01*
X5550629Y-647379D01*
X5623549Y-720299D01*
X5623549Y-879700D01*
X5524625Y-978625D01*
X5500000Y-954000D01*
X4979000Y-954000D01*
X4979000Y-1500000D01*
X4991125Y-1512125D01*
X4788251Y-1714999D01*
X2287330Y-1714999D01*
X2263998Y-1712701D01*
X2170882Y-1721872D01*
X2151529Y-1727743D01*
X2081345Y-1749033D01*
X1998826Y-1793140D01*
X1926498Y-1852498D01*
X1911619Y-1870628D01*
X1444484Y-2337764D01*
X1425647Y-2302523D01*
X1388158Y-2256842D01*
X1342477Y-2219353D01*
X1290360Y-2191496D01*
X1233810Y-2174341D01*
X1175000Y-2168549D01*
X525000Y-2168549D01*
X466190Y-2174341D01*
X409640Y-2191496D01*
X357523Y-2219353D01*
X311842Y-2256842D01*
X274353Y-2302523D01*
X246496Y-2354640D01*
X229341Y-2411190D01*
X223549Y-2470000D01*
X223549Y-3231800D01*
X-327618Y-2680634D01*
X-342501Y-2662499D01*
X-414829Y-2603141D01*
X-423549Y-2598480D01*
X-423549Y-2470000D01*
X-429341Y-2411190D01*
X-446496Y-2354640D01*
X-474353Y-2302523D01*
X-511842Y-2256842D01*
X-557523Y-2219353D01*
X-609640Y-2191496D01*
X-666190Y-2174341D01*
X-725000Y-2168549D01*
X-1209701Y-2168549D01*
X-1372616Y-2005634D01*
X-1387499Y-1987499D01*
X-1459827Y-1928141D01*
X-1542346Y-1884034D01*
X-1631884Y-1856873D01*
X-1701668Y-1850000D01*
X-1725000Y-1847702D01*
X-1748332Y-1850000D01*
X-1939566Y-1850000D01*
X-1962272Y-1807519D01*
X-2027743Y-1727743D01*
X-2107519Y-1662272D01*
X-2198536Y-1613623D01*
X-2297295Y-1583665D01*
X-2400000Y-1573549D01*
X-2900000Y-1573549D01*
X-3002705Y-1583665D01*
X-3101464Y-1613623D01*
X-3175000Y-1652928D01*
X-3175000Y-1447072D01*
X-3101464Y-1486377D01*
X-3002705Y-1516335D01*
X-2900000Y-1526451D01*
X-2400000Y-1526451D01*
X-2297295Y-1516335D01*
X-2198536Y-1486377D01*
X-2107519Y-1437728D01*
X-2027743Y-1372257D01*
X-1962272Y-1292481D01*
X-1939566Y-1250000D01*
X-1676451Y-1250000D01*
X-1676451Y-1330000D01*
X-1670659Y-1388810D01*
X-1653504Y-1445360D01*
X-1625647Y-1497477D01*
X-1588158Y-1543158D01*
X-1542477Y-1580647D01*
X-1490360Y-1608504D01*
X-1433810Y-1625659D01*
X-1375000Y-1631451D01*
X-725000Y-1631451D01*
X-666190Y-1625659D01*
X-609640Y-1608504D01*
X-575001Y-1589989D01*
X-540361Y-1608505D01*
X-483810Y-1625660D01*
X-425000Y-1631452D01*
X-329000Y-1630000D01*
X-254000Y-1555000D01*
X-254000Y-954000D01*
X-274000Y-954000D01*
X-274000Y-646000D01*
X-254000Y-646000D01*
X-254000Y-626000D01*
X54000Y-626000D01*
X54000Y-646000D01*
X74000Y-646000D01*
X74000Y-954000D01*
X54000Y-954000D01*
X54000Y-1555000D01*
X129000Y-1630000D01*
X225000Y-1631452D01*
X283810Y-1625660D01*
X340361Y-1608505D01*
X375001Y-1589989D01*
X409640Y-1608504D01*
X466190Y-1625659D01*
X525000Y-1631451D01*
X779617Y-1631451D01*
X779668Y-1631574D01*
X856274Y-1746224D01*
X953776Y-1843726D01*
X1068426Y-1920332D01*
X1195818Y-1973099D01*
X1331056Y-2000000D01*
X1468944Y-2000000D01*
X1604182Y-1973099D01*
X1731574Y-1920332D01*
X1846224Y-1843726D01*
X1943726Y-1746224D01*
X2020332Y-1631574D01*
X2073099Y-1504182D01*
X2100000Y-1368944D01*
X2100000Y-1275000D01*
X4073548Y-1275000D01*
X4079340Y-1333810D01*
X4096495Y-1390361D01*
X4124352Y-1442478D01*
X4161841Y-1488159D01*
X4207522Y-1525648D01*
X4259639Y-1553505D01*
X4316190Y-1570660D01*
X4375000Y-1576452D01*
X4596000Y-1575000D01*
X4671000Y-1500000D01*
X4671000Y-954000D01*
X4150000Y-954000D01*
X4075000Y-1029000D01*
X4073548Y-1275000D01*
X2100000Y-1275000D01*
X2100000Y-1231056D01*
X2073099Y-1095818D01*
X2020332Y-968426D01*
X1943726Y-853776D01*
X1846224Y-756274D01*
X1731574Y-679668D01*
X1604182Y-626901D01*
X1597278Y-625528D01*
X1476451Y-504701D01*
X1476451Y-270000D01*
X1470659Y-211190D01*
X1453504Y-154640D01*
X1425647Y-102523D01*
X1388158Y-56842D01*
X1342477Y-19353D01*
X1290360Y8504D01*
X1261835Y17157D01*
X1246859Y45175D01*
X1187501Y117503D01*
X1169371Y132382D01*
X1103204Y198549D01*
X1745000Y198549D01*
X1833074Y207224D01*
X1901373Y227942D01*
X2225014Y-95699D01*
X2225014Y-122183D01*
X2197801Y-149396D01*
X2137611Y-239477D01*
X2096150Y-339571D01*
X2075014Y-445830D01*
X2075014Y-554170D01*
X2096150Y-660429D01*
X2137611Y-760523D01*
X2197801Y-850604D01*
X2274410Y-927213D01*
X2364491Y-987403D01*
X2464585Y-1028864D01*
X2570844Y-1050000D01*
X2679184Y-1050000D01*
X2785443Y-1028864D01*
X2885537Y-987403D01*
X2975618Y-927213D01*
X3052227Y-850604D01*
X3112417Y-760523D01*
X3153878Y-660429D01*
X3175014Y-554170D01*
X3175014Y-445830D01*
X3153878Y-339571D01*
X3147843Y-325000D01*
X4073548Y-325000D01*
X4075000Y-571000D01*
X4150000Y-646000D01*
X4671000Y-646000D01*
X4671000Y-100000D01*
X4596000Y-25000D01*
X4375000Y-23548D01*
X4316190Y-29340D01*
X4259639Y-46495D01*
X4207522Y-74352D01*
X4161841Y-111841D01*
X4124352Y-157522D01*
X4096495Y-209639D01*
X4079340Y-266190D01*
X4073548Y-325000D01*
X3147843Y-325000D01*
X3112417Y-239477D01*
X3052227Y-149396D01*
X3025014Y-122183D01*
X3025014Y50339D01*
X3026396Y64366D01*
X3060429Y71136D01*
X3160523Y112597D01*
X3250604Y172787D01*
X3327213Y249396D01*
X3387403Y339477D01*
X3428864Y439571D01*
X3450000Y545830D01*
X3450000Y654170D01*
X3428864Y760429D01*
X3387403Y860523D01*
X3327213Y950604D01*
X3250604Y1027213D01*
X3160523Y1087403D01*
X3060429Y1128864D01*
X2954170Y1150000D01*
X2915686Y1150000D01*
X2191899Y1873786D01*
X2196451Y1920000D01*
X2196451Y2220000D01*
X2187776Y2308074D01*
X2162086Y2392763D01*
X2120368Y2470813D01*
X2064224Y2539224D01*
X1995813Y2595368D01*
X1917763Y2637086D01*
X1833074Y2662776D01*
X1745000Y2671451D01*
X95000Y2671451D01*
X6926Y2662776D01*
X-77763Y2637086D01*
X-155813Y2595368D01*
X-224224Y2539224D01*
X-280368Y2470813D01*
X-322086Y2392763D01*
X-347776Y2308074D01*
X-356451Y2220000D01*
X-356451Y1920000D01*
X-347776Y1831926D01*
X-322086Y1747237D01*
X-280368Y1669187D01*
X-224224Y1600776D01*
X-155813Y1544632D01*
X-77763Y1502914D01*
X6926Y1477224D01*
X95000Y1468549D01*
X1465766Y1468549D01*
X1532864Y1401451D01*
X95000Y1401451D01*
X6926Y1392776D01*
X-77763Y1367086D01*
X-155813Y1325368D01*
X-224224Y1269224D01*
X-280368Y1200813D01*
X-322086Y1122763D01*
X-347776Y1038074D01*
X-356451Y950000D01*
X-356451Y650000D01*
X-349556Y580001D01*
X-652349Y580001D01*
X-612604Y639484D01*
X-571143Y739578D01*
X-550007Y845837D01*
X-550007Y856136D01*
X-546409Y858059D01*
X-470421Y920421D01*
X-408059Y996409D01*
X-361720Y1083103D01*
X-333184Y1177172D01*
X-323549Y1275000D01*
X-323549Y1675000D01*
X-333184Y1772828D01*
X-361720Y1866897D01*
X-408059Y1953591D01*
X-470421Y2029579D01*
X-546409Y2091941D01*
X-633103Y2138280D01*
X-727172Y2166816D01*
X-825000Y2176451D01*
X-1375000Y2176451D01*
X-1472828Y2166816D01*
X-1566897Y2138280D01*
X-1653591Y2091941D01*
X-1729579Y2029579D01*
X-1791941Y1953591D01*
X-1838280Y1866897D01*
X-1866816Y1772828D01*
X-1876451Y1675000D01*
X-1876451Y1275000D01*
X-1866816Y1177172D01*
X-1838280Y1083103D01*
X-1791941Y996409D01*
X-1729579Y920421D01*
X-1653591Y858059D01*
X-1650007Y856143D01*
X-1650007Y845837D01*
X-1628871Y739578D01*
X-1587410Y639484D01*
X-1527220Y549403D01*
X-1450611Y472794D01*
X-1360530Y412604D01*
X-1260436Y371143D01*
X-1154177Y350007D01*
X-1151746Y350007D01*
X-1369371Y132381D01*
X-1387500Y117503D01*
X-1446858Y45175D01*
X-1461833Y17158D01*
X-1490360Y8504D01*
X-1542477Y-19353D01*
X-1588158Y-56842D01*
X-1625647Y-102523D01*
X-1653504Y-154640D01*
X-1670659Y-211190D01*
X-1676451Y-270000D01*
X-1676451Y-300000D01*
X-1939566Y-300000D01*
X-1962272Y-257519D01*
X-2027743Y-177743D01*
X-2107519Y-112272D01*
X-2198536Y-63623D01*
X-2297295Y-33665D01*
X-2400000Y-23549D01*
X-2900000Y-23549D01*
X-3002705Y-33665D01*
X-3101464Y-63623D01*
X-3175000Y-102928D01*
X-3175000Y28472D01*
X-3125000Y23548D01*
X-2879000Y25000D01*
X-2804000Y100000D01*
X-2804000Y621000D01*
X-2496000Y621000D01*
X-2496000Y100000D01*
X-2421000Y25000D01*
X-2175000Y23548D01*
X-2116190Y29340D01*
X-2059639Y46495D01*
X-2007522Y74352D01*
X-1961841Y111841D01*
X-1924352Y157522D01*
X-1896495Y209639D01*
X-1879340Y266190D01*
X-1873548Y325000D01*
X-1875000Y546000D01*
X-1950000Y621000D01*
X-2496000Y621000D01*
X-2804000Y621000D01*
X-2824000Y621000D01*
X-2824000Y929000D01*
X-2804000Y929000D01*
X-2804000Y1450000D01*
X-2496000Y1450000D01*
X-2496000Y929000D01*
X-1950000Y929000D01*
X-1875000Y1004000D01*
X-1873548Y1225000D01*
X-1879340Y1283810D01*
X-1896495Y1340361D01*
X-1924352Y1392478D01*
X-1961841Y1438159D01*
X-2007522Y1475648D01*
X-2059639Y1503505D01*
X-2116190Y1520660D01*
X-2175000Y1526452D01*
X-2421000Y1525000D01*
X-2496000Y1450000D01*
X-2804000Y1450000D01*
X-2879000Y1525000D01*
X-3125000Y1526452D01*
X-3175000Y1521528D01*
X-3175000Y1578472D01*
X-3125000Y1573548D01*
X-2879000Y1575000D01*
X-2804000Y1650000D01*
X-2804000Y2121000D01*
X-2496000Y2121000D01*
X-2496000Y1650000D01*
X-2421000Y1575000D01*
X-2175000Y1573548D01*
X-2116190Y1579340D01*
X-2059639Y1596495D01*
X-2007522Y1624352D01*
X-1961841Y1661841D01*
X-1924352Y1707522D01*
X-1896495Y1759639D01*
X-1879340Y1816190D01*
X-1873548Y1875000D01*
X-1875000Y2046000D01*
X-1950000Y2121000D01*
X-2496000Y2121000D01*
X-2804000Y2121000D01*
X-2824000Y2121000D01*
X-2824000Y2429000D01*
X-2804000Y2429000D01*
X-2804000Y2449000D01*
X-2496000Y2449000D01*
X-2496000Y2429000D01*
X-1950000Y2429000D01*
X-1875000Y2504000D01*
X-1873548Y2675000D01*
X-1878472Y2725000D01*
X-1876452Y2725000D01*
X-1870660Y2666190D01*
X-1853505Y2609639D01*
X-1825648Y2557522D01*
X-1788159Y2511841D01*
X-1742478Y2474352D01*
X-1690361Y2446495D01*
X-1633810Y2429340D01*
X-1575000Y2423548D01*
X-1329000Y2425000D01*
X-1254000Y2500000D01*
X-1254000Y2971000D01*
X-1800000Y2971000D01*
X-1875000Y2896000D01*
X-1876452Y2725000D01*
X-1878472Y2725000D01*
X-1879340Y2733810D01*
X-1896495Y2790361D01*
X-1924352Y2842478D01*
X-1961841Y2888159D01*
X-2007522Y2925648D01*
X-2059639Y2953505D01*
X-2116190Y2970660D01*
X-2175000Y2976452D01*
X-2246149Y2976032D01*
X-2172787Y3049394D01*
X-2112597Y3139475D01*
X-2071136Y3239569D01*
X-2050000Y3345828D01*
X-2050000Y3346146D01*
X-2020421Y3370421D01*
X-1958059Y3446409D01*
X-1911720Y3533103D01*
X-1883184Y3627172D01*
X-1874483Y3715518D01*
X-1831978Y3680636D01*
X-1853505Y3640361D01*
X-1870660Y3583810D01*
X-1876452Y3525000D01*
X-1875000Y3354000D01*
X-1800000Y3279000D01*
X-1254000Y3279000D01*
X-1254000Y3299000D01*
X-946000Y3299000D01*
X-946000Y3279000D01*
X-926000Y3279000D01*
X-926000Y2971000D01*
X-946000Y2971000D01*
X-946000Y2500000D01*
X-871000Y2425000D01*
X-625000Y2423548D01*
X-566190Y2429340D01*
X-509639Y2446495D01*
X-457522Y2474352D01*
X-411841Y2511841D01*
X-374352Y2557522D01*
X-346495Y2609639D01*
X-329340Y2666190D01*
X-323548Y2725000D01*
X-325000Y2896000D01*
X-399998Y2970998D01*
X-347568Y2970998D01*
X-333505Y2924639D01*
X-305648Y2872522D01*
X-268159Y2826841D01*
X-222478Y2789352D01*
X-170361Y2761495D01*
X-113810Y2744340D01*
X-55000Y2738548D01*
X691000Y2740000D01*
X766000Y2815000D01*
X766000Y3186000D01*
X746000Y3186000D01*
X746000Y3494000D01*
X766000Y3494000D01*
X766000Y3865000D01*
X691000Y3940000D01*
X-45239Y3941433D01*
X-7321Y4012372D01*
X-4351Y4022162D01*
X11926Y4017224D01*
G04 #@! TA.AperFunction,Conductor*
D19*
G36*
X11926Y4017224D02*
G01*
X100000Y4008549D01*
X1740000Y4008549D01*
X1828074Y4017224D01*
X1835194Y4019384D01*
X1837321Y4012372D01*
X1875249Y3941414D01*
X1149000Y3940000D01*
X1074000Y3865000D01*
X1074000Y3494000D01*
X1094000Y3494000D01*
X1094000Y3186000D01*
X1074000Y3186000D01*
X1074000Y2815000D01*
X1149000Y2740000D01*
X1895000Y2738548D01*
X1953810Y2744340D01*
X1989572Y2755188D01*
X1999019Y2707694D01*
X2046132Y2593952D01*
X2114531Y2491586D01*
X2201586Y2404531D01*
X2303952Y2336132D01*
X2417694Y2289019D01*
X2538443Y2265000D01*
X2661557Y2265000D01*
X2782306Y2289019D01*
X2896048Y2336132D01*
X2998414Y2404531D01*
X3085469Y2491586D01*
X3153868Y2593952D01*
X3200981Y2707694D01*
X3225000Y2828443D01*
X3225000Y2951557D01*
X3200981Y3072306D01*
X3153868Y3186048D01*
X3085469Y3288414D01*
X2998414Y3375469D01*
X2896048Y3443868D01*
X2782306Y3490981D01*
X2661557Y3515000D01*
X2538443Y3515000D01*
X2417694Y3490981D01*
X2303952Y3443868D01*
X2201586Y3375469D01*
X2195000Y3368883D01*
X2195000Y3494002D01*
X2120002Y3494002D01*
X2195000Y3569000D01*
X2196005Y3618140D01*
X2272372Y3577321D01*
X2423173Y3531576D01*
X2540707Y3520000D01*
X3719293Y3520000D01*
X3836827Y3531576D01*
X3987628Y3577321D01*
X4025000Y3597297D01*
X4025001Y1218342D01*
X4022702Y1195000D01*
X4031873Y1101884D01*
X4059035Y1012346D01*
X4103142Y929827D01*
X4162500Y857499D01*
X4180629Y842621D01*
X4542620Y480629D01*
X4557499Y462499D01*
X4629827Y403141D01*
X4694957Y368328D01*
X4725776Y330776D01*
X4794187Y274632D01*
X4872237Y232914D01*
X4956926Y207224D01*
X5045000Y198549D01*
X5395001Y198549D01*
X5395001Y-48975D01*
X5390361Y-46495D01*
X5333810Y-29340D01*
X5275000Y-23548D01*
X5054000Y-25000D01*
X4979000Y-100000D01*
X4979000Y-646000D01*
X5500000Y-646000D01*
X5523935Y-622065D01*
X5532500Y-632501D01*
X5550629Y-647379D01*
X5623549Y-720299D01*
X5623549Y-879700D01*
X5524625Y-978625D01*
X5500000Y-954000D01*
X4979000Y-954000D01*
X4979000Y-1500000D01*
X4991125Y-1512125D01*
X4788251Y-1714999D01*
X2287330Y-1714999D01*
X2263998Y-1712701D01*
X2170882Y-1721872D01*
X2151529Y-1727743D01*
X2081345Y-1749033D01*
X1998826Y-1793140D01*
X1926498Y-1852498D01*
X1911619Y-1870628D01*
X1444484Y-2337764D01*
X1425647Y-2302523D01*
X1388158Y-2256842D01*
X1342477Y-2219353D01*
X1290360Y-2191496D01*
X1233810Y-2174341D01*
X1175000Y-2168549D01*
X525000Y-2168549D01*
X466190Y-2174341D01*
X409640Y-2191496D01*
X357523Y-2219353D01*
X311842Y-2256842D01*
X274353Y-2302523D01*
X246496Y-2354640D01*
X229341Y-2411190D01*
X223549Y-2470000D01*
X223549Y-3231800D01*
X-327618Y-2680634D01*
X-342501Y-2662499D01*
X-414829Y-2603141D01*
X-423549Y-2598480D01*
X-423549Y-2470000D01*
X-429341Y-2411190D01*
X-446496Y-2354640D01*
X-474353Y-2302523D01*
X-511842Y-2256842D01*
X-557523Y-2219353D01*
X-609640Y-2191496D01*
X-666190Y-2174341D01*
X-725000Y-2168549D01*
X-1209701Y-2168549D01*
X-1372616Y-2005634D01*
X-1387499Y-1987499D01*
X-1459827Y-1928141D01*
X-1542346Y-1884034D01*
X-1631884Y-1856873D01*
X-1701668Y-1850000D01*
X-1725000Y-1847702D01*
X-1748332Y-1850000D01*
X-1939566Y-1850000D01*
X-1962272Y-1807519D01*
X-2027743Y-1727743D01*
X-2107519Y-1662272D01*
X-2198536Y-1613623D01*
X-2297295Y-1583665D01*
X-2400000Y-1573549D01*
X-2900000Y-1573549D01*
X-3002705Y-1583665D01*
X-3101464Y-1613623D01*
X-3175000Y-1652928D01*
X-3175000Y-1447072D01*
X-3101464Y-1486377D01*
X-3002705Y-1516335D01*
X-2900000Y-1526451D01*
X-2400000Y-1526451D01*
X-2297295Y-1516335D01*
X-2198536Y-1486377D01*
X-2107519Y-1437728D01*
X-2027743Y-1372257D01*
X-1962272Y-1292481D01*
X-1939566Y-1250000D01*
X-1676451Y-1250000D01*
X-1676451Y-1330000D01*
X-1670659Y-1388810D01*
X-1653504Y-1445360D01*
X-1625647Y-1497477D01*
X-1588158Y-1543158D01*
X-1542477Y-1580647D01*
X-1490360Y-1608504D01*
X-1433810Y-1625659D01*
X-1375000Y-1631451D01*
X-725000Y-1631451D01*
X-666190Y-1625659D01*
X-609640Y-1608504D01*
X-575001Y-1589989D01*
X-540361Y-1608505D01*
X-483810Y-1625660D01*
X-425000Y-1631452D01*
X-329000Y-1630000D01*
X-254000Y-1555000D01*
X-254000Y-954000D01*
X-274000Y-954000D01*
X-274000Y-646000D01*
X-254000Y-646000D01*
X-254000Y-626000D01*
X54000Y-626000D01*
X54000Y-646000D01*
X74000Y-646000D01*
X74000Y-954000D01*
X54000Y-954000D01*
X54000Y-1555000D01*
X129000Y-1630000D01*
X225000Y-1631452D01*
X283810Y-1625660D01*
X340361Y-1608505D01*
X375001Y-1589989D01*
X409640Y-1608504D01*
X466190Y-1625659D01*
X525000Y-1631451D01*
X779617Y-1631451D01*
X779668Y-1631574D01*
X856274Y-1746224D01*
X953776Y-1843726D01*
X1068426Y-1920332D01*
X1195818Y-1973099D01*
X1331056Y-2000000D01*
X1468944Y-2000000D01*
X1604182Y-1973099D01*
X1731574Y-1920332D01*
X1846224Y-1843726D01*
X1943726Y-1746224D01*
X2020332Y-1631574D01*
X2073099Y-1504182D01*
X2100000Y-1368944D01*
X2100000Y-1275000D01*
X4073548Y-1275000D01*
X4079340Y-1333810D01*
X4096495Y-1390361D01*
X4124352Y-1442478D01*
X4161841Y-1488159D01*
X4207522Y-1525648D01*
X4259639Y-1553505D01*
X4316190Y-1570660D01*
X4375000Y-1576452D01*
X4596000Y-1575000D01*
X4671000Y-1500000D01*
X4671000Y-954000D01*
X4150000Y-954000D01*
X4075000Y-1029000D01*
X4073548Y-1275000D01*
X2100000Y-1275000D01*
X2100000Y-1231056D01*
X2073099Y-1095818D01*
X2020332Y-968426D01*
X1943726Y-853776D01*
X1846224Y-756274D01*
X1731574Y-679668D01*
X1604182Y-626901D01*
X1597278Y-625528D01*
X1476451Y-504701D01*
X1476451Y-270000D01*
X1470659Y-211190D01*
X1453504Y-154640D01*
X1425647Y-102523D01*
X1388158Y-56842D01*
X1342477Y-19353D01*
X1290360Y8504D01*
X1261835Y17157D01*
X1246859Y45175D01*
X1187501Y117503D01*
X1169371Y132382D01*
X1103204Y198549D01*
X1745000Y198549D01*
X1833074Y207224D01*
X1901373Y227942D01*
X2225014Y-95699D01*
X2225014Y-122183D01*
X2197801Y-149396D01*
X2137611Y-239477D01*
X2096150Y-339571D01*
X2075014Y-445830D01*
X2075014Y-554170D01*
X2096150Y-660429D01*
X2137611Y-760523D01*
X2197801Y-850604D01*
X2274410Y-927213D01*
X2364491Y-987403D01*
X2464585Y-1028864D01*
X2570844Y-1050000D01*
X2679184Y-1050000D01*
X2785443Y-1028864D01*
X2885537Y-987403D01*
X2975618Y-927213D01*
X3052227Y-850604D01*
X3112417Y-760523D01*
X3153878Y-660429D01*
X3175014Y-554170D01*
X3175014Y-445830D01*
X3153878Y-339571D01*
X3147843Y-325000D01*
X4073548Y-325000D01*
X4075000Y-571000D01*
X4150000Y-646000D01*
X4671000Y-646000D01*
X4671000Y-100000D01*
X4596000Y-25000D01*
X4375000Y-23548D01*
X4316190Y-29340D01*
X4259639Y-46495D01*
X4207522Y-74352D01*
X4161841Y-111841D01*
X4124352Y-157522D01*
X4096495Y-209639D01*
X4079340Y-266190D01*
X4073548Y-325000D01*
X3147843Y-325000D01*
X3112417Y-239477D01*
X3052227Y-149396D01*
X3025014Y-122183D01*
X3025014Y50339D01*
X3026396Y64366D01*
X3060429Y71136D01*
X3160523Y112597D01*
X3250604Y172787D01*
X3327213Y249396D01*
X3387403Y339477D01*
X3428864Y439571D01*
X3450000Y545830D01*
X3450000Y654170D01*
X3428864Y760429D01*
X3387403Y860523D01*
X3327213Y950604D01*
X3250604Y1027213D01*
X3160523Y1087403D01*
X3060429Y1128864D01*
X2954170Y1150000D01*
X2915686Y1150000D01*
X2191899Y1873786D01*
X2196451Y1920000D01*
X2196451Y2220000D01*
X2187776Y2308074D01*
X2162086Y2392763D01*
X2120368Y2470813D01*
X2064224Y2539224D01*
X1995813Y2595368D01*
X1917763Y2637086D01*
X1833074Y2662776D01*
X1745000Y2671451D01*
X95000Y2671451D01*
X6926Y2662776D01*
X-77763Y2637086D01*
X-155813Y2595368D01*
X-224224Y2539224D01*
X-280368Y2470813D01*
X-322086Y2392763D01*
X-347776Y2308074D01*
X-356451Y2220000D01*
X-356451Y1920000D01*
X-347776Y1831926D01*
X-322086Y1747237D01*
X-280368Y1669187D01*
X-224224Y1600776D01*
X-155813Y1544632D01*
X-77763Y1502914D01*
X6926Y1477224D01*
X95000Y1468549D01*
X1465766Y1468549D01*
X1532864Y1401451D01*
X95000Y1401451D01*
X6926Y1392776D01*
X-77763Y1367086D01*
X-155813Y1325368D01*
X-224224Y1269224D01*
X-280368Y1200813D01*
X-322086Y1122763D01*
X-347776Y1038074D01*
X-356451Y950000D01*
X-356451Y650000D01*
X-349556Y580001D01*
X-652349Y580001D01*
X-612604Y639484D01*
X-571143Y739578D01*
X-550007Y845837D01*
X-550007Y856136D01*
X-546409Y858059D01*
X-470421Y920421D01*
X-408059Y996409D01*
X-361720Y1083103D01*
X-333184Y1177172D01*
X-323549Y1275000D01*
X-323549Y1675000D01*
X-333184Y1772828D01*
X-361720Y1866897D01*
X-408059Y1953591D01*
X-470421Y2029579D01*
X-546409Y2091941D01*
X-633103Y2138280D01*
X-727172Y2166816D01*
X-825000Y2176451D01*
X-1375000Y2176451D01*
X-1472828Y2166816D01*
X-1566897Y2138280D01*
X-1653591Y2091941D01*
X-1729579Y2029579D01*
X-1791941Y1953591D01*
X-1838280Y1866897D01*
X-1866816Y1772828D01*
X-1876451Y1675000D01*
X-1876451Y1275000D01*
X-1866816Y1177172D01*
X-1838280Y1083103D01*
X-1791941Y996409D01*
X-1729579Y920421D01*
X-1653591Y858059D01*
X-1650007Y856143D01*
X-1650007Y845837D01*
X-1628871Y739578D01*
X-1587410Y639484D01*
X-1527220Y549403D01*
X-1450611Y472794D01*
X-1360530Y412604D01*
X-1260436Y371143D01*
X-1154177Y350007D01*
X-1151746Y350007D01*
X-1369371Y132381D01*
X-1387500Y117503D01*
X-1446858Y45175D01*
X-1461833Y17158D01*
X-1490360Y8504D01*
X-1542477Y-19353D01*
X-1588158Y-56842D01*
X-1625647Y-102523D01*
X-1653504Y-154640D01*
X-1670659Y-211190D01*
X-1676451Y-270000D01*
X-1676451Y-300000D01*
X-1939566Y-300000D01*
X-1962272Y-257519D01*
X-2027743Y-177743D01*
X-2107519Y-112272D01*
X-2198536Y-63623D01*
X-2297295Y-33665D01*
X-2400000Y-23549D01*
X-2900000Y-23549D01*
X-3002705Y-33665D01*
X-3101464Y-63623D01*
X-3175000Y-102928D01*
X-3175000Y28472D01*
X-3125000Y23548D01*
X-2879000Y25000D01*
X-2804000Y100000D01*
X-2804000Y621000D01*
X-2496000Y621000D01*
X-2496000Y100000D01*
X-2421000Y25000D01*
X-2175000Y23548D01*
X-2116190Y29340D01*
X-2059639Y46495D01*
X-2007522Y74352D01*
X-1961841Y111841D01*
X-1924352Y157522D01*
X-1896495Y209639D01*
X-1879340Y266190D01*
X-1873548Y325000D01*
X-1875000Y546000D01*
X-1950000Y621000D01*
X-2496000Y621000D01*
X-2804000Y621000D01*
X-2824000Y621000D01*
X-2824000Y929000D01*
X-2804000Y929000D01*
X-2804000Y1450000D01*
X-2496000Y1450000D01*
X-2496000Y929000D01*
X-1950000Y929000D01*
X-1875000Y1004000D01*
X-1873548Y1225000D01*
X-1879340Y1283810D01*
X-1896495Y1340361D01*
X-1924352Y1392478D01*
X-1961841Y1438159D01*
X-2007522Y1475648D01*
X-2059639Y1503505D01*
X-2116190Y1520660D01*
X-2175000Y1526452D01*
X-2421000Y1525000D01*
X-2496000Y1450000D01*
X-2804000Y1450000D01*
X-2879000Y1525000D01*
X-3125000Y1526452D01*
X-3175000Y1521528D01*
X-3175000Y1578472D01*
X-3125000Y1573548D01*
X-2879000Y1575000D01*
X-2804000Y1650000D01*
X-2804000Y2121000D01*
X-2496000Y2121000D01*
X-2496000Y1650000D01*
X-2421000Y1575000D01*
X-2175000Y1573548D01*
X-2116190Y1579340D01*
X-2059639Y1596495D01*
X-2007522Y1624352D01*
X-1961841Y1661841D01*
X-1924352Y1707522D01*
X-1896495Y1759639D01*
X-1879340Y1816190D01*
X-1873548Y1875000D01*
X-1875000Y2046000D01*
X-1950000Y2121000D01*
X-2496000Y2121000D01*
X-2804000Y2121000D01*
X-2824000Y2121000D01*
X-2824000Y2429000D01*
X-2804000Y2429000D01*
X-2804000Y2449000D01*
X-2496000Y2449000D01*
X-2496000Y2429000D01*
X-1950000Y2429000D01*
X-1875000Y2504000D01*
X-1873548Y2675000D01*
X-1878472Y2725000D01*
X-1876452Y2725000D01*
X-1870660Y2666190D01*
X-1853505Y2609639D01*
X-1825648Y2557522D01*
X-1788159Y2511841D01*
X-1742478Y2474352D01*
X-1690361Y2446495D01*
X-1633810Y2429340D01*
X-1575000Y2423548D01*
X-1329000Y2425000D01*
X-1254000Y2500000D01*
X-1254000Y2971000D01*
X-1800000Y2971000D01*
X-1875000Y2896000D01*
X-1876452Y2725000D01*
X-1878472Y2725000D01*
X-1879340Y2733810D01*
X-1896495Y2790361D01*
X-1924352Y2842478D01*
X-1961841Y2888159D01*
X-2007522Y2925648D01*
X-2059639Y2953505D01*
X-2116190Y2970660D01*
X-2175000Y2976452D01*
X-2246149Y2976032D01*
X-2172787Y3049394D01*
X-2112597Y3139475D01*
X-2071136Y3239569D01*
X-2050000Y3345828D01*
X-2050000Y3346146D01*
X-2020421Y3370421D01*
X-1958059Y3446409D01*
X-1911720Y3533103D01*
X-1883184Y3627172D01*
X-1874483Y3715518D01*
X-1831978Y3680636D01*
X-1853505Y3640361D01*
X-1870660Y3583810D01*
X-1876452Y3525000D01*
X-1875000Y3354000D01*
X-1800000Y3279000D01*
X-1254000Y3279000D01*
X-1254000Y3299000D01*
X-946000Y3299000D01*
X-946000Y3279000D01*
X-926000Y3279000D01*
X-926000Y2971000D01*
X-946000Y2971000D01*
X-946000Y2500000D01*
X-871000Y2425000D01*
X-625000Y2423548D01*
X-566190Y2429340D01*
X-509639Y2446495D01*
X-457522Y2474352D01*
X-411841Y2511841D01*
X-374352Y2557522D01*
X-346495Y2609639D01*
X-329340Y2666190D01*
X-323548Y2725000D01*
X-325000Y2896000D01*
X-399998Y2970998D01*
X-347568Y2970998D01*
X-333505Y2924639D01*
X-305648Y2872522D01*
X-268159Y2826841D01*
X-222478Y2789352D01*
X-170361Y2761495D01*
X-113810Y2744340D01*
X-55000Y2738548D01*
X691000Y2740000D01*
X766000Y2815000D01*
X766000Y3186000D01*
X746000Y3186000D01*
X746000Y3494000D01*
X766000Y3494000D01*
X766000Y3865000D01*
X691000Y3940000D01*
X-45239Y3941433D01*
X-7321Y4012372D01*
X-4351Y4022162D01*
X11926Y4017224D01*
G37*
G04 #@! TD.AperFunction*
D18*
X8727922Y5151094D02*
X8947165Y5084900D01*
X9149370Y4977386D01*
X9326847Y4832639D01*
X9406823Y4735964D01*
X8729000Y4735000D01*
X8654000Y4660000D01*
X8654000Y3964000D01*
X8674000Y3964000D01*
X8674000Y3656000D01*
X8654000Y3656000D01*
X8654000Y2960000D01*
X8729000Y2885000D01*
X9675000Y2883655D01*
X9675000Y2196451D01*
X8888741Y2196451D01*
X8871340Y2253814D01*
X8834197Y2323303D01*
X8808832Y2354210D01*
X8796735Y2368951D01*
X8796733Y2368953D01*
X8784211Y2384211D01*
X8768954Y2396732D01*
X8275843Y2889843D01*
X8346000Y2960000D01*
X8346000Y3656000D01*
X8326000Y3656000D01*
X8326000Y3964000D01*
X8346000Y3964000D01*
X8346000Y4660000D01*
X8271000Y4735000D01*
X7250000Y4736452D01*
X7191190Y4730660D01*
X7146451Y4717088D01*
X7146451Y4760000D01*
X7137776Y4848074D01*
X7112086Y4932763D01*
X7070368Y5010813D01*
X7014224Y5079224D01*
X6945813Y5135368D01*
X6871666Y5175000D01*
X8484104Y5175000D01*
X8727922Y5151094D01*
G04 #@! TA.AperFunction,Conductor*
D19*
G36*
X8727922Y5151094D02*
G01*
X8947165Y5084900D01*
X9149370Y4977386D01*
X9326847Y4832639D01*
X9406823Y4735964D01*
X8729000Y4735000D01*
X8654000Y4660000D01*
X8654000Y3964000D01*
X8674000Y3964000D01*
X8674000Y3656000D01*
X8654000Y3656000D01*
X8654000Y2960000D01*
X8729000Y2885000D01*
X9675000Y2883655D01*
X9675000Y2196451D01*
X8888741Y2196451D01*
X8871340Y2253814D01*
X8834197Y2323303D01*
X8808832Y2354210D01*
X8796735Y2368951D01*
X8796733Y2368953D01*
X8784211Y2384211D01*
X8768954Y2396732D01*
X8275843Y2889843D01*
X8346000Y2960000D01*
X8346000Y3656000D01*
X8326000Y3656000D01*
X8326000Y3964000D01*
X8346000Y3964000D01*
X8346000Y4660000D01*
X8271000Y4735000D01*
X7250000Y4736452D01*
X7191190Y4730660D01*
X7146451Y4717088D01*
X7146451Y4760000D01*
X7137776Y4848074D01*
X7112086Y4932763D01*
X7070368Y5010813D01*
X7014224Y5079224D01*
X6945813Y5135368D01*
X6871666Y5175000D01*
X8484104Y5175000D01*
X8727922Y5151094D01*
G37*
G04 #@! TD.AperFunction*
M02*
