G04 #@! TF.GenerationSoftware,KiCad,Pcbnew,5.1.9+dfsg1-1+deb11u1*
G04 #@! TF.CreationDate,2023-05-13T00:47:09+02:00*
G04 #@! TF.ProjectId,base,62617365-2e6b-4696-9361-645f70636258,rev?*
G04 #@! TF.SameCoordinates,Original*
G04 #@! TF.FileFunction,Legend,Top*
G04 #@! TF.FilePolarity,Positive*
%FSLAX46Y46*%
G04 Gerber Fmt 4.6, Leading zero omitted, Abs format (unit mm)*
G04 Created by KiCad (PCBNEW 5.1.9+dfsg1-1+deb11u1) date 2023-05-13 00:47:09*
%MOMM*%
%LPD*%
G01*
G04 APERTURE LIST*
%ADD10C,0.150000*%
%ADD11C,0.300000*%
%ADD12O,1.600000X1.000000*%
%ADD13C,0.650000*%
%ADD14O,2.100000X1.000000*%
%ADD15R,1.450000X0.300000*%
%ADD16R,1.450000X0.600000*%
G04 APERTURE END LIST*
D10*
X234523Y-3926190D02*
X841666Y-3926190D01*
X963095Y-3966666D01*
X1044047Y-4047619D01*
X1084523Y-4169047D01*
X1084523Y-4250000D01*
X1084523Y-3116666D02*
X1084523Y-3521428D01*
X234523Y-3521428D01*
X1003571Y-2347619D02*
X1044047Y-2388095D01*
X1084523Y-2509523D01*
X1084523Y-2590476D01*
X1044047Y-2711904D01*
X963095Y-2792857D01*
X882142Y-2833333D01*
X720238Y-2873809D01*
X598809Y-2873809D01*
X436904Y-2833333D01*
X355952Y-2792857D01*
X274999Y-2711904D01*
X234523Y-2590476D01*
X234523Y-2509523D01*
X274999Y-2388095D01*
X315476Y-2347619D01*
X234523Y-1740476D02*
X841666Y-1740476D01*
X963095Y-1780952D01*
X1044047Y-1861904D01*
X1084523Y-1983333D01*
X1084523Y-2064285D01*
X1084523Y-930952D02*
X1084523Y-1335714D01*
X234523Y-1335714D01*
X1003571Y-161904D02*
X1044047Y-202380D01*
X1084523Y-323809D01*
X1084523Y-404761D01*
X1044047Y-526190D01*
X963095Y-607142D01*
X882142Y-647619D01*
X720238Y-688095D01*
X598809Y-688095D01*
X436904Y-647619D01*
X355952Y-607142D01*
X274999Y-526190D01*
X234523Y-404761D01*
X234523Y-323809D01*
X275000Y-202380D01*
X315476Y-161904D01*
X234523Y445238D02*
X841666Y445238D01*
X963095Y404761D01*
X1044047Y323809D01*
X1084523Y202380D01*
X1084523Y121428D01*
X1084523Y1254761D02*
X1084523Y850000D01*
X234523Y850000D01*
X1003571Y2023809D02*
X1044047Y1983333D01*
X1084523Y1861904D01*
X1084523Y1780952D01*
X1044047Y1659523D01*
X963095Y1578571D01*
X882142Y1538095D01*
X720238Y1497619D01*
X598809Y1497619D01*
X436904Y1538095D01*
X355952Y1578571D01*
X275000Y1659523D01*
X234523Y1780952D01*
X234523Y1861904D01*
X275000Y1983333D01*
X315476Y2023809D01*
X234523Y2630952D02*
X841666Y2630952D01*
X963095Y2590476D01*
X1044047Y2509523D01*
X1084523Y2388095D01*
X1084523Y2307142D01*
X1084523Y3440476D02*
X1084523Y3035714D01*
X234523Y3035714D01*
X1003571Y4209523D02*
X1044047Y4169047D01*
X1084523Y4047619D01*
X1084523Y3966666D01*
X1044047Y3845238D01*
X963095Y3764285D01*
X882142Y3723809D01*
X720238Y3683333D01*
X598809Y3683333D01*
X436904Y3723809D01*
X355952Y3764285D01*
X275000Y3845238D01*
X234523Y3966666D01*
X234523Y4047619D01*
X275000Y4169047D01*
X315476Y4209523D01*
D11*
X9462142Y448571D02*
X8605000Y448571D01*
X9033571Y1948571D02*
X9033571Y448571D01*
X8247857Y448571D02*
X7247857Y1948571D01*
X7247857Y448571D02*
X8247857Y1948571D01*
X9390714Y-4661428D02*
X8462142Y-4661428D01*
X8962142Y-4090000D01*
X8747857Y-4090000D01*
X8605000Y-4018571D01*
X8533571Y-3947142D01*
X8462142Y-3804285D01*
X8462142Y-3447142D01*
X8533571Y-3304285D01*
X8605000Y-3232857D01*
X8747857Y-3161428D01*
X9176428Y-3161428D01*
X9319285Y-3232857D01*
X9390714Y-3304285D01*
X8033571Y-4661428D02*
X7533571Y-3161428D01*
X7033571Y-4661428D01*
X6676428Y-4661428D02*
X5747857Y-4661428D01*
X6247857Y-4089999D01*
X6033571Y-4089999D01*
X5890714Y-4018571D01*
X5819285Y-3947142D01*
X5747857Y-3804285D01*
X5747857Y-3447142D01*
X5819285Y-3304285D01*
X5890714Y-3232857D01*
X6033571Y-3161428D01*
X6462142Y-3161428D01*
X6605000Y-3232857D01*
X6676428Y-3304285D01*
X8462142Y3090000D02*
X8605000Y3018571D01*
X8819285Y3018571D01*
X9033571Y3090000D01*
X9176428Y3232857D01*
X9247857Y3375714D01*
X9319285Y3661428D01*
X9319285Y3875714D01*
X9247857Y4161428D01*
X9176428Y4304285D01*
X9033571Y4447142D01*
X8819285Y4518571D01*
X8676428Y4518571D01*
X8462142Y4447142D01*
X8390714Y4375714D01*
X8390714Y3875714D01*
X8676428Y3875714D01*
X7747857Y4518571D02*
X7747857Y3018571D01*
X6890714Y4518571D01*
X6890714Y3018571D01*
X6176428Y4518571D02*
X6176428Y3018571D01*
X5819285Y3018571D01*
X5605000Y3090000D01*
X5462142Y3232857D01*
X5390714Y3375714D01*
X5319285Y3661428D01*
X5319285Y3875714D01*
X5390714Y4161428D01*
X5462142Y4304285D01*
X5605000Y4447142D01*
X5819285Y4518571D01*
X6176428Y4518571D01*
X8490714Y-591428D02*
X8990714Y-1305714D01*
X9347857Y-591428D02*
X9347857Y-2091428D01*
X8776428Y-2091428D01*
X8633571Y-2020000D01*
X8562142Y-1948571D01*
X8490714Y-1805714D01*
X8490714Y-1591428D01*
X8562142Y-1448571D01*
X8633571Y-1377142D01*
X8776428Y-1305714D01*
X9347857Y-1305714D01*
X7990714Y-2091428D02*
X6990714Y-591428D01*
X6990714Y-2091428D02*
X7990714Y-591428D01*
%LPC*%
D12*
X-1050000Y-4320000D03*
D13*
X2600000Y-2890000D03*
D12*
X-1050000Y4320000D03*
D13*
X2600000Y2890000D03*
D14*
X3130000Y4320000D03*
X3130000Y-4320000D03*
D15*
X4045000Y250000D03*
X4045000Y-1750000D03*
X4045000Y-1250000D03*
X4045000Y-750000D03*
X4045000Y-250000D03*
X4045000Y750000D03*
X4045000Y1250000D03*
X4045000Y1750000D03*
D16*
X4045000Y-3250000D03*
X4045000Y-2450000D03*
X4045000Y2450000D03*
X4045000Y3250000D03*
X4045000Y3250000D03*
X4045000Y2450000D03*
X4045000Y-2450000D03*
X4045000Y-3250000D03*
M02*
