G04 #@! TF.GenerationSoftware,KiCad,Pcbnew,5.1.9+dfsg1-1+deb11u1*
G04 #@! TF.CreationDate,2023-05-13T00:47:09+02:00*
G04 #@! TF.ProjectId,base,62617365-2e6b-4696-9361-645f70636258,rev?*
G04 #@! TF.SameCoordinates,Original*
G04 #@! TF.FileFunction,Soldermask,Bot*
G04 #@! TF.FilePolarity,Negative*
%FSLAX46Y46*%
G04 Gerber Fmt 4.6, Leading zero omitted, Abs format (unit mm)*
G04 Created by KiCad (PCBNEW 5.1.9+dfsg1-1+deb11u1) date 2023-05-13 00:47:09*
%MOMM*%
%LPD*%
G01*
G04 APERTURE LIST*
%ADD10R,0.650000X1.060000*%
%ADD11O,1.600000X1.000000*%
%ADD12C,0.650000*%
%ADD13O,2.100000X1.000000*%
%ADD14R,2.500000X1.250000*%
G04 APERTURE END LIST*
G36*
G01*
X-2900000Y-3425000D02*
X-2400000Y-3425000D01*
G75*
G02*
X-2175000Y-3650000I0J-225000D01*
G01*
X-2175000Y-4100000D01*
G75*
G02*
X-2400000Y-4325000I-225000J0D01*
G01*
X-2900000Y-4325000D01*
G75*
G02*
X-3125000Y-4100000I0J225000D01*
G01*
X-3125000Y-3650000D01*
G75*
G02*
X-2900000Y-3425000I225000J0D01*
G01*
G37*
G36*
G01*
X-2900000Y-1875000D02*
X-2400000Y-1875000D01*
G75*
G02*
X-2175000Y-2100000I0J-225000D01*
G01*
X-2175000Y-2550000D01*
G75*
G02*
X-2400000Y-2775000I-225000J0D01*
G01*
X-2900000Y-2775000D01*
G75*
G02*
X-3125000Y-2550000I0J225000D01*
G01*
X-3125000Y-2100000D01*
G75*
G02*
X-2900000Y-1875000I225000J0D01*
G01*
G37*
G36*
G01*
X-2375000Y3525000D02*
X-2925000Y3525000D01*
G75*
G02*
X-3125000Y3725000I0J200000D01*
G01*
X-3125000Y4125000D01*
G75*
G02*
X-2925000Y4325000I200000J0D01*
G01*
X-2375000Y4325000D01*
G75*
G02*
X-2175000Y4125000I0J-200000D01*
G01*
X-2175000Y3725000D01*
G75*
G02*
X-2375000Y3525000I-200000J0D01*
G01*
G37*
G36*
G01*
X-2375000Y1875000D02*
X-2925000Y1875000D01*
G75*
G02*
X-3125000Y2075000I0J200000D01*
G01*
X-3125000Y2475000D01*
G75*
G02*
X-2925000Y2675000I200000J0D01*
G01*
X-2375000Y2675000D01*
G75*
G02*
X-2175000Y2475000I0J-200000D01*
G01*
X-2175000Y2075000D01*
G75*
G02*
X-2375000Y1875000I-200000J0D01*
G01*
G37*
G36*
G01*
X-55000Y650000D02*
X-55000Y950000D01*
G75*
G02*
X95000Y1100000I150000J0D01*
G01*
X1745000Y1100000D01*
G75*
G02*
X1895000Y950000I0J-150000D01*
G01*
X1895000Y650000D01*
G75*
G02*
X1745000Y500000I-150000J0D01*
G01*
X95000Y500000D01*
G75*
G02*
X-55000Y650000I0J150000D01*
G01*
G37*
G36*
G01*
X-55000Y1920000D02*
X-55000Y2220000D01*
G75*
G02*
X95000Y2370000I150000J0D01*
G01*
X1745000Y2370000D01*
G75*
G02*
X1895000Y2220000I0J-150000D01*
G01*
X1895000Y1920000D01*
G75*
G02*
X1745000Y1770000I-150000J0D01*
G01*
X95000Y1770000D01*
G75*
G02*
X-55000Y1920000I0J150000D01*
G01*
G37*
G36*
G01*
X-55000Y3190000D02*
X-55000Y3490000D01*
G75*
G02*
X95000Y3640000I150000J0D01*
G01*
X1745000Y3640000D01*
G75*
G02*
X1895000Y3490000I0J-150000D01*
G01*
X1895000Y3190000D01*
G75*
G02*
X1745000Y3040000I-150000J0D01*
G01*
X95000Y3040000D01*
G75*
G02*
X-55000Y3190000I0J150000D01*
G01*
G37*
G36*
G01*
X-50000Y4460000D02*
X-50000Y4760000D01*
G75*
G02*
X100000Y4910000I150000J0D01*
G01*
X1740000Y4910000D01*
G75*
G02*
X1890000Y4760000I0J-150000D01*
G01*
X1890000Y4460000D01*
G75*
G02*
X1740000Y4310000I-150000J0D01*
G01*
X100000Y4310000D01*
G75*
G02*
X-50000Y4460000I0J150000D01*
G01*
G37*
G36*
G01*
X4895000Y4460000D02*
X4895000Y4760000D01*
G75*
G02*
X5045000Y4910000I150000J0D01*
G01*
X6695000Y4910000D01*
G75*
G02*
X6845000Y4760000I0J-150000D01*
G01*
X6845000Y4460000D01*
G75*
G02*
X6695000Y4310000I-150000J0D01*
G01*
X5045000Y4310000D01*
G75*
G02*
X4895000Y4460000I0J150000D01*
G01*
G37*
G36*
G01*
X4895000Y3190000D02*
X4895000Y3490000D01*
G75*
G02*
X5045000Y3640000I150000J0D01*
G01*
X6695000Y3640000D01*
G75*
G02*
X6845000Y3490000I0J-150000D01*
G01*
X6845000Y3190000D01*
G75*
G02*
X6695000Y3040000I-150000J0D01*
G01*
X5045000Y3040000D01*
G75*
G02*
X4895000Y3190000I0J150000D01*
G01*
G37*
G36*
G01*
X4895000Y1920000D02*
X4895000Y2220000D01*
G75*
G02*
X5045000Y2370000I150000J0D01*
G01*
X6695000Y2370000D01*
G75*
G02*
X6845000Y2220000I0J-150000D01*
G01*
X6845000Y1920000D01*
G75*
G02*
X6695000Y1770000I-150000J0D01*
G01*
X5045000Y1770000D01*
G75*
G02*
X4895000Y1920000I0J150000D01*
G01*
G37*
G36*
G01*
X4895000Y650000D02*
X4895000Y950000D01*
G75*
G02*
X5045000Y1100000I150000J0D01*
G01*
X6695000Y1100000D01*
G75*
G02*
X6845000Y950000I0J-150000D01*
G01*
X6845000Y650000D01*
G75*
G02*
X6695000Y500000I-150000J0D01*
G01*
X5045000Y500000D01*
G75*
G02*
X4895000Y650000I0J150000D01*
G01*
G37*
D10*
X-1050000Y-800000D03*
X-100000Y-800000D03*
X850000Y-800000D03*
X850000Y-3000000D03*
X-1050000Y-3000000D03*
G36*
G01*
X5725000Y-2275000D02*
X6275000Y-2275000D01*
G75*
G02*
X6475000Y-2475000I0J-200000D01*
G01*
X6475000Y-2875000D01*
G75*
G02*
X6275000Y-3075000I-200000J0D01*
G01*
X5725000Y-3075000D01*
G75*
G02*
X5525000Y-2875000I0J200000D01*
G01*
X5525000Y-2475000D01*
G75*
G02*
X5725000Y-2275000I200000J0D01*
G01*
G37*
G36*
G01*
X5725000Y-3925000D02*
X6275000Y-3925000D01*
G75*
G02*
X6475000Y-4125000I0J-200000D01*
G01*
X6475000Y-4525000D01*
G75*
G02*
X6275000Y-4725000I-200000J0D01*
G01*
X5725000Y-4725000D01*
G75*
G02*
X5525000Y-4525000I0J200000D01*
G01*
X5525000Y-4125000D01*
G75*
G02*
X5725000Y-3925000I200000J0D01*
G01*
G37*
D11*
X-1050000Y-4320000D03*
D12*
X2600000Y-2890000D03*
D11*
X-1050000Y4320000D03*
D12*
X2600000Y2890000D03*
D13*
X3130000Y4320000D03*
X3130000Y-4320000D03*
G36*
G01*
X-1375000Y3525000D02*
X-825000Y3525000D01*
G75*
G02*
X-625000Y3325000I0J-200000D01*
G01*
X-625000Y2925000D01*
G75*
G02*
X-825000Y2725000I-200000J0D01*
G01*
X-1375000Y2725000D01*
G75*
G02*
X-1575000Y2925000I0J200000D01*
G01*
X-1575000Y3325000D01*
G75*
G02*
X-1375000Y3525000I200000J0D01*
G01*
G37*
G36*
G01*
X-1375000Y1875000D02*
X-825000Y1875000D01*
G75*
G02*
X-625000Y1675000I0J-200000D01*
G01*
X-625000Y1275000D01*
G75*
G02*
X-825000Y1075000I-200000J0D01*
G01*
X-1375000Y1075000D01*
G75*
G02*
X-1575000Y1275000I0J200000D01*
G01*
X-1575000Y1675000D01*
G75*
G02*
X-1375000Y1875000I200000J0D01*
G01*
G37*
G36*
G01*
X-2400000Y-1225000D02*
X-2900000Y-1225000D01*
G75*
G02*
X-3125000Y-1000000I0J225000D01*
G01*
X-3125000Y-550000D01*
G75*
G02*
X-2900000Y-325000I225000J0D01*
G01*
X-2400000Y-325000D01*
G75*
G02*
X-2175000Y-550000I0J-225000D01*
G01*
X-2175000Y-1000000D01*
G75*
G02*
X-2400000Y-1225000I-225000J0D01*
G01*
G37*
G36*
G01*
X-2400000Y325000D02*
X-2900000Y325000D01*
G75*
G02*
X-3125000Y550000I0J225000D01*
G01*
X-3125000Y1000000D01*
G75*
G02*
X-2900000Y1225000I225000J0D01*
G01*
X-2400000Y1225000D01*
G75*
G02*
X-2175000Y1000000I0J-225000D01*
G01*
X-2175000Y550000D01*
G75*
G02*
X-2400000Y325000I-225000J0D01*
G01*
G37*
G36*
G01*
X6825000Y-550000D02*
X6825000Y-1050000D01*
G75*
G02*
X6600000Y-1275000I-225000J0D01*
G01*
X6150000Y-1275000D01*
G75*
G02*
X5925000Y-1050000I0J225000D01*
G01*
X5925000Y-550000D01*
G75*
G02*
X6150000Y-325000I225000J0D01*
G01*
X6600000Y-325000D01*
G75*
G02*
X6825000Y-550000I0J-225000D01*
G01*
G37*
G36*
G01*
X5275000Y-550000D02*
X5275000Y-1050000D01*
G75*
G02*
X5050000Y-1275000I-225000J0D01*
G01*
X4600000Y-1275000D01*
G75*
G02*
X4375000Y-1050000I0J225000D01*
G01*
X4375000Y-550000D01*
G75*
G02*
X4600000Y-325000I225000J0D01*
G01*
X5050000Y-325000D01*
G75*
G02*
X5275000Y-550000I0J-225000D01*
G01*
G37*
D14*
X8500000Y-3810000D03*
X8500000Y-1270000D03*
X8500000Y1270000D03*
X8500000Y3810000D03*
M02*
