G04 #@! TF.GenerationSoftware,KiCad,Pcbnew,5.1.9+dfsg1-1+deb11u1*
G04 #@! TF.CreationDate,2023-05-12T23:20:57+02:00*
G04 #@! TF.ProjectId,base,62617365-2e6b-4696-9361-645f70636258,rev?*
G04 #@! TF.SameCoordinates,Original*
G04 #@! TF.FileFunction,Copper,L1,Top*
G04 #@! TF.FilePolarity,Positive*
%FSLAX46Y46*%
G04 Gerber Fmt 4.6, Leading zero omitted, Abs format (unit mm)*
G04 Created by KiCad (PCBNEW 5.1.9+dfsg1-1+deb11u1) date 2023-05-12 23:20:57*
%MOMM*%
%LPD*%
G01*
G04 APERTURE LIST*
G04 #@! TA.AperFunction,SMDPad,CuDef*
%ADD10R,1.060000X0.650000*%
G04 #@! TD*
G04 #@! TA.AperFunction,SMDPad,CuDef*
%ADD11R,2.500000X1.250000*%
G04 #@! TD*
G04 #@! TA.AperFunction,ComponentPad*
%ADD12O,1.600000X1.000000*%
G04 #@! TD*
G04 #@! TA.AperFunction,ComponentPad*
%ADD13O,2.100000X1.000000*%
G04 #@! TD*
G04 #@! TA.AperFunction,SMDPad,CuDef*
%ADD14R,1.450000X0.300000*%
G04 #@! TD*
G04 #@! TA.AperFunction,SMDPad,CuDef*
%ADD15R,1.450000X0.600000*%
G04 #@! TD*
G04 #@! TA.AperFunction,ViaPad*
%ADD16C,0.500000*%
G04 #@! TD*
G04 #@! TA.AperFunction,ViaPad*
%ADD17C,0.800000*%
G04 #@! TD*
G04 #@! TA.AperFunction,Conductor*
%ADD18C,0.250000*%
G04 #@! TD*
G04 #@! TA.AperFunction,Conductor*
%ADD19C,0.350000*%
G04 #@! TD*
G04 #@! TA.AperFunction,Conductor*
%ADD20C,0.200000*%
G04 #@! TD*
G04 #@! TA.AperFunction,Conductor*
%ADD21C,0.100000*%
G04 #@! TD*
G04 APERTURE END LIST*
D10*
X6150000Y-1000000D03*
X6150000Y-1950000D03*
X6150000Y-2900000D03*
X8350000Y-2900000D03*
X8350000Y-1000000D03*
D11*
X14000000Y-3810000D03*
X14000000Y-1270000D03*
X14000000Y1270000D03*
X14000000Y3810000D03*
D12*
X-1050000Y-4320000D03*
X-1050000Y4320000D03*
D13*
X3130000Y4320000D03*
X3130000Y-4320000D03*
D14*
X4045000Y250000D03*
X4045000Y-1750000D03*
X4045000Y-1250000D03*
X4045000Y-750000D03*
X4045000Y-250000D03*
X4045000Y750000D03*
X4045000Y1250000D03*
X4045000Y1750000D03*
D15*
X4045000Y-3250000D03*
X4045000Y-2450000D03*
X4045000Y2450000D03*
X4045000Y3250000D03*
X4045000Y3250000D03*
X4045000Y2450000D03*
X4045000Y-2450000D03*
X4045000Y-3250000D03*
G04 #@! TA.AperFunction,SMDPad,CuDef*
G36*
G01*
X5725000Y525000D02*
X5725000Y1075000D01*
G75*
G02*
X5925000Y1275000I200000J0D01*
G01*
X6325000Y1275000D01*
G75*
G02*
X6525000Y1075000I0J-200000D01*
G01*
X6525000Y525000D01*
G75*
G02*
X6325000Y325000I-200000J0D01*
G01*
X5925000Y325000D01*
G75*
G02*
X5725000Y525000I0J200000D01*
G01*
G37*
G04 #@! TD.AperFunction*
G04 #@! TA.AperFunction,SMDPad,CuDef*
G36*
G01*
X7375000Y525000D02*
X7375000Y1075000D01*
G75*
G02*
X7575000Y1275000I200000J0D01*
G01*
X7975000Y1275000D01*
G75*
G02*
X8175000Y1075000I0J-200000D01*
G01*
X8175000Y525000D01*
G75*
G02*
X7975000Y325000I-200000J0D01*
G01*
X7575000Y325000D01*
G75*
G02*
X7375000Y525000I0J200000D01*
G01*
G37*
G04 #@! TD.AperFunction*
G04 #@! TA.AperFunction,SMDPad,CuDef*
G36*
G01*
X5525000Y2775000D02*
X6075000Y2775000D01*
G75*
G02*
X6275000Y2575000I0J-200000D01*
G01*
X6275000Y2175000D01*
G75*
G02*
X6075000Y1975000I-200000J0D01*
G01*
X5525000Y1975000D01*
G75*
G02*
X5325000Y2175000I0J200000D01*
G01*
X5325000Y2575000D01*
G75*
G02*
X5525000Y2775000I200000J0D01*
G01*
G37*
G04 #@! TD.AperFunction*
G04 #@! TA.AperFunction,SMDPad,CuDef*
G36*
G01*
X5525000Y4425000D02*
X6075000Y4425000D01*
G75*
G02*
X6275000Y4225000I0J-200000D01*
G01*
X6275000Y3825000D01*
G75*
G02*
X6075000Y3625000I-200000J0D01*
G01*
X5525000Y3625000D01*
G75*
G02*
X5325000Y3825000I0J200000D01*
G01*
X5325000Y4225000D01*
G75*
G02*
X5525000Y4425000I200000J0D01*
G01*
G37*
G04 #@! TD.AperFunction*
G04 #@! TA.AperFunction,SMDPad,CuDef*
G36*
G01*
X8225000Y-4300000D02*
X8225000Y-4800000D01*
G75*
G02*
X8000000Y-5025000I-225000J0D01*
G01*
X7550000Y-5025000D01*
G75*
G02*
X7325000Y-4800000I0J225000D01*
G01*
X7325000Y-4300000D01*
G75*
G02*
X7550000Y-4075000I225000J0D01*
G01*
X8000000Y-4075000D01*
G75*
G02*
X8225000Y-4300000I0J-225000D01*
G01*
G37*
G04 #@! TD.AperFunction*
G04 #@! TA.AperFunction,SMDPad,CuDef*
G36*
G01*
X6675000Y-4300000D02*
X6675000Y-4800000D01*
G75*
G02*
X6450000Y-5025000I-225000J0D01*
G01*
X6000000Y-5025000D01*
G75*
G02*
X5775000Y-4800000I0J225000D01*
G01*
X5775000Y-4300000D01*
G75*
G02*
X6000000Y-4075000I225000J0D01*
G01*
X6450000Y-4075000D01*
G75*
G02*
X6675000Y-4300000I0J-225000D01*
G01*
G37*
G04 #@! TD.AperFunction*
G04 #@! TA.AperFunction,SMDPad,CuDef*
G36*
G01*
X7650000Y3525000D02*
X7150000Y3525000D01*
G75*
G02*
X6925000Y3750000I0J225000D01*
G01*
X6925000Y4200000D01*
G75*
G02*
X7150000Y4425000I225000J0D01*
G01*
X7650000Y4425000D01*
G75*
G02*
X7875000Y4200000I0J-225000D01*
G01*
X7875000Y3750000D01*
G75*
G02*
X7650000Y3525000I-225000J0D01*
G01*
G37*
G04 #@! TD.AperFunction*
G04 #@! TA.AperFunction,SMDPad,CuDef*
G36*
G01*
X7650000Y1975000D02*
X7150000Y1975000D01*
G75*
G02*
X6925000Y2200000I0J225000D01*
G01*
X6925000Y2650000D01*
G75*
G02*
X7150000Y2875000I225000J0D01*
G01*
X7650000Y2875000D01*
G75*
G02*
X7875000Y2650000I0J-225000D01*
G01*
X7875000Y2200000D01*
G75*
G02*
X7650000Y1975000I-225000J0D01*
G01*
G37*
G04 #@! TD.AperFunction*
D16*
X4554225Y3948203D03*
X-550000Y-3350000D03*
X9100000Y-3940000D03*
X12250000Y290000D03*
X11300000Y1250000D03*
X8590000Y3620000D03*
X4500000Y-4900000D03*
X4550000Y-3900000D03*
X-550000Y1900000D03*
X11090000Y-3950000D03*
X10400000Y500000D03*
X11040000Y3370000D03*
X8510000Y2500000D03*
X8600000Y1350000D03*
X8180000Y4980000D03*
X11400000Y-500000D03*
X10400000Y-3080000D03*
X12290000Y2020000D03*
X12030000Y-2270000D03*
D17*
X12050000Y-3799999D03*
D16*
X6600000Y650000D03*
X5150000Y-660000D03*
X2893081Y-457694D03*
X2409444Y-1555543D03*
X9050000Y-200000D03*
X10880269Y-19731D03*
D18*
X3100000Y-3400000D02*
X3052002Y-3400000D01*
X3250000Y-3250000D02*
X3100000Y-3400000D01*
X4045000Y-3250000D02*
X3250000Y-3250000D01*
X4045000Y3250000D02*
X3200000Y3250000D01*
X3200000Y3250000D02*
X3000000Y3450000D01*
X4550000Y3755000D02*
X4045000Y3250000D01*
X4550000Y3950000D02*
X4550000Y3755000D01*
X4837500Y-3250000D02*
X6137500Y-4550000D01*
X4045000Y-3250000D02*
X4837500Y-3250000D01*
X4552428Y3950000D02*
X4554225Y3948203D01*
X4550000Y3950000D02*
X4552428Y3950000D01*
X4718522Y4112500D02*
X4554225Y3948203D01*
X5935703Y3948203D02*
X6100000Y4112500D01*
X4554225Y3948203D02*
X5935703Y3948203D01*
X4550000Y-3755000D02*
X4045000Y-3250000D01*
X4550000Y-3900000D02*
X4550000Y-3755000D01*
X3550000Y3250000D02*
X3305010Y3494990D01*
X4045000Y3250000D02*
X3550000Y3250000D01*
X3044990Y3494990D02*
X3000000Y3450000D01*
X3305010Y3494990D02*
X3044990Y3494990D01*
X3200000Y3150000D02*
X3274999Y3075001D01*
X3200000Y3250000D02*
X3200000Y3150000D01*
D19*
X5145001Y-2200001D02*
X4895002Y-2450000D01*
X4895002Y-2450000D02*
X4045000Y-2450000D01*
X5270000Y-2900000D02*
X6150000Y-2900000D01*
X5145001Y-2775001D02*
X5270000Y-2900000D01*
X5145001Y-2200001D02*
X5145001Y-2775001D01*
X6137500Y-2912500D02*
X6150000Y-2900000D01*
X6212500Y-2900000D02*
X7862500Y-4550000D01*
X6150000Y-2900000D02*
X6212500Y-2900000D01*
X5735002Y-1000000D02*
X6150000Y-1000000D01*
X5450001Y-1285001D02*
X5735002Y-1000000D01*
X5364999Y-1285001D02*
X5450001Y-1285001D01*
X5145001Y-1504999D02*
X5364999Y-1285001D01*
X5145001Y-2200001D02*
X5145001Y-1504999D01*
X12501990Y-4585002D02*
X13000000Y-4086992D01*
X13000000Y-4086992D02*
X13000000Y-3810000D01*
X7810002Y-4585002D02*
X12501990Y-4585002D01*
X7775000Y-4550000D02*
X7810002Y-4585002D01*
X3194998Y2450000D02*
X4045000Y2450000D01*
X2944999Y2200001D02*
X3194998Y2450000D01*
X2944999Y1244999D02*
X2944999Y2200001D01*
X1774998Y74998D02*
X2944999Y1244999D01*
X1774998Y-1804996D02*
X1774998Y74998D01*
X2160001Y-2189999D02*
X1774998Y-1804996D01*
X2936001Y-2189999D02*
X2160001Y-2189999D01*
X3196002Y-2450000D02*
X2936001Y-2189999D01*
X4045000Y-2450000D02*
X3196002Y-2450000D01*
X8350000Y-1000000D02*
X9250001Y-1000000D01*
X9250001Y-1000000D02*
X12050000Y-3799999D01*
X8112000Y-1000000D02*
X8350000Y-1000000D01*
X6900000Y1413188D02*
X6900000Y800000D01*
X7350000Y1863188D02*
X6900000Y1413188D01*
X7350000Y2425000D02*
X7350000Y1863188D01*
X8350000Y-650000D02*
X8350000Y-1000000D01*
X7750010Y-50010D02*
X8350000Y-650000D01*
X7336822Y-50010D02*
X7750010Y-50010D01*
X6900000Y386812D02*
X7336822Y-50010D01*
X6900000Y800000D02*
X6900000Y386812D01*
X6750000Y650000D02*
X6900000Y800000D01*
X6275000Y650000D02*
X6125000Y800000D01*
X6600000Y650000D02*
X6275000Y650000D01*
X6600000Y650000D02*
X6750000Y650000D01*
D20*
X4960002Y-750000D02*
X4045000Y-750000D01*
X4960002Y250000D02*
X5070001Y140001D01*
X5070001Y-640001D02*
X4960002Y-750000D01*
X4045000Y250000D02*
X4960002Y250000D01*
X5070001Y140001D02*
X5070001Y-270001D01*
X5070001Y-270001D02*
X5070001Y-640001D01*
X3129998Y-250000D02*
X4045000Y-250000D01*
X3129998Y-250000D02*
X3019999Y-140001D01*
X3019999Y-140001D02*
X3019999Y640001D01*
X3019999Y640001D02*
X3129998Y750000D01*
X3129998Y750000D02*
X4045000Y750000D01*
X2922304Y-457694D02*
X2893081Y-457694D01*
X3129998Y-250000D02*
X2922304Y-457694D01*
X2925543Y-1555543D02*
X2409444Y-1555543D01*
X4045000Y-1750000D02*
X3120000Y-1750000D01*
X3120000Y-1750000D02*
X2925543Y-1555543D01*
X5070001Y1645001D02*
X5712500Y2287500D01*
X5070001Y1359999D02*
X5070001Y1645001D01*
X5010001Y1299999D02*
X5070001Y1359999D01*
X4724999Y1299999D02*
X5010001Y1299999D01*
X4675000Y1250000D02*
X4724999Y1299999D01*
X5712500Y2287500D02*
X6100000Y2287500D01*
X4045000Y1250000D02*
X4675000Y1250000D01*
X12440000Y-2830000D02*
X11780000Y-2830000D01*
X7575000Y800000D02*
X8575000Y-200000D01*
X9150000Y-200000D02*
X9050000Y-200000D01*
X11780000Y-2830000D02*
X9150000Y-200000D01*
X14000000Y-1270000D02*
X12440000Y-2830000D01*
X8575000Y-200000D02*
X9050000Y-200000D01*
X12170000Y1270000D02*
X10880269Y-19731D01*
X13000000Y1270000D02*
X12170000Y1270000D01*
X12920000Y1350000D02*
X13000000Y1270000D01*
X13955998Y1270000D02*
X14000000Y1270000D01*
X14227922Y5151094D02*
X14447165Y5084900D01*
X14649370Y4977386D01*
X14826847Y4832639D01*
X14906823Y4735964D01*
X14229000Y4735000D01*
X14154000Y4660000D01*
X14154000Y3964000D01*
X14174000Y3964000D01*
X14174000Y3656000D01*
X14154000Y3656000D01*
X14154000Y2960000D01*
X14229000Y2885000D01*
X15175000Y2883655D01*
X15175000Y2196451D01*
X12750000Y2196451D01*
X12691190Y2190659D01*
X12634640Y2173504D01*
X12582523Y2145647D01*
X12536842Y2108158D01*
X12499353Y2062477D01*
X12471496Y2010360D01*
X12454341Y1953810D01*
X12448549Y1895000D01*
X12448549Y1670000D01*
X12189635Y1670000D01*
X12169999Y1671934D01*
X12150363Y1670000D01*
X12150353Y1670000D01*
X12091586Y1664212D01*
X12016186Y1641340D01*
X11946697Y1604197D01*
X11920258Y1582499D01*
X11901049Y1566735D01*
X11901047Y1566733D01*
X11885789Y1554211D01*
X11873267Y1538953D01*
X10864584Y530269D01*
X10826099Y530269D01*
X10719840Y509133D01*
X10619746Y467672D01*
X10529665Y407482D01*
X10453056Y330873D01*
X10392866Y240792D01*
X10351405Y140698D01*
X10330269Y34439D01*
X10330269Y-73901D01*
X10351405Y-180160D01*
X10392866Y-280254D01*
X10453056Y-370335D01*
X10529665Y-446944D01*
X10619746Y-507134D01*
X10719840Y-548595D01*
X10826099Y-569731D01*
X10934439Y-569731D01*
X11040698Y-548595D01*
X11140792Y-507134D01*
X11230873Y-446944D01*
X11307482Y-370335D01*
X11367672Y-280254D01*
X11409133Y-180160D01*
X11430269Y-73901D01*
X11430269Y-35416D01*
X12335686Y870000D01*
X12448549Y870000D01*
X12448549Y645000D01*
X12454341Y586190D01*
X12471496Y529640D01*
X12499353Y477523D01*
X12536842Y431842D01*
X12582523Y394353D01*
X12634640Y366496D01*
X12691190Y349341D01*
X12750000Y343549D01*
X15175000Y343549D01*
X15175001Y-343549D01*
X12750000Y-343549D01*
X12691190Y-349341D01*
X12634640Y-366496D01*
X12582523Y-394353D01*
X12536842Y-431842D01*
X12499353Y-477523D01*
X12471496Y-529640D01*
X12454341Y-586190D01*
X12448549Y-645000D01*
X12448549Y-1895000D01*
X12454341Y-1953810D01*
X12471496Y-2010360D01*
X12499353Y-2062477D01*
X12536842Y-2108158D01*
X12569421Y-2134894D01*
X12274315Y-2430000D01*
X11945685Y-2430000D01*
X9584726Y-69041D01*
X9578864Y-39571D01*
X9537403Y60523D01*
X9477213Y150604D01*
X9400604Y227213D01*
X9310523Y287403D01*
X9210429Y328864D01*
X9104170Y350000D01*
X8995830Y350000D01*
X8889571Y328864D01*
X8789477Y287403D01*
X8707834Y232851D01*
X8471003Y469682D01*
X8476451Y525000D01*
X8476451Y1075000D01*
X8466816Y1172828D01*
X8438280Y1266897D01*
X8391941Y1353591D01*
X8329579Y1429579D01*
X8253591Y1491941D01*
X8166897Y1538280D01*
X8072828Y1566816D01*
X7975000Y1576451D01*
X7729162Y1576451D01*
X7746859Y1598015D01*
X7790966Y1680534D01*
X7795890Y1696765D01*
X7851464Y1713623D01*
X7942481Y1762272D01*
X8022257Y1827743D01*
X8087728Y1907519D01*
X8136377Y1998536D01*
X8166335Y2097295D01*
X8176451Y2200000D01*
X8176451Y2650000D01*
X8166335Y2752705D01*
X8136377Y2851464D01*
X8087728Y2942481D01*
X8022257Y3022257D01*
X7942481Y3087728D01*
X7851464Y3136377D01*
X7752705Y3166335D01*
X7650000Y3176451D01*
X7150000Y3176451D01*
X7047295Y3166335D01*
X6948536Y3136377D01*
X6857519Y3087728D01*
X6777743Y3022257D01*
X6712272Y2942481D01*
X6663623Y2851464D01*
X6633665Y2752705D01*
X6623549Y2650000D01*
X6623549Y2200000D01*
X6633665Y2097295D01*
X6663623Y1998536D01*
X6712272Y1907519D01*
X6716919Y1901857D01*
X6580634Y1765572D01*
X6562499Y1750689D01*
X6503141Y1678361D01*
X6459034Y1595841D01*
X6447920Y1559204D01*
X6422828Y1566816D01*
X6325000Y1576451D01*
X5925000Y1576451D01*
X5827172Y1566816D01*
X5733103Y1538280D01*
X5646409Y1491941D01*
X5570421Y1429579D01*
X5508059Y1353591D01*
X5461720Y1266897D01*
X5433184Y1172828D01*
X5423549Y1075000D01*
X5423549Y525000D01*
X5433184Y427172D01*
X5461720Y333103D01*
X5508059Y246409D01*
X5570421Y170421D01*
X5646409Y108059D01*
X5733103Y61720D01*
X5827172Y33184D01*
X5925000Y23549D01*
X6325000Y23549D01*
X6422828Y33184D01*
X6516897Y61720D01*
X6541517Y74879D01*
X6562500Y49311D01*
X6580629Y34433D01*
X6984447Y-369386D01*
X6999321Y-387511D01*
X7017444Y-402384D01*
X7071649Y-446869D01*
X7154168Y-490976D01*
X7243706Y-518137D01*
X7336822Y-527308D01*
X7360154Y-525010D01*
X7553260Y-525010D01*
X7557656Y-529406D01*
X7541496Y-559640D01*
X7524341Y-616190D01*
X7518549Y-675000D01*
X7518549Y-1325000D01*
X7524341Y-1383810D01*
X7541496Y-1440360D01*
X7569353Y-1492477D01*
X7606842Y-1538158D01*
X7652523Y-1575647D01*
X7704640Y-1603504D01*
X7761190Y-1620659D01*
X7820000Y-1626451D01*
X8880000Y-1626451D01*
X8938810Y-1620659D01*
X8995360Y-1603504D01*
X9047477Y-1575647D01*
X9093158Y-1538158D01*
X9103638Y-1525388D01*
X11350000Y-3771751D01*
X11350000Y-3868943D01*
X11376901Y-4004181D01*
X11420733Y-4110002D01*
X8489855Y-4110002D01*
X8486377Y-4098536D01*
X8437728Y-4007519D01*
X8372257Y-3927743D01*
X8292481Y-3862272D01*
X8201464Y-3813623D01*
X8102705Y-3783665D01*
X8000000Y-3773549D01*
X7757800Y-3773549D01*
X6981451Y-2997201D01*
X6981451Y-2575000D01*
X7518549Y-2575000D01*
X7518549Y-3225000D01*
X7524341Y-3283810D01*
X7541496Y-3340360D01*
X7569353Y-3392477D01*
X7606842Y-3438158D01*
X7652523Y-3475647D01*
X7704640Y-3503504D01*
X7761190Y-3520659D01*
X7820000Y-3526451D01*
X8880000Y-3526451D01*
X8938810Y-3520659D01*
X8995360Y-3503504D01*
X9047477Y-3475647D01*
X9093158Y-3438158D01*
X9130647Y-3392477D01*
X9158504Y-3340360D01*
X9175659Y-3283810D01*
X9181451Y-3225000D01*
X9181451Y-2575000D01*
X9175659Y-2516190D01*
X9158504Y-2459640D01*
X9130647Y-2407523D01*
X9093158Y-2361842D01*
X9047477Y-2324353D01*
X8995360Y-2296496D01*
X8938810Y-2279341D01*
X8880000Y-2273549D01*
X7820000Y-2273549D01*
X7761190Y-2279341D01*
X7704640Y-2296496D01*
X7652523Y-2324353D01*
X7606842Y-2361842D01*
X7569353Y-2407523D01*
X7541496Y-2459640D01*
X7524341Y-2516190D01*
X7518549Y-2575000D01*
X6981451Y-2575000D01*
X6975659Y-2516190D01*
X6958504Y-2459640D01*
X6939989Y-2425001D01*
X6958505Y-2390361D01*
X6975660Y-2333810D01*
X6981452Y-2275000D01*
X6980000Y-2179000D01*
X6905000Y-2104000D01*
X6304000Y-2104000D01*
X6304000Y-2124000D01*
X5996000Y-2124000D01*
X5996000Y-2104000D01*
X5976000Y-2104000D01*
X5976000Y-1796000D01*
X5996000Y-1796000D01*
X5996000Y-1776000D01*
X6304000Y-1776000D01*
X6304000Y-1796000D01*
X6905000Y-1796000D01*
X6980000Y-1721000D01*
X6981452Y-1625000D01*
X6975660Y-1566190D01*
X6958505Y-1509639D01*
X6939989Y-1474999D01*
X6958504Y-1440360D01*
X6975659Y-1383810D01*
X6981451Y-1325000D01*
X6981451Y-675000D01*
X6975659Y-616190D01*
X6958504Y-559640D01*
X6930647Y-507523D01*
X6893158Y-461842D01*
X6847477Y-424353D01*
X6795360Y-396496D01*
X6738810Y-379341D01*
X6680000Y-373549D01*
X5620079Y-373549D01*
X5577213Y-309396D01*
X5500604Y-232787D01*
X5470001Y-212339D01*
X5470001Y120366D01*
X5471935Y140002D01*
X5470001Y159638D01*
X5470001Y159648D01*
X5464213Y218415D01*
X5441341Y293815D01*
X5404198Y363304D01*
X5354212Y424212D01*
X5338950Y436737D01*
X5256739Y518948D01*
X5244213Y534211D01*
X5183305Y584197D01*
X5113816Y621340D01*
X5071451Y634191D01*
X5071451Y900000D01*
X5071050Y904077D01*
X5088415Y905787D01*
X5163815Y928659D01*
X5233304Y965802D01*
X5294212Y1015788D01*
X5306738Y1031051D01*
X5338950Y1063263D01*
X5354212Y1075788D01*
X5404198Y1136696D01*
X5441341Y1206185D01*
X5464213Y1281585D01*
X5470001Y1340352D01*
X5470001Y1340353D01*
X5471936Y1359999D01*
X5470001Y1379646D01*
X5470001Y1479316D01*
X5664234Y1673549D01*
X6075000Y1673549D01*
X6172828Y1683184D01*
X6266897Y1711720D01*
X6353591Y1758059D01*
X6429579Y1820421D01*
X6491941Y1896409D01*
X6538280Y1983103D01*
X6566816Y2077172D01*
X6576451Y2175000D01*
X6576451Y2575000D01*
X6566816Y2672828D01*
X6538280Y2766897D01*
X6491941Y2853591D01*
X6429579Y2929579D01*
X6353591Y2991941D01*
X6266897Y3038280D01*
X6172828Y3066816D01*
X6075000Y3076451D01*
X5525000Y3076451D01*
X5427172Y3066816D01*
X5333103Y3038280D01*
X5246409Y2991941D01*
X5170421Y2929579D01*
X5108059Y2853591D01*
X5068532Y2779641D01*
X5065659Y2808810D01*
X5053164Y2849998D01*
X5065660Y2891190D01*
X5071452Y2950000D01*
X5070000Y3021000D01*
X4995000Y3096000D01*
X4199000Y3096000D01*
X4199000Y3076000D01*
X3891000Y3076000D01*
X3891000Y3096000D01*
X3871000Y3096000D01*
X3871000Y3185000D01*
X12448548Y3185000D01*
X12454340Y3126190D01*
X12471495Y3069639D01*
X12499352Y3017522D01*
X12536841Y2971841D01*
X12582522Y2934352D01*
X12634639Y2906495D01*
X12691190Y2889340D01*
X12750000Y2883548D01*
X13771000Y2885000D01*
X13846000Y2960000D01*
X13846000Y3656000D01*
X12525000Y3656000D01*
X12450000Y3581000D01*
X12448548Y3185000D01*
X3871000Y3185000D01*
X3871000Y3404000D01*
X3891000Y3404000D01*
X3891000Y3424000D01*
X4199000Y3424000D01*
X4199000Y3404000D01*
X4995000Y3404000D01*
X5065355Y3474355D01*
X5074352Y3457522D01*
X5111841Y3411841D01*
X5157522Y3374352D01*
X5209639Y3346495D01*
X5266190Y3329340D01*
X5325000Y3323548D01*
X5571000Y3325000D01*
X5646000Y3400000D01*
X5646000Y3871000D01*
X5954000Y3871000D01*
X5954000Y3400000D01*
X6029000Y3325000D01*
X6275000Y3323548D01*
X6333810Y3329340D01*
X6390361Y3346495D01*
X6442478Y3374352D01*
X6488159Y3411841D01*
X6525648Y3457522D01*
X6553505Y3509639D01*
X6558164Y3525000D01*
X6623548Y3525000D01*
X6629340Y3466190D01*
X6646495Y3409639D01*
X6674352Y3357522D01*
X6711841Y3311841D01*
X6757522Y3274352D01*
X6809639Y3246495D01*
X6866190Y3229340D01*
X6925000Y3223548D01*
X7171000Y3225000D01*
X7246000Y3300000D01*
X7246000Y3821000D01*
X7554000Y3821000D01*
X7554000Y3300000D01*
X7629000Y3225000D01*
X7875000Y3223548D01*
X7933810Y3229340D01*
X7990361Y3246495D01*
X8042478Y3274352D01*
X8088159Y3311841D01*
X8125648Y3357522D01*
X8153505Y3409639D01*
X8170660Y3466190D01*
X8176452Y3525000D01*
X8175000Y3746000D01*
X8100000Y3821000D01*
X7554000Y3821000D01*
X7246000Y3821000D01*
X6700000Y3821000D01*
X6625000Y3746000D01*
X6623548Y3525000D01*
X6558164Y3525000D01*
X6570660Y3566190D01*
X6576452Y3625000D01*
X6575000Y3796000D01*
X6500000Y3871000D01*
X5954000Y3871000D01*
X5646000Y3871000D01*
X5100000Y3871000D01*
X5025000Y3796000D01*
X5024276Y3710691D01*
X5020648Y3717478D01*
X4983159Y3763159D01*
X4937478Y3800648D01*
X4885361Y3828505D01*
X4828810Y3845660D01*
X4770000Y3851452D01*
X4329327Y3850162D01*
X4348393Y3873394D01*
X4422679Y4012372D01*
X4468424Y4163173D01*
X4483870Y4320000D01*
X4473529Y4425000D01*
X5023548Y4425000D01*
X5025000Y4254000D01*
X5100000Y4179000D01*
X5646000Y4179000D01*
X5646000Y4650000D01*
X5954000Y4650000D01*
X5954000Y4179000D01*
X6500000Y4179000D01*
X6575000Y4254000D01*
X6576452Y4425000D01*
X6623548Y4425000D01*
X6625000Y4204000D01*
X6700000Y4129000D01*
X7246000Y4129000D01*
X7246000Y4650000D01*
X7554000Y4650000D01*
X7554000Y4129000D01*
X8100000Y4129000D01*
X8175000Y4204000D01*
X8176452Y4425000D01*
X8175468Y4435000D01*
X12448548Y4435000D01*
X12450000Y4039000D01*
X12525000Y3964000D01*
X13846000Y3964000D01*
X13846000Y4660000D01*
X13771000Y4735000D01*
X12750000Y4736452D01*
X12691190Y4730660D01*
X12634639Y4713505D01*
X12582522Y4685648D01*
X12536841Y4648159D01*
X12499352Y4602478D01*
X12471495Y4550361D01*
X12454340Y4493810D01*
X12448548Y4435000D01*
X8175468Y4435000D01*
X8170660Y4483810D01*
X8153505Y4540361D01*
X8125648Y4592478D01*
X8088159Y4638159D01*
X8042478Y4675648D01*
X7990361Y4703505D01*
X7933810Y4720660D01*
X7875000Y4726452D01*
X7629000Y4725000D01*
X7554000Y4650000D01*
X7246000Y4650000D01*
X7171000Y4725000D01*
X6925000Y4726452D01*
X6866190Y4720660D01*
X6809639Y4703505D01*
X6757522Y4675648D01*
X6711841Y4638159D01*
X6674352Y4592478D01*
X6646495Y4540361D01*
X6629340Y4483810D01*
X6623548Y4425000D01*
X6576452Y4425000D01*
X6570660Y4483810D01*
X6553505Y4540361D01*
X6525648Y4592478D01*
X6488159Y4638159D01*
X6442478Y4675648D01*
X6390361Y4703505D01*
X6333810Y4720660D01*
X6275000Y4726452D01*
X6029000Y4725000D01*
X5954000Y4650000D01*
X5646000Y4650000D01*
X5571000Y4725000D01*
X5325000Y4726452D01*
X5266190Y4720660D01*
X5209639Y4703505D01*
X5157522Y4675648D01*
X5111841Y4638159D01*
X5074352Y4592478D01*
X5046495Y4540361D01*
X5029340Y4483810D01*
X5023548Y4425000D01*
X4473529Y4425000D01*
X4468424Y4476827D01*
X4422679Y4627628D01*
X4348393Y4766606D01*
X4248422Y4888422D01*
X4126606Y4988393D01*
X3987628Y5062679D01*
X3836827Y5108424D01*
X3719293Y5120000D01*
X2540707Y5120000D01*
X2423173Y5108424D01*
X2272372Y5062679D01*
X2133394Y4988393D01*
X2011578Y4888422D01*
X1911607Y4766606D01*
X1837321Y4627628D01*
X1791576Y4476827D01*
X1776130Y4320000D01*
X1791576Y4163173D01*
X1837321Y4012372D01*
X1911607Y3873394D01*
X2011578Y3751578D01*
X2133394Y3651607D01*
X2272372Y3577321D01*
X2423173Y3531576D01*
X2540707Y3520000D01*
X3019162Y3520000D01*
X3020000Y3479000D01*
X3094998Y3404002D01*
X3020000Y3404002D01*
X3020000Y3353883D01*
X2998414Y3375469D01*
X2896048Y3443868D01*
X2782306Y3490981D01*
X2661557Y3515000D01*
X2538443Y3515000D01*
X2417694Y3490981D01*
X2303952Y3443868D01*
X2201586Y3375469D01*
X2114531Y3288414D01*
X2046132Y3186048D01*
X1999019Y3072306D01*
X1975000Y2951557D01*
X1975000Y2828443D01*
X1999019Y2707694D01*
X2046132Y2593952D01*
X2114531Y2491586D01*
X2201586Y2404531D01*
X2303952Y2336132D01*
X2417694Y2289019D01*
X2475339Y2277552D01*
X2467701Y2200001D01*
X2470000Y2176659D01*
X2469999Y1441750D01*
X1455627Y427377D01*
X1437498Y412499D01*
X1378140Y340171D01*
X1353362Y293814D01*
X1334033Y257652D01*
X1306871Y168114D01*
X1297700Y74998D01*
X1299999Y51656D01*
X1299998Y-1781663D01*
X1297700Y-1804996D01*
X1306871Y-1898112D01*
X1314975Y-1924825D01*
X1334032Y-1987649D01*
X1378139Y-2070169D01*
X1437497Y-2142497D01*
X1455632Y-2157380D01*
X1807621Y-2509370D01*
X1822500Y-2527500D01*
X1894828Y-2586858D01*
X1977347Y-2630965D01*
X2024834Y-2645370D01*
X1999019Y-2707694D01*
X1975000Y-2828443D01*
X1975000Y-2951557D01*
X1999019Y-3072306D01*
X2046132Y-3186048D01*
X2114531Y-3288414D01*
X2201586Y-3375469D01*
X2303952Y-3443868D01*
X2417694Y-3490981D01*
X2538443Y-3515000D01*
X2661557Y-3515000D01*
X2782306Y-3490981D01*
X2896048Y-3443868D01*
X2998414Y-3375469D01*
X3020000Y-3353883D01*
X3020000Y-3404002D01*
X3094998Y-3404002D01*
X3020000Y-3479000D01*
X3019162Y-3520000D01*
X2540707Y-3520000D01*
X2423173Y-3531576D01*
X2272372Y-3577321D01*
X2133394Y-3651607D01*
X2011578Y-3751578D01*
X1911607Y-3873394D01*
X1837321Y-4012372D01*
X1791576Y-4163173D01*
X1776130Y-4320000D01*
X1791576Y-4476827D01*
X1837321Y-4627628D01*
X1911607Y-4766606D01*
X2011578Y-4888422D01*
X2133394Y-4988393D01*
X2272372Y-5062679D01*
X2423173Y-5108424D01*
X2540707Y-5120000D01*
X3719293Y-5120000D01*
X3836827Y-5108424D01*
X3987628Y-5062679D01*
X4126606Y-4988393D01*
X4248422Y-4888422D01*
X4348393Y-4766606D01*
X4422679Y-4627628D01*
X4468424Y-4476827D01*
X4483870Y-4320000D01*
X4468424Y-4163173D01*
X4441678Y-4075000D01*
X5473548Y-4075000D01*
X5475000Y-4321000D01*
X5550000Y-4396000D01*
X6071000Y-4396000D01*
X6071000Y-3850000D01*
X5996000Y-3775000D01*
X5775000Y-3773548D01*
X5716190Y-3779340D01*
X5659639Y-3796495D01*
X5607522Y-3824352D01*
X5561841Y-3861841D01*
X5524352Y-3907522D01*
X5496495Y-3959639D01*
X5479340Y-4016190D01*
X5473548Y-4075000D01*
X4441678Y-4075000D01*
X4422679Y-4012372D01*
X4348393Y-3873394D01*
X4329327Y-3850162D01*
X4770000Y-3851452D01*
X4828810Y-3845660D01*
X4885361Y-3828505D01*
X4937478Y-3800648D01*
X4983159Y-3763159D01*
X5020648Y-3717478D01*
X5048505Y-3665361D01*
X5065660Y-3608810D01*
X5071452Y-3550000D01*
X5070000Y-3479000D01*
X4995002Y-3404002D01*
X5070000Y-3404002D01*
X5070000Y-3331694D01*
X5087346Y-3340966D01*
X5156044Y-3361805D01*
X5176883Y-3368127D01*
X5269999Y-3377298D01*
X5293331Y-3375000D01*
X5360011Y-3375000D01*
X5369353Y-3392477D01*
X5406842Y-3438158D01*
X5452523Y-3475647D01*
X5504640Y-3503504D01*
X5561190Y-3520659D01*
X5620000Y-3526451D01*
X6167201Y-3526451D01*
X6434875Y-3794125D01*
X6379000Y-3850000D01*
X6379000Y-4396000D01*
X6900000Y-4396000D01*
X6968375Y-4327625D01*
X7023549Y-4382800D01*
X7023549Y-4383861D01*
X7022836Y-4385195D01*
X7005764Y-4441473D01*
X7000000Y-4500000D01*
X7000000Y-5175000D01*
X6934990Y-5175000D01*
X6953505Y-5140361D01*
X6970660Y-5083810D01*
X6976452Y-5025000D01*
X6975000Y-4779000D01*
X6900000Y-4704000D01*
X6379000Y-4704000D01*
X6379000Y-4724000D01*
X6071000Y-4724000D01*
X6071000Y-4704000D01*
X5550000Y-4704000D01*
X5475000Y-4779000D01*
X5473548Y-5025000D01*
X5479340Y-5083810D01*
X5496495Y-5140361D01*
X5515010Y-5175000D01*
X-984104Y-5175000D01*
X-1227922Y-5151094D01*
X-1330909Y-5120000D01*
X-710707Y-5120000D01*
X-593173Y-5108424D01*
X-442372Y-5062679D01*
X-303394Y-4988393D01*
X-181578Y-4888422D01*
X-81607Y-4766606D01*
X-7321Y-4627628D01*
X38424Y-4476827D01*
X53870Y-4320000D01*
X38424Y-4163173D01*
X-7321Y-4012372D01*
X-81607Y-3873394D01*
X-181578Y-3751578D01*
X-303394Y-3651607D01*
X-442372Y-3577321D01*
X-593173Y-3531576D01*
X-710707Y-3520000D01*
X-1389293Y-3520000D01*
X-1506827Y-3531576D01*
X-1657628Y-3577321D01*
X-1796606Y-3651607D01*
X-1918422Y-3751578D01*
X-2018393Y-3873394D01*
X-2092679Y-4012372D01*
X-2138424Y-4163173D01*
X-2146529Y-4245469D01*
X-2149474Y-4235958D01*
X-2175000Y-3993085D01*
X-2175000Y3984104D01*
X-2151094Y4227922D01*
X-2146349Y4243637D01*
X-2138424Y4163173D01*
X-2092679Y4012372D01*
X-2018393Y3873394D01*
X-1918422Y3751578D01*
X-1796606Y3651607D01*
X-1657628Y3577321D01*
X-1506827Y3531576D01*
X-1389293Y3520000D01*
X-710707Y3520000D01*
X-593173Y3531576D01*
X-442372Y3577321D01*
X-303394Y3651607D01*
X-181578Y3751578D01*
X-81607Y3873394D01*
X-7321Y4012372D01*
X38424Y4163173D01*
X53870Y4320000D01*
X38424Y4476827D01*
X-7321Y4627628D01*
X-81607Y4766606D01*
X-181578Y4888422D01*
X-303394Y4988393D01*
X-442372Y5062679D01*
X-593173Y5108424D01*
X-710707Y5120000D01*
X-1331169Y5120000D01*
X-1235953Y5149474D01*
X-993085Y5175000D01*
X13984104Y5175000D01*
X14227922Y5151094D01*
G04 #@! TA.AperFunction,Conductor*
D21*
G36*
X14227922Y5151094D02*
G01*
X14447165Y5084900D01*
X14649370Y4977386D01*
X14826847Y4832639D01*
X14906823Y4735964D01*
X14229000Y4735000D01*
X14154000Y4660000D01*
X14154000Y3964000D01*
X14174000Y3964000D01*
X14174000Y3656000D01*
X14154000Y3656000D01*
X14154000Y2960000D01*
X14229000Y2885000D01*
X15175000Y2883655D01*
X15175000Y2196451D01*
X12750000Y2196451D01*
X12691190Y2190659D01*
X12634640Y2173504D01*
X12582523Y2145647D01*
X12536842Y2108158D01*
X12499353Y2062477D01*
X12471496Y2010360D01*
X12454341Y1953810D01*
X12448549Y1895000D01*
X12448549Y1670000D01*
X12189635Y1670000D01*
X12169999Y1671934D01*
X12150363Y1670000D01*
X12150353Y1670000D01*
X12091586Y1664212D01*
X12016186Y1641340D01*
X11946697Y1604197D01*
X11920258Y1582499D01*
X11901049Y1566735D01*
X11901047Y1566733D01*
X11885789Y1554211D01*
X11873267Y1538953D01*
X10864584Y530269D01*
X10826099Y530269D01*
X10719840Y509133D01*
X10619746Y467672D01*
X10529665Y407482D01*
X10453056Y330873D01*
X10392866Y240792D01*
X10351405Y140698D01*
X10330269Y34439D01*
X10330269Y-73901D01*
X10351405Y-180160D01*
X10392866Y-280254D01*
X10453056Y-370335D01*
X10529665Y-446944D01*
X10619746Y-507134D01*
X10719840Y-548595D01*
X10826099Y-569731D01*
X10934439Y-569731D01*
X11040698Y-548595D01*
X11140792Y-507134D01*
X11230873Y-446944D01*
X11307482Y-370335D01*
X11367672Y-280254D01*
X11409133Y-180160D01*
X11430269Y-73901D01*
X11430269Y-35416D01*
X12335686Y870000D01*
X12448549Y870000D01*
X12448549Y645000D01*
X12454341Y586190D01*
X12471496Y529640D01*
X12499353Y477523D01*
X12536842Y431842D01*
X12582523Y394353D01*
X12634640Y366496D01*
X12691190Y349341D01*
X12750000Y343549D01*
X15175000Y343549D01*
X15175001Y-343549D01*
X12750000Y-343549D01*
X12691190Y-349341D01*
X12634640Y-366496D01*
X12582523Y-394353D01*
X12536842Y-431842D01*
X12499353Y-477523D01*
X12471496Y-529640D01*
X12454341Y-586190D01*
X12448549Y-645000D01*
X12448549Y-1895000D01*
X12454341Y-1953810D01*
X12471496Y-2010360D01*
X12499353Y-2062477D01*
X12536842Y-2108158D01*
X12569421Y-2134894D01*
X12274315Y-2430000D01*
X11945685Y-2430000D01*
X9584726Y-69041D01*
X9578864Y-39571D01*
X9537403Y60523D01*
X9477213Y150604D01*
X9400604Y227213D01*
X9310523Y287403D01*
X9210429Y328864D01*
X9104170Y350000D01*
X8995830Y350000D01*
X8889571Y328864D01*
X8789477Y287403D01*
X8707834Y232851D01*
X8471003Y469682D01*
X8476451Y525000D01*
X8476451Y1075000D01*
X8466816Y1172828D01*
X8438280Y1266897D01*
X8391941Y1353591D01*
X8329579Y1429579D01*
X8253591Y1491941D01*
X8166897Y1538280D01*
X8072828Y1566816D01*
X7975000Y1576451D01*
X7729162Y1576451D01*
X7746859Y1598015D01*
X7790966Y1680534D01*
X7795890Y1696765D01*
X7851464Y1713623D01*
X7942481Y1762272D01*
X8022257Y1827743D01*
X8087728Y1907519D01*
X8136377Y1998536D01*
X8166335Y2097295D01*
X8176451Y2200000D01*
X8176451Y2650000D01*
X8166335Y2752705D01*
X8136377Y2851464D01*
X8087728Y2942481D01*
X8022257Y3022257D01*
X7942481Y3087728D01*
X7851464Y3136377D01*
X7752705Y3166335D01*
X7650000Y3176451D01*
X7150000Y3176451D01*
X7047295Y3166335D01*
X6948536Y3136377D01*
X6857519Y3087728D01*
X6777743Y3022257D01*
X6712272Y2942481D01*
X6663623Y2851464D01*
X6633665Y2752705D01*
X6623549Y2650000D01*
X6623549Y2200000D01*
X6633665Y2097295D01*
X6663623Y1998536D01*
X6712272Y1907519D01*
X6716919Y1901857D01*
X6580634Y1765572D01*
X6562499Y1750689D01*
X6503141Y1678361D01*
X6459034Y1595841D01*
X6447920Y1559204D01*
X6422828Y1566816D01*
X6325000Y1576451D01*
X5925000Y1576451D01*
X5827172Y1566816D01*
X5733103Y1538280D01*
X5646409Y1491941D01*
X5570421Y1429579D01*
X5508059Y1353591D01*
X5461720Y1266897D01*
X5433184Y1172828D01*
X5423549Y1075000D01*
X5423549Y525000D01*
X5433184Y427172D01*
X5461720Y333103D01*
X5508059Y246409D01*
X5570421Y170421D01*
X5646409Y108059D01*
X5733103Y61720D01*
X5827172Y33184D01*
X5925000Y23549D01*
X6325000Y23549D01*
X6422828Y33184D01*
X6516897Y61720D01*
X6541517Y74879D01*
X6562500Y49311D01*
X6580629Y34433D01*
X6984447Y-369386D01*
X6999321Y-387511D01*
X7017444Y-402384D01*
X7071649Y-446869D01*
X7154168Y-490976D01*
X7243706Y-518137D01*
X7336822Y-527308D01*
X7360154Y-525010D01*
X7553260Y-525010D01*
X7557656Y-529406D01*
X7541496Y-559640D01*
X7524341Y-616190D01*
X7518549Y-675000D01*
X7518549Y-1325000D01*
X7524341Y-1383810D01*
X7541496Y-1440360D01*
X7569353Y-1492477D01*
X7606842Y-1538158D01*
X7652523Y-1575647D01*
X7704640Y-1603504D01*
X7761190Y-1620659D01*
X7820000Y-1626451D01*
X8880000Y-1626451D01*
X8938810Y-1620659D01*
X8995360Y-1603504D01*
X9047477Y-1575647D01*
X9093158Y-1538158D01*
X9103638Y-1525388D01*
X11350000Y-3771751D01*
X11350000Y-3868943D01*
X11376901Y-4004181D01*
X11420733Y-4110002D01*
X8489855Y-4110002D01*
X8486377Y-4098536D01*
X8437728Y-4007519D01*
X8372257Y-3927743D01*
X8292481Y-3862272D01*
X8201464Y-3813623D01*
X8102705Y-3783665D01*
X8000000Y-3773549D01*
X7757800Y-3773549D01*
X6981451Y-2997201D01*
X6981451Y-2575000D01*
X7518549Y-2575000D01*
X7518549Y-3225000D01*
X7524341Y-3283810D01*
X7541496Y-3340360D01*
X7569353Y-3392477D01*
X7606842Y-3438158D01*
X7652523Y-3475647D01*
X7704640Y-3503504D01*
X7761190Y-3520659D01*
X7820000Y-3526451D01*
X8880000Y-3526451D01*
X8938810Y-3520659D01*
X8995360Y-3503504D01*
X9047477Y-3475647D01*
X9093158Y-3438158D01*
X9130647Y-3392477D01*
X9158504Y-3340360D01*
X9175659Y-3283810D01*
X9181451Y-3225000D01*
X9181451Y-2575000D01*
X9175659Y-2516190D01*
X9158504Y-2459640D01*
X9130647Y-2407523D01*
X9093158Y-2361842D01*
X9047477Y-2324353D01*
X8995360Y-2296496D01*
X8938810Y-2279341D01*
X8880000Y-2273549D01*
X7820000Y-2273549D01*
X7761190Y-2279341D01*
X7704640Y-2296496D01*
X7652523Y-2324353D01*
X7606842Y-2361842D01*
X7569353Y-2407523D01*
X7541496Y-2459640D01*
X7524341Y-2516190D01*
X7518549Y-2575000D01*
X6981451Y-2575000D01*
X6975659Y-2516190D01*
X6958504Y-2459640D01*
X6939989Y-2425001D01*
X6958505Y-2390361D01*
X6975660Y-2333810D01*
X6981452Y-2275000D01*
X6980000Y-2179000D01*
X6905000Y-2104000D01*
X6304000Y-2104000D01*
X6304000Y-2124000D01*
X5996000Y-2124000D01*
X5996000Y-2104000D01*
X5976000Y-2104000D01*
X5976000Y-1796000D01*
X5996000Y-1796000D01*
X5996000Y-1776000D01*
X6304000Y-1776000D01*
X6304000Y-1796000D01*
X6905000Y-1796000D01*
X6980000Y-1721000D01*
X6981452Y-1625000D01*
X6975660Y-1566190D01*
X6958505Y-1509639D01*
X6939989Y-1474999D01*
X6958504Y-1440360D01*
X6975659Y-1383810D01*
X6981451Y-1325000D01*
X6981451Y-675000D01*
X6975659Y-616190D01*
X6958504Y-559640D01*
X6930647Y-507523D01*
X6893158Y-461842D01*
X6847477Y-424353D01*
X6795360Y-396496D01*
X6738810Y-379341D01*
X6680000Y-373549D01*
X5620079Y-373549D01*
X5577213Y-309396D01*
X5500604Y-232787D01*
X5470001Y-212339D01*
X5470001Y120366D01*
X5471935Y140002D01*
X5470001Y159638D01*
X5470001Y159648D01*
X5464213Y218415D01*
X5441341Y293815D01*
X5404198Y363304D01*
X5354212Y424212D01*
X5338950Y436737D01*
X5256739Y518948D01*
X5244213Y534211D01*
X5183305Y584197D01*
X5113816Y621340D01*
X5071451Y634191D01*
X5071451Y900000D01*
X5071050Y904077D01*
X5088415Y905787D01*
X5163815Y928659D01*
X5233304Y965802D01*
X5294212Y1015788D01*
X5306738Y1031051D01*
X5338950Y1063263D01*
X5354212Y1075788D01*
X5404198Y1136696D01*
X5441341Y1206185D01*
X5464213Y1281585D01*
X5470001Y1340352D01*
X5470001Y1340353D01*
X5471936Y1359999D01*
X5470001Y1379646D01*
X5470001Y1479316D01*
X5664234Y1673549D01*
X6075000Y1673549D01*
X6172828Y1683184D01*
X6266897Y1711720D01*
X6353591Y1758059D01*
X6429579Y1820421D01*
X6491941Y1896409D01*
X6538280Y1983103D01*
X6566816Y2077172D01*
X6576451Y2175000D01*
X6576451Y2575000D01*
X6566816Y2672828D01*
X6538280Y2766897D01*
X6491941Y2853591D01*
X6429579Y2929579D01*
X6353591Y2991941D01*
X6266897Y3038280D01*
X6172828Y3066816D01*
X6075000Y3076451D01*
X5525000Y3076451D01*
X5427172Y3066816D01*
X5333103Y3038280D01*
X5246409Y2991941D01*
X5170421Y2929579D01*
X5108059Y2853591D01*
X5068532Y2779641D01*
X5065659Y2808810D01*
X5053164Y2849998D01*
X5065660Y2891190D01*
X5071452Y2950000D01*
X5070000Y3021000D01*
X4995000Y3096000D01*
X4199000Y3096000D01*
X4199000Y3076000D01*
X3891000Y3076000D01*
X3891000Y3096000D01*
X3871000Y3096000D01*
X3871000Y3185000D01*
X12448548Y3185000D01*
X12454340Y3126190D01*
X12471495Y3069639D01*
X12499352Y3017522D01*
X12536841Y2971841D01*
X12582522Y2934352D01*
X12634639Y2906495D01*
X12691190Y2889340D01*
X12750000Y2883548D01*
X13771000Y2885000D01*
X13846000Y2960000D01*
X13846000Y3656000D01*
X12525000Y3656000D01*
X12450000Y3581000D01*
X12448548Y3185000D01*
X3871000Y3185000D01*
X3871000Y3404000D01*
X3891000Y3404000D01*
X3891000Y3424000D01*
X4199000Y3424000D01*
X4199000Y3404000D01*
X4995000Y3404000D01*
X5065355Y3474355D01*
X5074352Y3457522D01*
X5111841Y3411841D01*
X5157522Y3374352D01*
X5209639Y3346495D01*
X5266190Y3329340D01*
X5325000Y3323548D01*
X5571000Y3325000D01*
X5646000Y3400000D01*
X5646000Y3871000D01*
X5954000Y3871000D01*
X5954000Y3400000D01*
X6029000Y3325000D01*
X6275000Y3323548D01*
X6333810Y3329340D01*
X6390361Y3346495D01*
X6442478Y3374352D01*
X6488159Y3411841D01*
X6525648Y3457522D01*
X6553505Y3509639D01*
X6558164Y3525000D01*
X6623548Y3525000D01*
X6629340Y3466190D01*
X6646495Y3409639D01*
X6674352Y3357522D01*
X6711841Y3311841D01*
X6757522Y3274352D01*
X6809639Y3246495D01*
X6866190Y3229340D01*
X6925000Y3223548D01*
X7171000Y3225000D01*
X7246000Y3300000D01*
X7246000Y3821000D01*
X7554000Y3821000D01*
X7554000Y3300000D01*
X7629000Y3225000D01*
X7875000Y3223548D01*
X7933810Y3229340D01*
X7990361Y3246495D01*
X8042478Y3274352D01*
X8088159Y3311841D01*
X8125648Y3357522D01*
X8153505Y3409639D01*
X8170660Y3466190D01*
X8176452Y3525000D01*
X8175000Y3746000D01*
X8100000Y3821000D01*
X7554000Y3821000D01*
X7246000Y3821000D01*
X6700000Y3821000D01*
X6625000Y3746000D01*
X6623548Y3525000D01*
X6558164Y3525000D01*
X6570660Y3566190D01*
X6576452Y3625000D01*
X6575000Y3796000D01*
X6500000Y3871000D01*
X5954000Y3871000D01*
X5646000Y3871000D01*
X5100000Y3871000D01*
X5025000Y3796000D01*
X5024276Y3710691D01*
X5020648Y3717478D01*
X4983159Y3763159D01*
X4937478Y3800648D01*
X4885361Y3828505D01*
X4828810Y3845660D01*
X4770000Y3851452D01*
X4329327Y3850162D01*
X4348393Y3873394D01*
X4422679Y4012372D01*
X4468424Y4163173D01*
X4483870Y4320000D01*
X4473529Y4425000D01*
X5023548Y4425000D01*
X5025000Y4254000D01*
X5100000Y4179000D01*
X5646000Y4179000D01*
X5646000Y4650000D01*
X5954000Y4650000D01*
X5954000Y4179000D01*
X6500000Y4179000D01*
X6575000Y4254000D01*
X6576452Y4425000D01*
X6623548Y4425000D01*
X6625000Y4204000D01*
X6700000Y4129000D01*
X7246000Y4129000D01*
X7246000Y4650000D01*
X7554000Y4650000D01*
X7554000Y4129000D01*
X8100000Y4129000D01*
X8175000Y4204000D01*
X8176452Y4425000D01*
X8175468Y4435000D01*
X12448548Y4435000D01*
X12450000Y4039000D01*
X12525000Y3964000D01*
X13846000Y3964000D01*
X13846000Y4660000D01*
X13771000Y4735000D01*
X12750000Y4736452D01*
X12691190Y4730660D01*
X12634639Y4713505D01*
X12582522Y4685648D01*
X12536841Y4648159D01*
X12499352Y4602478D01*
X12471495Y4550361D01*
X12454340Y4493810D01*
X12448548Y4435000D01*
X8175468Y4435000D01*
X8170660Y4483810D01*
X8153505Y4540361D01*
X8125648Y4592478D01*
X8088159Y4638159D01*
X8042478Y4675648D01*
X7990361Y4703505D01*
X7933810Y4720660D01*
X7875000Y4726452D01*
X7629000Y4725000D01*
X7554000Y4650000D01*
X7246000Y4650000D01*
X7171000Y4725000D01*
X6925000Y4726452D01*
X6866190Y4720660D01*
X6809639Y4703505D01*
X6757522Y4675648D01*
X6711841Y4638159D01*
X6674352Y4592478D01*
X6646495Y4540361D01*
X6629340Y4483810D01*
X6623548Y4425000D01*
X6576452Y4425000D01*
X6570660Y4483810D01*
X6553505Y4540361D01*
X6525648Y4592478D01*
X6488159Y4638159D01*
X6442478Y4675648D01*
X6390361Y4703505D01*
X6333810Y4720660D01*
X6275000Y4726452D01*
X6029000Y4725000D01*
X5954000Y4650000D01*
X5646000Y4650000D01*
X5571000Y4725000D01*
X5325000Y4726452D01*
X5266190Y4720660D01*
X5209639Y4703505D01*
X5157522Y4675648D01*
X5111841Y4638159D01*
X5074352Y4592478D01*
X5046495Y4540361D01*
X5029340Y4483810D01*
X5023548Y4425000D01*
X4473529Y4425000D01*
X4468424Y4476827D01*
X4422679Y4627628D01*
X4348393Y4766606D01*
X4248422Y4888422D01*
X4126606Y4988393D01*
X3987628Y5062679D01*
X3836827Y5108424D01*
X3719293Y5120000D01*
X2540707Y5120000D01*
X2423173Y5108424D01*
X2272372Y5062679D01*
X2133394Y4988393D01*
X2011578Y4888422D01*
X1911607Y4766606D01*
X1837321Y4627628D01*
X1791576Y4476827D01*
X1776130Y4320000D01*
X1791576Y4163173D01*
X1837321Y4012372D01*
X1911607Y3873394D01*
X2011578Y3751578D01*
X2133394Y3651607D01*
X2272372Y3577321D01*
X2423173Y3531576D01*
X2540707Y3520000D01*
X3019162Y3520000D01*
X3020000Y3479000D01*
X3094998Y3404002D01*
X3020000Y3404002D01*
X3020000Y3353883D01*
X2998414Y3375469D01*
X2896048Y3443868D01*
X2782306Y3490981D01*
X2661557Y3515000D01*
X2538443Y3515000D01*
X2417694Y3490981D01*
X2303952Y3443868D01*
X2201586Y3375469D01*
X2114531Y3288414D01*
X2046132Y3186048D01*
X1999019Y3072306D01*
X1975000Y2951557D01*
X1975000Y2828443D01*
X1999019Y2707694D01*
X2046132Y2593952D01*
X2114531Y2491586D01*
X2201586Y2404531D01*
X2303952Y2336132D01*
X2417694Y2289019D01*
X2475339Y2277552D01*
X2467701Y2200001D01*
X2470000Y2176659D01*
X2469999Y1441750D01*
X1455627Y427377D01*
X1437498Y412499D01*
X1378140Y340171D01*
X1353362Y293814D01*
X1334033Y257652D01*
X1306871Y168114D01*
X1297700Y74998D01*
X1299999Y51656D01*
X1299998Y-1781663D01*
X1297700Y-1804996D01*
X1306871Y-1898112D01*
X1314975Y-1924825D01*
X1334032Y-1987649D01*
X1378139Y-2070169D01*
X1437497Y-2142497D01*
X1455632Y-2157380D01*
X1807621Y-2509370D01*
X1822500Y-2527500D01*
X1894828Y-2586858D01*
X1977347Y-2630965D01*
X2024834Y-2645370D01*
X1999019Y-2707694D01*
X1975000Y-2828443D01*
X1975000Y-2951557D01*
X1999019Y-3072306D01*
X2046132Y-3186048D01*
X2114531Y-3288414D01*
X2201586Y-3375469D01*
X2303952Y-3443868D01*
X2417694Y-3490981D01*
X2538443Y-3515000D01*
X2661557Y-3515000D01*
X2782306Y-3490981D01*
X2896048Y-3443868D01*
X2998414Y-3375469D01*
X3020000Y-3353883D01*
X3020000Y-3404002D01*
X3094998Y-3404002D01*
X3020000Y-3479000D01*
X3019162Y-3520000D01*
X2540707Y-3520000D01*
X2423173Y-3531576D01*
X2272372Y-3577321D01*
X2133394Y-3651607D01*
X2011578Y-3751578D01*
X1911607Y-3873394D01*
X1837321Y-4012372D01*
X1791576Y-4163173D01*
X1776130Y-4320000D01*
X1791576Y-4476827D01*
X1837321Y-4627628D01*
X1911607Y-4766606D01*
X2011578Y-4888422D01*
X2133394Y-4988393D01*
X2272372Y-5062679D01*
X2423173Y-5108424D01*
X2540707Y-5120000D01*
X3719293Y-5120000D01*
X3836827Y-5108424D01*
X3987628Y-5062679D01*
X4126606Y-4988393D01*
X4248422Y-4888422D01*
X4348393Y-4766606D01*
X4422679Y-4627628D01*
X4468424Y-4476827D01*
X4483870Y-4320000D01*
X4468424Y-4163173D01*
X4441678Y-4075000D01*
X5473548Y-4075000D01*
X5475000Y-4321000D01*
X5550000Y-4396000D01*
X6071000Y-4396000D01*
X6071000Y-3850000D01*
X5996000Y-3775000D01*
X5775000Y-3773548D01*
X5716190Y-3779340D01*
X5659639Y-3796495D01*
X5607522Y-3824352D01*
X5561841Y-3861841D01*
X5524352Y-3907522D01*
X5496495Y-3959639D01*
X5479340Y-4016190D01*
X5473548Y-4075000D01*
X4441678Y-4075000D01*
X4422679Y-4012372D01*
X4348393Y-3873394D01*
X4329327Y-3850162D01*
X4770000Y-3851452D01*
X4828810Y-3845660D01*
X4885361Y-3828505D01*
X4937478Y-3800648D01*
X4983159Y-3763159D01*
X5020648Y-3717478D01*
X5048505Y-3665361D01*
X5065660Y-3608810D01*
X5071452Y-3550000D01*
X5070000Y-3479000D01*
X4995002Y-3404002D01*
X5070000Y-3404002D01*
X5070000Y-3331694D01*
X5087346Y-3340966D01*
X5156044Y-3361805D01*
X5176883Y-3368127D01*
X5269999Y-3377298D01*
X5293331Y-3375000D01*
X5360011Y-3375000D01*
X5369353Y-3392477D01*
X5406842Y-3438158D01*
X5452523Y-3475647D01*
X5504640Y-3503504D01*
X5561190Y-3520659D01*
X5620000Y-3526451D01*
X6167201Y-3526451D01*
X6434875Y-3794125D01*
X6379000Y-3850000D01*
X6379000Y-4396000D01*
X6900000Y-4396000D01*
X6968375Y-4327625D01*
X7023549Y-4382800D01*
X7023549Y-4383861D01*
X7022836Y-4385195D01*
X7005764Y-4441473D01*
X7000000Y-4500000D01*
X7000000Y-5175000D01*
X6934990Y-5175000D01*
X6953505Y-5140361D01*
X6970660Y-5083810D01*
X6976452Y-5025000D01*
X6975000Y-4779000D01*
X6900000Y-4704000D01*
X6379000Y-4704000D01*
X6379000Y-4724000D01*
X6071000Y-4724000D01*
X6071000Y-4704000D01*
X5550000Y-4704000D01*
X5475000Y-4779000D01*
X5473548Y-5025000D01*
X5479340Y-5083810D01*
X5496495Y-5140361D01*
X5515010Y-5175000D01*
X-984104Y-5175000D01*
X-1227922Y-5151094D01*
X-1330909Y-5120000D01*
X-710707Y-5120000D01*
X-593173Y-5108424D01*
X-442372Y-5062679D01*
X-303394Y-4988393D01*
X-181578Y-4888422D01*
X-81607Y-4766606D01*
X-7321Y-4627628D01*
X38424Y-4476827D01*
X53870Y-4320000D01*
X38424Y-4163173D01*
X-7321Y-4012372D01*
X-81607Y-3873394D01*
X-181578Y-3751578D01*
X-303394Y-3651607D01*
X-442372Y-3577321D01*
X-593173Y-3531576D01*
X-710707Y-3520000D01*
X-1389293Y-3520000D01*
X-1506827Y-3531576D01*
X-1657628Y-3577321D01*
X-1796606Y-3651607D01*
X-1918422Y-3751578D01*
X-2018393Y-3873394D01*
X-2092679Y-4012372D01*
X-2138424Y-4163173D01*
X-2146529Y-4245469D01*
X-2149474Y-4235958D01*
X-2175000Y-3993085D01*
X-2175000Y3984104D01*
X-2151094Y4227922D01*
X-2146349Y4243637D01*
X-2138424Y4163173D01*
X-2092679Y4012372D01*
X-2018393Y3873394D01*
X-1918422Y3751578D01*
X-1796606Y3651607D01*
X-1657628Y3577321D01*
X-1506827Y3531576D01*
X-1389293Y3520000D01*
X-710707Y3520000D01*
X-593173Y3531576D01*
X-442372Y3577321D01*
X-303394Y3651607D01*
X-181578Y3751578D01*
X-81607Y3873394D01*
X-7321Y4012372D01*
X38424Y4163173D01*
X53870Y4320000D01*
X38424Y4476827D01*
X-7321Y4627628D01*
X-81607Y4766606D01*
X-181578Y4888422D01*
X-303394Y4988393D01*
X-442372Y5062679D01*
X-593173Y5108424D01*
X-710707Y5120000D01*
X-1331169Y5120000D01*
X-1235953Y5149474D01*
X-993085Y5175000D01*
X13984104Y5175000D01*
X14227922Y5151094D01*
G37*
G04 #@! TD.AperFunction*
D20*
X4199000Y-3096000D02*
X4219000Y-3096000D01*
X4219000Y-3404000D01*
X4199000Y-3404000D01*
X4199000Y-3424000D01*
X3891000Y-3424000D01*
X3891000Y-3404000D01*
X3871000Y-3404000D01*
X3871000Y-3096000D01*
X3891000Y-3096000D01*
X3891000Y-3076000D01*
X4199000Y-3076000D01*
X4199000Y-3096000D01*
G04 #@! TA.AperFunction,Conductor*
D21*
G36*
X4199000Y-3096000D02*
G01*
X4219000Y-3096000D01*
X4219000Y-3404000D01*
X4199000Y-3404000D01*
X4199000Y-3424000D01*
X3891000Y-3424000D01*
X3891000Y-3404000D01*
X3871000Y-3404000D01*
X3871000Y-3096000D01*
X3891000Y-3096000D01*
X3891000Y-3076000D01*
X4199000Y-3076000D01*
X4199000Y-3096000D01*
G37*
G04 #@! TD.AperFunction*
D20*
X15175001Y-3984094D02*
X15151094Y-4227922D01*
X15084900Y-4447166D01*
X14977386Y-4649370D01*
X14832639Y-4826847D01*
X14656176Y-4972830D01*
X14454727Y-5081753D01*
X14235958Y-5149474D01*
X13993085Y-5175000D01*
X7400000Y-5175000D01*
X7400000Y-4601980D01*
X12398040Y-4699981D01*
X12417583Y-4698442D01*
X12436450Y-4693120D01*
X12453916Y-4684220D01*
X12470711Y-4670711D01*
X13441422Y-3700000D01*
X15175001Y-3700000D01*
X15175001Y-3984094D01*
G04 #@! TA.AperFunction,Conductor*
D21*
G36*
X15175001Y-3984094D02*
G01*
X15151094Y-4227922D01*
X15084900Y-4447166D01*
X14977386Y-4649370D01*
X14832639Y-4826847D01*
X14656176Y-4972830D01*
X14454727Y-5081753D01*
X14235958Y-5149474D01*
X13993085Y-5175000D01*
X7400000Y-5175000D01*
X7400000Y-4601980D01*
X12398040Y-4699981D01*
X12417583Y-4698442D01*
X12436450Y-4693120D01*
X12453916Y-4684220D01*
X12470711Y-4670711D01*
X13441422Y-3700000D01*
X15175001Y-3700000D01*
X15175001Y-3984094D01*
G37*
G04 #@! TD.AperFunction*
M02*
