G04 #@! TF.GenerationSoftware,KiCad,Pcbnew,5.1.9+dfsg1-1+deb11u1*
G04 #@! TF.CreationDate,2023-05-18T20:17:31+02:00*
G04 #@! TF.ProjectId,base,62617365-2e6b-4696-9361-645f70636258,rev?*
G04 #@! TF.SameCoordinates,Original*
G04 #@! TF.FileFunction,Legend,Top*
G04 #@! TF.FilePolarity,Positive*
%FSLAX46Y46*%
G04 Gerber Fmt 4.6, Leading zero omitted, Abs format (unit mm)*
G04 Created by KiCad (PCBNEW 5.1.9+dfsg1-1+deb11u1) date 2023-05-18 20:17:31*
%MOMM*%
%LPD*%
G01*
G04 APERTURE LIST*
%ADD10C,0.150000*%
%ADD11C,0.300000*%
%ADD12C,0.120000*%
%ADD13R,1.060000X0.650000*%
%ADD14R,2.500000X1.250000*%
%ADD15O,1.600000X1.000000*%
%ADD16C,0.650000*%
%ADD17O,2.100000X1.000000*%
%ADD18R,1.450000X0.300000*%
%ADD19R,1.450000X0.600000*%
G04 APERTURE END LIST*
D10*
X234523Y-3926190D02*
X841666Y-3926190D01*
X963095Y-3966666D01*
X1044047Y-4047619D01*
X1084523Y-4169047D01*
X1084523Y-4250000D01*
X1084523Y-3116666D02*
X1084523Y-3521428D01*
X234523Y-3521428D01*
X1003571Y-2347619D02*
X1044047Y-2388095D01*
X1084523Y-2509523D01*
X1084523Y-2590476D01*
X1044047Y-2711904D01*
X963095Y-2792857D01*
X882142Y-2833333D01*
X720238Y-2873809D01*
X598809Y-2873809D01*
X436904Y-2833333D01*
X355952Y-2792857D01*
X274999Y-2711904D01*
X234523Y-2590476D01*
X234523Y-2509523D01*
X274999Y-2388095D01*
X315476Y-2347619D01*
X234523Y-1740476D02*
X841666Y-1740476D01*
X963095Y-1780952D01*
X1044047Y-1861904D01*
X1084523Y-1983333D01*
X1084523Y-2064285D01*
X1084523Y-930952D02*
X1084523Y-1335714D01*
X234523Y-1335714D01*
X1003571Y-161904D02*
X1044047Y-202380D01*
X1084523Y-323809D01*
X1084523Y-404761D01*
X1044047Y-526190D01*
X963095Y-607142D01*
X882142Y-647619D01*
X720238Y-688095D01*
X598809Y-688095D01*
X436904Y-647619D01*
X355952Y-607142D01*
X274999Y-526190D01*
X234523Y-404761D01*
X234523Y-323809D01*
X275000Y-202380D01*
X315476Y-161904D01*
X234523Y445238D02*
X841666Y445238D01*
X963095Y404761D01*
X1044047Y323809D01*
X1084523Y202380D01*
X1084523Y121428D01*
X1084523Y1254761D02*
X1084523Y850000D01*
X234523Y850000D01*
X1003571Y2023809D02*
X1044047Y1983333D01*
X1084523Y1861904D01*
X1084523Y1780952D01*
X1044047Y1659523D01*
X963095Y1578571D01*
X882142Y1538095D01*
X720238Y1497619D01*
X598809Y1497619D01*
X436904Y1538095D01*
X355952Y1578571D01*
X275000Y1659523D01*
X234523Y1780952D01*
X234523Y1861904D01*
X275000Y1983333D01*
X315476Y2023809D01*
X234523Y2630952D02*
X841666Y2630952D01*
X963095Y2590476D01*
X1044047Y2509523D01*
X1084523Y2388095D01*
X1084523Y2307142D01*
X1084523Y3440476D02*
X1084523Y3035714D01*
X234523Y3035714D01*
X1003571Y4209523D02*
X1044047Y4169047D01*
X1084523Y4047619D01*
X1084523Y3966666D01*
X1044047Y3845238D01*
X963095Y3764285D01*
X882142Y3723809D01*
X720238Y3683333D01*
X598809Y3683333D01*
X436904Y3723809D01*
X355952Y3764285D01*
X275000Y3845238D01*
X234523Y3966666D01*
X234523Y4047619D01*
X275000Y4169047D01*
X315476Y4209523D01*
D11*
X11452142Y3059999D02*
X11594999Y2988571D01*
X11809285Y2988571D01*
X12023571Y3059999D01*
X12166428Y3202857D01*
X12237856Y3345714D01*
X12309285Y3631428D01*
X12309285Y3845714D01*
X12237856Y4131428D01*
X12166428Y4274285D01*
X12023571Y4417142D01*
X11809285Y4488571D01*
X11666428Y4488571D01*
X11452142Y4417142D01*
X11380713Y4345714D01*
X11380713Y3845714D01*
X11666428Y3845714D01*
X10737856Y4488571D02*
X10737856Y2988571D01*
X9880713Y4488571D01*
X9880713Y2988571D01*
X9166428Y4488571D02*
X9166428Y2988571D01*
X8809285Y2988571D01*
X8594999Y3060000D01*
X8452142Y3202857D01*
X8380713Y3345714D01*
X8309285Y3631428D01*
X8309285Y3845714D01*
X8380713Y4131428D01*
X8452142Y4274285D01*
X8594999Y4417142D01*
X8809285Y4488571D01*
X9166428Y4488571D01*
X11523571Y-4621428D02*
X12237856Y-4621428D01*
X12309285Y-3907142D01*
X12237856Y-3978571D01*
X12094999Y-4050000D01*
X11737856Y-4050000D01*
X11594999Y-3978571D01*
X11523571Y-3907142D01*
X11452142Y-3764285D01*
X11452142Y-3407142D01*
X11523571Y-3264285D01*
X11594999Y-3192857D01*
X11737856Y-3121428D01*
X12094999Y-3121428D01*
X12237856Y-3192857D01*
X12309285Y-3264285D01*
X11023571Y-4621428D02*
X10523571Y-3121428D01*
X10023571Y-4621428D01*
X11402142Y1948571D02*
X11902142Y1234285D01*
X12259285Y1948571D02*
X12259285Y448571D01*
X11687857Y448571D01*
X11545000Y519999D01*
X11473571Y591428D01*
X11402142Y734285D01*
X11402142Y948571D01*
X11473571Y1091428D01*
X11545000Y1162857D01*
X11687857Y1234285D01*
X12259285Y1234285D01*
X10830714Y1877142D02*
X10616428Y1948571D01*
X10259285Y1948571D01*
X10116428Y1877142D01*
X10045000Y1805714D01*
X9973571Y1662857D01*
X9973571Y1519999D01*
X10045000Y1377142D01*
X10116428Y1305714D01*
X10259285Y1234285D01*
X10545000Y1162857D01*
X10687857Y1091428D01*
X10759285Y1019999D01*
X10830714Y877142D01*
X10830714Y734285D01*
X10759285Y591428D01*
X10687857Y519999D01*
X10545000Y448571D01*
X10187857Y448571D01*
X9973571Y519999D01*
X9545000Y448571D02*
X8687857Y448571D01*
X9116428Y1948571D02*
X9116428Y448571D01*
X12237857Y-1377142D02*
X11737857Y-1377142D01*
X11523571Y-591428D02*
X12237857Y-591428D01*
X12237857Y-2091428D01*
X11523571Y-2091428D01*
X10880714Y-591428D02*
X10880714Y-2091428D01*
X10023571Y-591428D01*
X10023571Y-2091428D01*
D12*
X7140580Y-5060000D02*
X6859420Y-5060000D01*
X7140580Y-4040000D02*
X6859420Y-4040000D01*
X7910000Y3059420D02*
X7910000Y3340580D01*
X6890000Y3059420D02*
X6890000Y3340580D01*
%LPC*%
D13*
X6150000Y-1000000D03*
X6150000Y-1950000D03*
X6150000Y-2900000D03*
X8350000Y-2900000D03*
X8350000Y-1000000D03*
D14*
X14000000Y-3810000D03*
X14000000Y-1270000D03*
X14000000Y1270000D03*
X14000000Y3810000D03*
D15*
X-1050000Y-4320000D03*
D16*
X2600000Y-2890000D03*
D15*
X-1050000Y4320000D03*
D16*
X2600000Y2890000D03*
D17*
X3130000Y4320000D03*
X3130000Y-4320000D03*
D18*
X4045000Y250000D03*
X4045000Y-1750000D03*
X4045000Y-1250000D03*
X4045000Y-750000D03*
X4045000Y-250000D03*
X4045000Y750000D03*
X4045000Y1250000D03*
X4045000Y1750000D03*
D19*
X4045000Y-3250000D03*
X4045000Y-2450000D03*
X4045000Y2450000D03*
X4045000Y3250000D03*
X4045000Y3250000D03*
X4045000Y2450000D03*
X4045000Y-2450000D03*
X4045000Y-3250000D03*
G36*
G01*
X5725000Y525000D02*
X5725000Y1075000D01*
G75*
G02*
X5925000Y1275000I200000J0D01*
G01*
X6325000Y1275000D01*
G75*
G02*
X6525000Y1075000I0J-200000D01*
G01*
X6525000Y525000D01*
G75*
G02*
X6325000Y325000I-200000J0D01*
G01*
X5925000Y325000D01*
G75*
G02*
X5725000Y525000I0J200000D01*
G01*
G37*
G36*
G01*
X7375000Y525000D02*
X7375000Y1075000D01*
G75*
G02*
X7575000Y1275000I200000J0D01*
G01*
X7975000Y1275000D01*
G75*
G02*
X8175000Y1075000I0J-200000D01*
G01*
X8175000Y525000D01*
G75*
G02*
X7975000Y325000I-200000J0D01*
G01*
X7575000Y325000D01*
G75*
G02*
X7375000Y525000I0J200000D01*
G01*
G37*
G36*
G01*
X5525000Y2775000D02*
X6075000Y2775000D01*
G75*
G02*
X6275000Y2575000I0J-200000D01*
G01*
X6275000Y2175000D01*
G75*
G02*
X6075000Y1975000I-200000J0D01*
G01*
X5525000Y1975000D01*
G75*
G02*
X5325000Y2175000I0J200000D01*
G01*
X5325000Y2575000D01*
G75*
G02*
X5525000Y2775000I200000J0D01*
G01*
G37*
G36*
G01*
X5525000Y4425000D02*
X6075000Y4425000D01*
G75*
G02*
X6275000Y4225000I0J-200000D01*
G01*
X6275000Y3825000D01*
G75*
G02*
X6075000Y3625000I-200000J0D01*
G01*
X5525000Y3625000D01*
G75*
G02*
X5325000Y3825000I0J200000D01*
G01*
X5325000Y4225000D01*
G75*
G02*
X5525000Y4425000I200000J0D01*
G01*
G37*
G36*
G01*
X8225000Y-4300000D02*
X8225000Y-4800000D01*
G75*
G02*
X8000000Y-5025000I-225000J0D01*
G01*
X7550000Y-5025000D01*
G75*
G02*
X7325000Y-4800000I0J225000D01*
G01*
X7325000Y-4300000D01*
G75*
G02*
X7550000Y-4075000I225000J0D01*
G01*
X8000000Y-4075000D01*
G75*
G02*
X8225000Y-4300000I0J-225000D01*
G01*
G37*
G36*
G01*
X6675000Y-4300000D02*
X6675000Y-4800000D01*
G75*
G02*
X6450000Y-5025000I-225000J0D01*
G01*
X6000000Y-5025000D01*
G75*
G02*
X5775000Y-4800000I0J225000D01*
G01*
X5775000Y-4300000D01*
G75*
G02*
X6000000Y-4075000I225000J0D01*
G01*
X6450000Y-4075000D01*
G75*
G02*
X6675000Y-4300000I0J-225000D01*
G01*
G37*
G36*
G01*
X7650000Y3525000D02*
X7150000Y3525000D01*
G75*
G02*
X6925000Y3750000I0J225000D01*
G01*
X6925000Y4200000D01*
G75*
G02*
X7150000Y4425000I225000J0D01*
G01*
X7650000Y4425000D01*
G75*
G02*
X7875000Y4200000I0J-225000D01*
G01*
X7875000Y3750000D01*
G75*
G02*
X7650000Y3525000I-225000J0D01*
G01*
G37*
G36*
G01*
X7650000Y1975000D02*
X7150000Y1975000D01*
G75*
G02*
X6925000Y2200000I0J225000D01*
G01*
X6925000Y2650000D01*
G75*
G02*
X7150000Y2875000I225000J0D01*
G01*
X7650000Y2875000D01*
G75*
G02*
X7875000Y2650000I0J-225000D01*
G01*
X7875000Y2200000D01*
G75*
G02*
X7650000Y1975000I-225000J0D01*
G01*
G37*
M02*
