G04 #@! TF.GenerationSoftware,KiCad,Pcbnew,5.1.9+dfsg1-1+deb11u1*
G04 #@! TF.CreationDate,2023-05-12T23:20:57+02:00*
G04 #@! TF.ProjectId,base,62617365-2e6b-4696-9361-645f70636258,rev?*
G04 #@! TF.SameCoordinates,Original*
G04 #@! TF.FileFunction,Copper,L2,Bot*
G04 #@! TF.FilePolarity,Positive*
%FSLAX46Y46*%
G04 Gerber Fmt 4.6, Leading zero omitted, Abs format (unit mm)*
G04 Created by KiCad (PCBNEW 5.1.9+dfsg1-1+deb11u1) date 2023-05-12 23:20:57*
%MOMM*%
%LPD*%
G01*
G04 APERTURE LIST*
G04 #@! TA.AperFunction,SMDPad,CuDef*
%ADD10R,2.500000X1.250000*%
G04 #@! TD*
G04 #@! TA.AperFunction,ComponentPad*
%ADD11O,1.600000X1.000000*%
G04 #@! TD*
G04 #@! TA.AperFunction,ComponentPad*
%ADD12O,2.100000X1.000000*%
G04 #@! TD*
G04 #@! TA.AperFunction,SMDPad,CuDef*
%ADD13R,0.650000X0.400000*%
G04 #@! TD*
G04 #@! TA.AperFunction,ViaPad*
%ADD14C,0.500000*%
G04 #@! TD*
G04 #@! TA.AperFunction,ViaPad*
%ADD15C,0.800000*%
G04 #@! TD*
G04 #@! TA.AperFunction,Conductor*
%ADD16C,0.250000*%
G04 #@! TD*
G04 #@! TA.AperFunction,Conductor*
%ADD17C,0.200000*%
G04 #@! TD*
G04 #@! TA.AperFunction,Conductor*
%ADD18C,0.350000*%
G04 #@! TD*
G04 #@! TA.AperFunction,Conductor*
%ADD19C,0.100000*%
G04 #@! TD*
G04 APERTURE END LIST*
G04 #@! TA.AperFunction,SMDPad,CuDef*
G36*
G01*
X7975000Y-3525000D02*
X7425000Y-3525000D01*
G75*
G02*
X7225000Y-3325000I0J200000D01*
G01*
X7225000Y-2925000D01*
G75*
G02*
X7425000Y-2725000I200000J0D01*
G01*
X7975000Y-2725000D01*
G75*
G02*
X8175000Y-2925000I0J-200000D01*
G01*
X8175000Y-3325000D01*
G75*
G02*
X7975000Y-3525000I-200000J0D01*
G01*
G37*
G04 #@! TD.AperFunction*
G04 #@! TA.AperFunction,SMDPad,CuDef*
G36*
G01*
X7975000Y-5175000D02*
X7425000Y-5175000D01*
G75*
G02*
X7225000Y-4975000I0J200000D01*
G01*
X7225000Y-4575000D01*
G75*
G02*
X7425000Y-4375000I200000J0D01*
G01*
X7975000Y-4375000D01*
G75*
G02*
X8175000Y-4575000I0J-200000D01*
G01*
X8175000Y-4975000D01*
G75*
G02*
X7975000Y-5175000I-200000J0D01*
G01*
G37*
G04 #@! TD.AperFunction*
G04 #@! TA.AperFunction,SMDPad,CuDef*
G36*
G01*
X8115000Y280000D02*
X8115000Y-220000D01*
G75*
G02*
X7890000Y-445000I-225000J0D01*
G01*
X7440000Y-445000D01*
G75*
G02*
X7215000Y-220000I0J225000D01*
G01*
X7215000Y280000D01*
G75*
G02*
X7440000Y505000I225000J0D01*
G01*
X7890000Y505000D01*
G75*
G02*
X8115000Y280000I0J-225000D01*
G01*
G37*
G04 #@! TD.AperFunction*
G04 #@! TA.AperFunction,SMDPad,CuDef*
G36*
G01*
X9665000Y280000D02*
X9665000Y-220000D01*
G75*
G02*
X9440000Y-445000I-225000J0D01*
G01*
X8990000Y-445000D01*
G75*
G02*
X8765000Y-220000I0J225000D01*
G01*
X8765000Y280000D01*
G75*
G02*
X8990000Y505000I225000J0D01*
G01*
X9440000Y505000D01*
G75*
G02*
X9665000Y280000I0J-225000D01*
G01*
G37*
G04 #@! TD.AperFunction*
G04 #@! TA.AperFunction,SMDPad,CuDef*
G36*
G01*
X7325000Y3915000D02*
X7875000Y3915000D01*
G75*
G02*
X8075000Y3715000I0J-200000D01*
G01*
X8075000Y3315000D01*
G75*
G02*
X7875000Y3115000I-200000J0D01*
G01*
X7325000Y3115000D01*
G75*
G02*
X7125000Y3315000I0J200000D01*
G01*
X7125000Y3715000D01*
G75*
G02*
X7325000Y3915000I200000J0D01*
G01*
G37*
G04 #@! TD.AperFunction*
G04 #@! TA.AperFunction,SMDPad,CuDef*
G36*
G01*
X7325000Y2265000D02*
X7875000Y2265000D01*
G75*
G02*
X8075000Y2065000I0J-200000D01*
G01*
X8075000Y1665000D01*
G75*
G02*
X7875000Y1465000I-200000J0D01*
G01*
X7325000Y1465000D01*
G75*
G02*
X7125000Y1665000I0J200000D01*
G01*
X7125000Y2065000D01*
G75*
G02*
X7325000Y2265000I200000J0D01*
G01*
G37*
G04 #@! TD.AperFunction*
D10*
X14000000Y-3810000D03*
X14000000Y-1270000D03*
X14000000Y1270000D03*
X14000000Y3810000D03*
D11*
X-1050000Y-4320000D03*
X-1050000Y4320000D03*
D12*
X3130000Y4320000D03*
X3130000Y-4320000D03*
G04 #@! TA.AperFunction,SMDPad,CuDef*
G36*
G01*
X6850000Y4595000D02*
X6850000Y4295000D01*
G75*
G02*
X6700000Y4145000I-150000J0D01*
G01*
X5050000Y4145000D01*
G75*
G02*
X4900000Y4295000I0J150000D01*
G01*
X4900000Y4595000D01*
G75*
G02*
X5050000Y4745000I150000J0D01*
G01*
X6700000Y4745000D01*
G75*
G02*
X6850000Y4595000I0J-150000D01*
G01*
G37*
G04 #@! TD.AperFunction*
G04 #@! TA.AperFunction,SMDPad,CuDef*
G36*
G01*
X6850000Y3325000D02*
X6850000Y3025000D01*
G75*
G02*
X6700000Y2875000I-150000J0D01*
G01*
X5050000Y2875000D01*
G75*
G02*
X4900000Y3025000I0J150000D01*
G01*
X4900000Y3325000D01*
G75*
G02*
X5050000Y3475000I150000J0D01*
G01*
X6700000Y3475000D01*
G75*
G02*
X6850000Y3325000I0J-150000D01*
G01*
G37*
G04 #@! TD.AperFunction*
G04 #@! TA.AperFunction,SMDPad,CuDef*
G36*
G01*
X6850000Y2055000D02*
X6850000Y1755000D01*
G75*
G02*
X6700000Y1605000I-150000J0D01*
G01*
X5050000Y1605000D01*
G75*
G02*
X4900000Y1755000I0J150000D01*
G01*
X4900000Y2055000D01*
G75*
G02*
X5050000Y2205000I150000J0D01*
G01*
X6700000Y2205000D01*
G75*
G02*
X6850000Y2055000I0J-150000D01*
G01*
G37*
G04 #@! TD.AperFunction*
G04 #@! TA.AperFunction,SMDPad,CuDef*
G36*
G01*
X6850000Y785000D02*
X6850000Y485000D01*
G75*
G02*
X6700000Y335000I-150000J0D01*
G01*
X5050000Y335000D01*
G75*
G02*
X4900000Y485000I0J150000D01*
G01*
X4900000Y785000D01*
G75*
G02*
X5050000Y935000I150000J0D01*
G01*
X6700000Y935000D01*
G75*
G02*
X6850000Y785000I0J-150000D01*
G01*
G37*
G04 #@! TD.AperFunction*
G04 #@! TA.AperFunction,SMDPad,CuDef*
G36*
G01*
X6850000Y-485000D02*
X6850000Y-785000D01*
G75*
G02*
X6700000Y-935000I-150000J0D01*
G01*
X5050000Y-935000D01*
G75*
G02*
X4900000Y-785000I0J150000D01*
G01*
X4900000Y-485000D01*
G75*
G02*
X5050000Y-335000I150000J0D01*
G01*
X6700000Y-335000D01*
G75*
G02*
X6850000Y-485000I0J-150000D01*
G01*
G37*
G04 #@! TD.AperFunction*
G04 #@! TA.AperFunction,SMDPad,CuDef*
G36*
G01*
X6775000Y-1755000D02*
X6775000Y-2055000D01*
G75*
G02*
X6625000Y-2205000I-150000J0D01*
G01*
X5025000Y-2205000D01*
G75*
G02*
X4875000Y-2055000I0J150000D01*
G01*
X4875000Y-1755000D01*
G75*
G02*
X5025000Y-1605000I150000J0D01*
G01*
X6625000Y-1605000D01*
G75*
G02*
X6775000Y-1755000I0J-150000D01*
G01*
G37*
G04 #@! TD.AperFunction*
G04 #@! TA.AperFunction,SMDPad,CuDef*
G36*
G01*
X6850000Y-3025000D02*
X6850000Y-3325000D01*
G75*
G02*
X6700000Y-3475000I-150000J0D01*
G01*
X5050000Y-3475000D01*
G75*
G02*
X4900000Y-3325000I0J150000D01*
G01*
X4900000Y-3025000D01*
G75*
G02*
X5050000Y-2875000I150000J0D01*
G01*
X6700000Y-2875000D01*
G75*
G02*
X6850000Y-3025000I0J-150000D01*
G01*
G37*
G04 #@! TD.AperFunction*
G04 #@! TA.AperFunction,SMDPad,CuDef*
G36*
G01*
X6850000Y-4295000D02*
X6850000Y-4595000D01*
G75*
G02*
X6700000Y-4745000I-150000J0D01*
G01*
X5050000Y-4745000D01*
G75*
G02*
X4900000Y-4595000I0J150000D01*
G01*
X4900000Y-4295000D01*
G75*
G02*
X5050000Y-4145000I150000J0D01*
G01*
X6700000Y-4145000D01*
G75*
G02*
X6850000Y-4295000I0J-150000D01*
G01*
G37*
G04 #@! TD.AperFunction*
G04 #@! TA.AperFunction,SMDPad,CuDef*
G36*
G01*
X1875000Y-4295000D02*
X1875000Y-4595000D01*
G75*
G02*
X1725000Y-4745000I-150000J0D01*
G01*
X125000Y-4745000D01*
G75*
G02*
X-25000Y-4595000I0J150000D01*
G01*
X-25000Y-4295000D01*
G75*
G02*
X125000Y-4145000I150000J0D01*
G01*
X1725000Y-4145000D01*
G75*
G02*
X1875000Y-4295000I0J-150000D01*
G01*
G37*
G04 #@! TD.AperFunction*
G04 #@! TA.AperFunction,SMDPad,CuDef*
G36*
G01*
X1900000Y-3025000D02*
X1900000Y-3325000D01*
G75*
G02*
X1750000Y-3475000I-150000J0D01*
G01*
X100000Y-3475000D01*
G75*
G02*
X-50000Y-3325000I0J150000D01*
G01*
X-50000Y-3025000D01*
G75*
G02*
X100000Y-2875000I150000J0D01*
G01*
X1750000Y-2875000D01*
G75*
G02*
X1900000Y-3025000I0J-150000D01*
G01*
G37*
G04 #@! TD.AperFunction*
G04 #@! TA.AperFunction,SMDPad,CuDef*
G36*
G01*
X1900000Y-1755000D02*
X1900000Y-2055000D01*
G75*
G02*
X1750000Y-2205000I-150000J0D01*
G01*
X100000Y-2205000D01*
G75*
G02*
X-50000Y-2055000I0J150000D01*
G01*
X-50000Y-1755000D01*
G75*
G02*
X100000Y-1605000I150000J0D01*
G01*
X1750000Y-1605000D01*
G75*
G02*
X1900000Y-1755000I0J-150000D01*
G01*
G37*
G04 #@! TD.AperFunction*
G04 #@! TA.AperFunction,SMDPad,CuDef*
G36*
G01*
X1900000Y-485000D02*
X1900000Y-785000D01*
G75*
G02*
X1750000Y-935000I-150000J0D01*
G01*
X100000Y-935000D01*
G75*
G02*
X-50000Y-785000I0J150000D01*
G01*
X-50000Y-485000D01*
G75*
G02*
X100000Y-335000I150000J0D01*
G01*
X1750000Y-335000D01*
G75*
G02*
X1900000Y-485000I0J-150000D01*
G01*
G37*
G04 #@! TD.AperFunction*
G04 #@! TA.AperFunction,SMDPad,CuDef*
G36*
G01*
X1900000Y785000D02*
X1900000Y485000D01*
G75*
G02*
X1750000Y335000I-150000J0D01*
G01*
X100000Y335000D01*
G75*
G02*
X-50000Y485000I0J150000D01*
G01*
X-50000Y785000D01*
G75*
G02*
X100000Y935000I150000J0D01*
G01*
X1750000Y935000D01*
G75*
G02*
X1900000Y785000I0J-150000D01*
G01*
G37*
G04 #@! TD.AperFunction*
G04 #@! TA.AperFunction,SMDPad,CuDef*
G36*
G01*
X1900000Y2055000D02*
X1900000Y1755000D01*
G75*
G02*
X1750000Y1605000I-150000J0D01*
G01*
X100000Y1605000D01*
G75*
G02*
X-50000Y1755000I0J150000D01*
G01*
X-50000Y2055000D01*
G75*
G02*
X100000Y2205000I150000J0D01*
G01*
X1750000Y2205000D01*
G75*
G02*
X1900000Y2055000I0J-150000D01*
G01*
G37*
G04 #@! TD.AperFunction*
G04 #@! TA.AperFunction,SMDPad,CuDef*
G36*
G01*
X1875000Y3325000D02*
X1875000Y3025000D01*
G75*
G02*
X1725000Y2875000I-150000J0D01*
G01*
X125000Y2875000D01*
G75*
G02*
X-25000Y3025000I0J150000D01*
G01*
X-25000Y3325000D01*
G75*
G02*
X125000Y3475000I150000J0D01*
G01*
X1725000Y3475000D01*
G75*
G02*
X1875000Y3325000I0J-150000D01*
G01*
G37*
G04 #@! TD.AperFunction*
G04 #@! TA.AperFunction,SMDPad,CuDef*
G36*
G01*
X1875000Y4595000D02*
X1875000Y4295000D01*
G75*
G02*
X1725000Y4145000I-150000J0D01*
G01*
X125000Y4145000D01*
G75*
G02*
X-25000Y4295000I0J150000D01*
G01*
X-25000Y4595000D01*
G75*
G02*
X125000Y4745000I150000J0D01*
G01*
X1725000Y4745000D01*
G75*
G02*
X1875000Y4595000I0J-150000D01*
G01*
G37*
G04 #@! TD.AperFunction*
D13*
X7600000Y-2200000D03*
X7600000Y-900000D03*
X9500000Y-1550000D03*
X7600000Y-1550000D03*
X9500000Y-900000D03*
X9500000Y-2200000D03*
G04 #@! TA.AperFunction,SMDPad,CuDef*
G36*
G01*
X-925000Y-2825000D02*
X-1475000Y-2825000D01*
G75*
G02*
X-1675000Y-2625000I0J200000D01*
G01*
X-1675000Y-2225000D01*
G75*
G02*
X-1475000Y-2025000I200000J0D01*
G01*
X-925000Y-2025000D01*
G75*
G02*
X-725000Y-2225000I0J-200000D01*
G01*
X-725000Y-2625000D01*
G75*
G02*
X-925000Y-2825000I-200000J0D01*
G01*
G37*
G04 #@! TD.AperFunction*
G04 #@! TA.AperFunction,SMDPad,CuDef*
G36*
G01*
X-925000Y-1175000D02*
X-1475000Y-1175000D01*
G75*
G02*
X-1675000Y-975000I0J200000D01*
G01*
X-1675000Y-575000D01*
G75*
G02*
X-1475000Y-375000I200000J0D01*
G01*
X-925000Y-375000D01*
G75*
G02*
X-725000Y-575000I0J-200000D01*
G01*
X-725000Y-975000D01*
G75*
G02*
X-925000Y-1175000I-200000J0D01*
G01*
G37*
G04 #@! TD.AperFunction*
G04 #@! TA.AperFunction,SMDPad,CuDef*
G36*
G01*
X-1450000Y3125000D02*
X-950000Y3125000D01*
G75*
G02*
X-725000Y2900000I0J-225000D01*
G01*
X-725000Y2450000D01*
G75*
G02*
X-950000Y2225000I-225000J0D01*
G01*
X-1450000Y2225000D01*
G75*
G02*
X-1675000Y2450000I0J225000D01*
G01*
X-1675000Y2900000D01*
G75*
G02*
X-1450000Y3125000I225000J0D01*
G01*
G37*
G04 #@! TD.AperFunction*
G04 #@! TA.AperFunction,SMDPad,CuDef*
G36*
G01*
X-1450000Y1575000D02*
X-950000Y1575000D01*
G75*
G02*
X-725000Y1350000I0J-225000D01*
G01*
X-725000Y900000D01*
G75*
G02*
X-950000Y675000I-225000J0D01*
G01*
X-1450000Y675000D01*
G75*
G02*
X-1675000Y900000I0J225000D01*
G01*
X-1675000Y1350000D01*
G75*
G02*
X-1450000Y1575000I225000J0D01*
G01*
G37*
G04 #@! TD.AperFunction*
D14*
X4554225Y3948203D03*
X-550000Y-3350000D03*
X9100000Y-3940000D03*
X12250000Y290000D03*
X11300000Y1250000D03*
X8590000Y3620000D03*
X4500000Y-4900000D03*
X4550000Y-3900000D03*
X-550000Y1900000D03*
X11090000Y-3950000D03*
X10400000Y500000D03*
X11040000Y3370000D03*
X8510000Y2500000D03*
X8600000Y1350000D03*
X8180000Y4980000D03*
X11400000Y-500000D03*
X10400000Y-3080000D03*
X12290000Y2020000D03*
X12030000Y-2270000D03*
D15*
X12050000Y-3799999D03*
D14*
X6600000Y650000D03*
X5150000Y-660000D03*
X2893081Y-457694D03*
X2409444Y-1555543D03*
X9050000Y-200000D03*
X10880269Y-19731D03*
D16*
X5378203Y3948203D02*
X5875000Y4445000D01*
X4554225Y3948203D02*
X5378203Y3948203D01*
X-1100000Y-2800000D02*
X-550000Y-3350000D01*
X-1100000Y-2512500D02*
X-1100000Y-2800000D01*
X7579998Y30000D02*
X7300000Y-249998D01*
X7665000Y30000D02*
X7579998Y30000D01*
D17*
X10430000Y3070000D02*
X12230000Y1270000D01*
X7850000Y3070000D02*
X10430000Y3070000D01*
X7610000Y3335000D02*
X7610000Y3310000D01*
X7610000Y3310000D02*
X7850000Y3070000D01*
X7450000Y3175000D02*
X7610000Y3335000D01*
X12230000Y1270000D02*
X13000000Y1270000D01*
X5875000Y3175000D02*
X7450000Y3175000D01*
X13000000Y-1270000D02*
X9825000Y1905000D01*
X9825000Y1905000D02*
X5875000Y1905000D01*
D16*
X-1100000Y2803260D02*
X-1100000Y2762500D01*
X496740Y4400000D02*
X-1100000Y2803260D01*
X880000Y4400000D02*
X496740Y4400000D01*
X925000Y4445000D02*
X880000Y4400000D01*
X-867510Y2530010D02*
X-1100000Y2762500D01*
D18*
X13000000Y-3810000D02*
X12060001Y-3810000D01*
X12060001Y-3810000D02*
X12050000Y-3799999D01*
X11740684Y-4675000D02*
X11095000Y-4675000D01*
X12050000Y-4365684D02*
X11740684Y-4675000D01*
X12050000Y-3799999D02*
X12050000Y-4365684D01*
X11095000Y-4675000D02*
X7750000Y-4675000D01*
X925000Y4445000D02*
X1270000Y4100000D01*
X1270000Y4100000D02*
X1270000Y3850010D01*
X4318000Y635000D02*
X3683000Y1270000D01*
X5875000Y635000D02*
X4318000Y635000D01*
X5890000Y650000D02*
X5875000Y635000D01*
X6550000Y650000D02*
X5890000Y650000D01*
D16*
X6485000Y635000D02*
X5875000Y635000D01*
D17*
X5435000Y-635000D02*
X5400000Y-600000D01*
X5875000Y-635000D02*
X5435000Y-635000D01*
X4340387Y-1905000D02*
X2893081Y-457694D01*
X5875000Y-1905000D02*
X4340387Y-1905000D01*
X-1100000Y-687500D02*
X-537500Y-1250000D01*
X2103901Y-1250000D02*
X2409444Y-1555543D01*
X-537500Y-1250000D02*
X2103901Y-1250000D01*
X8381397Y-2200000D02*
X7600000Y-2200000D01*
X9031397Y-1550000D02*
X8381397Y-2200000D01*
X9500000Y-1550000D02*
X9031397Y-1550000D01*
X940000Y650000D02*
X925000Y635000D01*
X2300000Y-678615D02*
X2629080Y-1007695D01*
X1266412Y635000D02*
X2300000Y-398588D01*
X2300000Y-398588D02*
X2300000Y-678615D01*
X925000Y635000D02*
X1266412Y635000D01*
X6834990Y-2505010D02*
X7140000Y-2200000D01*
X2629080Y-1007695D02*
X2877384Y-1007695D01*
X4374699Y-2505010D02*
X6834990Y-2505010D01*
X2877384Y-1007695D02*
X4374699Y-2505010D01*
X7140000Y-2200000D02*
X7600000Y-2200000D01*
X925000Y1905000D02*
X1653608Y1905000D01*
X7600000Y-1550000D02*
X8465699Y-1550000D01*
X9115699Y-900000D02*
X9500000Y-900000D01*
X8465699Y-1550000D02*
X9115699Y-900000D01*
X1395000Y1905000D02*
X4604990Y-1304990D01*
X7056412Y-1550000D02*
X7600000Y-1550000D01*
X6811402Y-1304990D02*
X7056412Y-1550000D01*
X4604990Y-1304990D02*
X6811402Y-1304990D01*
X925000Y1905000D02*
X1395000Y1905000D01*
X7665000Y-835000D02*
X7600000Y-900000D01*
X8285000Y-900000D02*
X7600000Y-900000D01*
X9215000Y30000D02*
X8285000Y-900000D01*
X10300000Y-600000D02*
X10880269Y-19731D01*
X10300000Y-1815002D02*
X10300000Y-600000D01*
X9915002Y-2200000D02*
X10300000Y-1815002D01*
X9500000Y-2200000D02*
X9915002Y-2200000D01*
X8575000Y-3125000D02*
X9500000Y-2200000D01*
X7700000Y-3125000D02*
X8575000Y-3125000D01*
X14227922Y5151094D02*
X14447165Y5084900D01*
X14649370Y4977386D01*
X14826847Y4832639D01*
X14906823Y4735964D01*
X14229000Y4735000D01*
X14154000Y4660000D01*
X14154000Y3964000D01*
X14174000Y3964000D01*
X14174000Y3656000D01*
X14154000Y3656000D01*
X14154000Y2960000D01*
X14229000Y2885000D01*
X15175000Y2883655D01*
X15175000Y2196451D01*
X12750000Y2196451D01*
X12691190Y2190659D01*
X12634640Y2173504D01*
X12582523Y2145647D01*
X12536842Y2108158D01*
X12499353Y2062477D01*
X12471496Y2010360D01*
X12454341Y1953810D01*
X12448549Y1895000D01*
X12448549Y1670000D01*
X12395685Y1670000D01*
X10880685Y3185000D01*
X12448548Y3185000D01*
X12454340Y3126190D01*
X12471495Y3069639D01*
X12499352Y3017522D01*
X12536841Y2971841D01*
X12582522Y2934352D01*
X12634639Y2906495D01*
X12691190Y2889340D01*
X12750000Y2883548D01*
X13771000Y2885000D01*
X13846000Y2960000D01*
X13846000Y3656000D01*
X12525000Y3656000D01*
X12450000Y3581000D01*
X12448548Y3185000D01*
X10880685Y3185000D01*
X10726735Y3338950D01*
X10714211Y3354211D01*
X10653303Y3404197D01*
X10583814Y3441340D01*
X10508414Y3464212D01*
X10449647Y3470000D01*
X10449646Y3470000D01*
X10430000Y3471935D01*
X10410354Y3470000D01*
X8376451Y3470000D01*
X8376451Y3715000D01*
X8366816Y3812828D01*
X8338280Y3906897D01*
X8291941Y3993591D01*
X8229579Y4069579D01*
X8153591Y4131941D01*
X8066897Y4178280D01*
X7972828Y4206816D01*
X7875000Y4216451D01*
X7325000Y4216451D01*
X7227172Y4206816D01*
X7150662Y4183607D01*
X7150000Y4216000D01*
X7075000Y4291000D01*
X6029000Y4291000D01*
X6029000Y3920000D01*
X6104000Y3845000D01*
X6842507Y3843563D01*
X6833184Y3812828D01*
X6827567Y3755796D01*
X6788074Y3767776D01*
X6700000Y3776451D01*
X5050000Y3776451D01*
X4961926Y3767776D01*
X4877237Y3742086D01*
X4799187Y3700368D01*
X4730776Y3644224D01*
X4674632Y3575813D01*
X4632914Y3497763D01*
X4607224Y3413074D01*
X4598549Y3325000D01*
X4598549Y3025000D01*
X4607224Y2936926D01*
X4632914Y2852237D01*
X4674632Y2774187D01*
X4730776Y2705776D01*
X4799187Y2649632D01*
X4877237Y2607914D01*
X4961926Y2582224D01*
X5050000Y2573549D01*
X6700000Y2573549D01*
X6788074Y2582224D01*
X6872763Y2607914D01*
X6950813Y2649632D01*
X7019224Y2705776D01*
X7075368Y2774187D01*
X7075803Y2775000D01*
X7430354Y2775000D01*
X7450000Y2773065D01*
X7469646Y2775000D01*
X7469647Y2775000D01*
X7528414Y2780788D01*
X7561625Y2790862D01*
X7565789Y2785789D01*
X7626697Y2735803D01*
X7696186Y2698660D01*
X7771586Y2675788D01*
X7830353Y2670000D01*
X7830363Y2670000D01*
X7849999Y2668066D01*
X7869635Y2670000D01*
X10264315Y2670000D01*
X11933263Y1001052D01*
X11945789Y985789D01*
X12006697Y935803D01*
X12076186Y898660D01*
X12151586Y875788D01*
X12210353Y870000D01*
X12210363Y870000D01*
X12229999Y868066D01*
X12249635Y870000D01*
X12448549Y870000D01*
X12448549Y645000D01*
X12454341Y586190D01*
X12471496Y529640D01*
X12499353Y477523D01*
X12536842Y431842D01*
X12582523Y394353D01*
X12634640Y366496D01*
X12691190Y349341D01*
X12750000Y343549D01*
X15175000Y343549D01*
X15175001Y-343549D01*
X12750000Y-343549D01*
X12691190Y-349341D01*
X12655771Y-360086D01*
X10121737Y2173948D01*
X10109211Y2189211D01*
X10048303Y2239197D01*
X9978814Y2276340D01*
X9903414Y2299212D01*
X9844647Y2305000D01*
X9844646Y2305000D01*
X9825000Y2306935D01*
X9805354Y2305000D01*
X8312568Y2305000D01*
X8291941Y2343591D01*
X8229579Y2419579D01*
X8153591Y2481941D01*
X8066897Y2528280D01*
X7972828Y2556816D01*
X7875000Y2566451D01*
X7325000Y2566451D01*
X7227172Y2556816D01*
X7133103Y2528280D01*
X7046409Y2481941D01*
X6970421Y2419579D01*
X6967820Y2416410D01*
X6950813Y2430368D01*
X6872763Y2472086D01*
X6788074Y2497776D01*
X6700000Y2506451D01*
X5050000Y2506451D01*
X4961926Y2497776D01*
X4877237Y2472086D01*
X4799187Y2430368D01*
X4730776Y2374224D01*
X4674632Y2305813D01*
X4632914Y2227763D01*
X4607224Y2143074D01*
X4598549Y2055000D01*
X4598549Y1755000D01*
X4607224Y1666926D01*
X4632914Y1582237D01*
X4674632Y1504187D01*
X4730776Y1435776D01*
X4799187Y1379632D01*
X4877237Y1337914D01*
X4961926Y1312224D01*
X5050000Y1303549D01*
X6700000Y1303549D01*
X6788074Y1312224D01*
X6872763Y1337914D01*
X6924961Y1365814D01*
X6970421Y1310421D01*
X7046409Y1248059D01*
X7133103Y1201720D01*
X7227172Y1173184D01*
X7325000Y1163549D01*
X7875000Y1163549D01*
X7972828Y1173184D01*
X8066897Y1201720D01*
X8153591Y1248059D01*
X8229579Y1310421D01*
X8291941Y1386409D01*
X8338280Y1473103D01*
X8347956Y1505000D01*
X9659315Y1505000D01*
X10674120Y490195D01*
X10619746Y467672D01*
X10529665Y407482D01*
X10453056Y330873D01*
X10392866Y240792D01*
X10351405Y140698D01*
X10330269Y34439D01*
X10330269Y-4045D01*
X10031047Y-303268D01*
X10015790Y-315789D01*
X10003268Y-331047D01*
X10003265Y-331050D01*
X9965803Y-376698D01*
X9941525Y-422119D01*
X9940360Y-421496D01*
X9927546Y-417609D01*
X9956335Y-322705D01*
X9966451Y-220000D01*
X9966451Y280000D01*
X9956335Y382705D01*
X9926377Y481464D01*
X9877728Y572481D01*
X9812257Y652257D01*
X9732481Y717728D01*
X9641464Y766377D01*
X9542705Y796335D01*
X9440000Y806451D01*
X8990000Y806451D01*
X8887295Y796335D01*
X8788536Y766377D01*
X8697519Y717728D01*
X8617743Y652257D01*
X8552272Y572481D01*
X8503623Y481464D01*
X8473665Y382705D01*
X8463549Y280000D01*
X8463549Y-155766D01*
X8415031Y-204284D01*
X8415000Y-199000D01*
X8340000Y-124000D01*
X7819000Y-124000D01*
X7819000Y-144000D01*
X7511000Y-144000D01*
X7511000Y-124000D01*
X6990000Y-124000D01*
X6980228Y-133772D01*
X6950813Y-109632D01*
X6872763Y-67914D01*
X6788074Y-42224D01*
X6700000Y-33549D01*
X5050000Y-33549D01*
X4961926Y-42224D01*
X4877237Y-67914D01*
X4799187Y-109632D01*
X4730776Y-165776D01*
X4674632Y-234187D01*
X4632914Y-312237D01*
X4607224Y-396926D01*
X4598549Y-485000D01*
X4598549Y-732864D01*
X2193312Y1672373D01*
X2201451Y1755000D01*
X2201451Y2055000D01*
X2192776Y2143074D01*
X2167086Y2227763D01*
X2125368Y2305813D01*
X2069224Y2374224D01*
X2000813Y2430368D01*
X1922763Y2472086D01*
X1838074Y2497776D01*
X1750000Y2506451D01*
X100000Y2506451D01*
X11926Y2497776D01*
X-72763Y2472086D01*
X-150813Y2430368D01*
X-219224Y2374224D01*
X-275368Y2305813D01*
X-317086Y2227763D01*
X-342776Y2143074D01*
X-351451Y2055000D01*
X-351451Y1755000D01*
X-342776Y1666926D01*
X-317086Y1582237D01*
X-275368Y1504187D01*
X-219224Y1435776D01*
X-150813Y1379632D01*
X-72763Y1337914D01*
X11926Y1312224D01*
X100000Y1303549D01*
X1430766Y1303549D01*
X1497864Y1236451D01*
X100000Y1236451D01*
X11926Y1227776D01*
X-72763Y1202086D01*
X-150813Y1160368D01*
X-219224Y1104224D01*
X-275368Y1035813D01*
X-317086Y957763D01*
X-342776Y873074D01*
X-351451Y785000D01*
X-351451Y485000D01*
X-342776Y396926D01*
X-317086Y312237D01*
X-275368Y234187D01*
X-219224Y165776D01*
X-150813Y109632D01*
X-72763Y67914D01*
X11926Y42224D01*
X100000Y33549D01*
X1302178Y33549D01*
X1369276Y-33549D01*
X100000Y-33549D01*
X11926Y-42224D01*
X-72763Y-67914D01*
X-150813Y-109632D01*
X-219224Y-165776D01*
X-275368Y-234187D01*
X-317086Y-312237D01*
X-342776Y-396926D01*
X-351451Y-485000D01*
X-351451Y-785000D01*
X-345049Y-850000D01*
X-371814Y-850000D01*
X-423549Y-798265D01*
X-423549Y-575000D01*
X-433184Y-477172D01*
X-461720Y-383103D01*
X-508059Y-296409D01*
X-570421Y-220421D01*
X-646409Y-158059D01*
X-733103Y-111720D01*
X-827172Y-83184D01*
X-925000Y-73549D01*
X-1475000Y-73549D01*
X-1572828Y-83184D01*
X-1666897Y-111720D01*
X-1753591Y-158059D01*
X-1829579Y-220421D01*
X-1891941Y-296409D01*
X-1938280Y-383103D01*
X-1966816Y-477172D01*
X-1976451Y-575000D01*
X-1976451Y-975000D01*
X-1966816Y-1072828D01*
X-1938280Y-1166897D01*
X-1891941Y-1253591D01*
X-1829579Y-1329579D01*
X-1753591Y-1391941D01*
X-1666897Y-1438280D01*
X-1572828Y-1466816D01*
X-1475000Y-1476451D01*
X-925000Y-1476451D01*
X-881062Y-1472124D01*
X-834233Y-1518953D01*
X-821711Y-1534211D01*
X-806453Y-1546733D01*
X-806451Y-1546735D01*
X-802472Y-1550000D01*
X-760803Y-1584197D01*
X-691314Y-1621340D01*
X-615914Y-1644212D01*
X-557147Y-1650000D01*
X-557137Y-1650000D01*
X-537501Y-1651934D01*
X-517865Y-1650000D01*
X-337642Y-1650000D01*
X-342776Y-1666926D01*
X-351451Y-1755000D01*
X-351451Y-2055000D01*
X-342776Y-2143074D01*
X-317086Y-2227763D01*
X-275368Y-2305813D01*
X-219224Y-2374224D01*
X-150813Y-2430368D01*
X-72763Y-2472086D01*
X11926Y-2497776D01*
X100000Y-2506451D01*
X1750000Y-2506451D01*
X1838074Y-2497776D01*
X1922763Y-2472086D01*
X2000813Y-2430368D01*
X2069224Y-2374224D01*
X2125368Y-2305813D01*
X2167086Y-2227763D01*
X2192776Y-2143074D01*
X2200533Y-2064325D01*
X2249015Y-2084407D01*
X2355274Y-2105543D01*
X2463614Y-2105543D01*
X2569873Y-2084407D01*
X2669967Y-2042946D01*
X2760048Y-1982756D01*
X2836657Y-1906147D01*
X2896847Y-1816066D01*
X2938308Y-1715972D01*
X2951857Y-1647854D01*
X4077966Y-2773963D01*
X4090488Y-2789221D01*
X4105746Y-2801743D01*
X4105748Y-2801745D01*
X4134085Y-2825000D01*
X4151396Y-2839207D01*
X4220885Y-2876350D01*
X4296285Y-2899222D01*
X4355052Y-2905010D01*
X4355062Y-2905010D01*
X4374698Y-2906944D01*
X4394334Y-2905010D01*
X4616906Y-2905010D01*
X4607224Y-2936926D01*
X4598549Y-3025000D01*
X4598549Y-3325000D01*
X4607224Y-3413074D01*
X4632914Y-3497763D01*
X4674632Y-3575813D01*
X4730776Y-3644224D01*
X4799187Y-3700368D01*
X4877237Y-3742086D01*
X4961926Y-3767776D01*
X5050000Y-3776451D01*
X6700000Y-3776451D01*
X6788074Y-3767776D01*
X6872763Y-3742086D01*
X6950813Y-3700368D01*
X7019224Y-3644224D01*
X7030315Y-3630710D01*
X7070421Y-3679579D01*
X7146409Y-3741941D01*
X7233103Y-3788280D01*
X7327172Y-3816816D01*
X7425000Y-3826451D01*
X7975000Y-3826451D01*
X8072828Y-3816816D01*
X8166897Y-3788280D01*
X8253591Y-3741941D01*
X8329579Y-3679579D01*
X8391941Y-3603591D01*
X8433949Y-3525000D01*
X8555354Y-3525000D01*
X8575000Y-3526935D01*
X8594646Y-3525000D01*
X8594647Y-3525000D01*
X8653414Y-3519212D01*
X8728814Y-3496340D01*
X8798303Y-3459197D01*
X8859211Y-3409211D01*
X8871737Y-3393948D01*
X9564234Y-2701451D01*
X9825000Y-2701451D01*
X9883810Y-2695659D01*
X9940360Y-2678504D01*
X9992477Y-2650647D01*
X10038158Y-2613158D01*
X10075337Y-2567854D01*
X10138305Y-2534197D01*
X10199213Y-2484211D01*
X10211739Y-2468948D01*
X10568949Y-2111738D01*
X10584211Y-2099213D01*
X10634197Y-2038305D01*
X10671340Y-1968816D01*
X10694212Y-1893416D01*
X10700000Y-1834649D01*
X10700000Y-1834639D01*
X10701934Y-1815003D01*
X10700000Y-1795367D01*
X10700000Y-765685D01*
X10895955Y-569731D01*
X10934439Y-569731D01*
X11040698Y-548595D01*
X11140792Y-507134D01*
X11230873Y-446944D01*
X11307482Y-370335D01*
X11367672Y-280254D01*
X11390195Y-225880D01*
X12448549Y-1284235D01*
X12448549Y-1895000D01*
X12454341Y-1953810D01*
X12471496Y-2010360D01*
X12499353Y-2062477D01*
X12536842Y-2108158D01*
X12582523Y-2145647D01*
X12634640Y-2173504D01*
X12691190Y-2190659D01*
X12750000Y-2196451D01*
X15175001Y-2196451D01*
X15175001Y-2883549D01*
X12750000Y-2883549D01*
X12691190Y-2889341D01*
X12634640Y-2906496D01*
X12582523Y-2934353D01*
X12536842Y-2971842D01*
X12499353Y-3017523D01*
X12471496Y-3069640D01*
X12454341Y-3126190D01*
X12448549Y-3185000D01*
X12448549Y-3224418D01*
X12381574Y-3179667D01*
X12254182Y-3126900D01*
X12118944Y-3099999D01*
X11981056Y-3099999D01*
X11845818Y-3126900D01*
X11718426Y-3179667D01*
X11603776Y-3256273D01*
X11506274Y-3353775D01*
X11429668Y-3468425D01*
X11376901Y-3595817D01*
X11350000Y-3731055D01*
X11350000Y-3868943D01*
X11376901Y-4004181D01*
X11429668Y-4131573D01*
X11475389Y-4200000D01*
X8304696Y-4200000D01*
X8253591Y-4158059D01*
X8166897Y-4111720D01*
X8072828Y-4083184D01*
X7975000Y-4073549D01*
X7425000Y-4073549D01*
X7327172Y-4083184D01*
X7233103Y-4111720D01*
X7146409Y-4158059D01*
X7131631Y-4170187D01*
X7117086Y-4122237D01*
X7075368Y-4044187D01*
X7019224Y-3975776D01*
X6950813Y-3919632D01*
X6872763Y-3877914D01*
X6788074Y-3852224D01*
X6700000Y-3843549D01*
X5050000Y-3843549D01*
X4961926Y-3852224D01*
X4877237Y-3877914D01*
X4799187Y-3919632D01*
X4730776Y-3975776D01*
X4674632Y-4044187D01*
X4632914Y-4122237D01*
X4607224Y-4206926D01*
X4598549Y-4295000D01*
X4598549Y-4595000D01*
X4607224Y-4683074D01*
X4632914Y-4767763D01*
X4674632Y-4845813D01*
X4730776Y-4914224D01*
X4799187Y-4970368D01*
X4877237Y-5012086D01*
X4961926Y-5037776D01*
X5050000Y-5046451D01*
X6700000Y-5046451D01*
X6788074Y-5037776D01*
X6872763Y-5012086D01*
X6924479Y-4984444D01*
X6933184Y-5072828D01*
X6961720Y-5166897D01*
X6966051Y-5175000D01*
X-984104Y-5175000D01*
X-1227922Y-5151094D01*
X-1330909Y-5120000D01*
X-710707Y-5120000D01*
X-593173Y-5108424D01*
X-442372Y-5062679D01*
X-303394Y-4988393D01*
X-201788Y-4905008D01*
X-194224Y-4914224D01*
X-125813Y-4970368D01*
X-47763Y-5012086D01*
X36926Y-5037776D01*
X125000Y-5046451D01*
X1725000Y-5046451D01*
X1813074Y-5037776D01*
X1897763Y-5012086D01*
X1975813Y-4970368D01*
X2043621Y-4914719D01*
X2133394Y-4988393D01*
X2272372Y-5062679D01*
X2423173Y-5108424D01*
X2540707Y-5120000D01*
X3719293Y-5120000D01*
X3836827Y-5108424D01*
X3987628Y-5062679D01*
X4126606Y-4988393D01*
X4248422Y-4888422D01*
X4348393Y-4766606D01*
X4422679Y-4627628D01*
X4468424Y-4476827D01*
X4483870Y-4320000D01*
X4468424Y-4163173D01*
X4422679Y-4012372D01*
X4348393Y-3873394D01*
X4248422Y-3751578D01*
X4126606Y-3651607D01*
X3987628Y-3577321D01*
X3836827Y-3531576D01*
X3719293Y-3520000D01*
X2540707Y-3520000D01*
X2423173Y-3531576D01*
X2272372Y-3577321D01*
X2133394Y-3651607D01*
X2011578Y-3751578D01*
X1911607Y-3873394D01*
X1906652Y-3882665D01*
X1897763Y-3877914D01*
X1813074Y-3852224D01*
X1725000Y-3843549D01*
X125000Y-3843549D01*
X36926Y-3852224D01*
X-47763Y-3877914D01*
X-72207Y-3890980D01*
X-81607Y-3873394D01*
X-181578Y-3751578D01*
X-303394Y-3651607D01*
X-442372Y-3577321D01*
X-593173Y-3531576D01*
X-710707Y-3520000D01*
X-1389293Y-3520000D01*
X-1506827Y-3531576D01*
X-1657628Y-3577321D01*
X-1796606Y-3651607D01*
X-1918422Y-3751578D01*
X-2018393Y-3873394D01*
X-2092679Y-4012372D01*
X-2138424Y-4163173D01*
X-2146529Y-4245469D01*
X-2149474Y-4235958D01*
X-2175000Y-3993085D01*
X-2175000Y-2825000D01*
X-1976452Y-2825000D01*
X-1970660Y-2883810D01*
X-1953505Y-2940361D01*
X-1925648Y-2992478D01*
X-1888159Y-3038159D01*
X-1842478Y-3075648D01*
X-1790361Y-3103505D01*
X-1733810Y-3120660D01*
X-1675000Y-3126452D01*
X-1429000Y-3125000D01*
X-1354000Y-3050000D01*
X-1354000Y-2579000D01*
X-1046000Y-2579000D01*
X-1046000Y-3050000D01*
X-971000Y-3125000D01*
X-725000Y-3126452D01*
X-666190Y-3120660D01*
X-609639Y-3103505D01*
X-557522Y-3075648D01*
X-511841Y-3038159D01*
X-501042Y-3025000D01*
X-351451Y-3025000D01*
X-351451Y-3325000D01*
X-342776Y-3413074D01*
X-317086Y-3497763D01*
X-275368Y-3575813D01*
X-219224Y-3644224D01*
X-150813Y-3700368D01*
X-72763Y-3742086D01*
X11926Y-3767776D01*
X100000Y-3776451D01*
X1750000Y-3776451D01*
X1838074Y-3767776D01*
X1922763Y-3742086D01*
X2000813Y-3700368D01*
X2069224Y-3644224D01*
X2125368Y-3575813D01*
X2167086Y-3497763D01*
X2192776Y-3413074D01*
X2196938Y-3370821D01*
X2201586Y-3375469D01*
X2303952Y-3443868D01*
X2417694Y-3490981D01*
X2538443Y-3515000D01*
X2661557Y-3515000D01*
X2782306Y-3490981D01*
X2896048Y-3443868D01*
X2998414Y-3375469D01*
X3085469Y-3288414D01*
X3153868Y-3186048D01*
X3200981Y-3072306D01*
X3225000Y-2951557D01*
X3225000Y-2828443D01*
X3200981Y-2707694D01*
X3153868Y-2593952D01*
X3085469Y-2491586D01*
X2998414Y-2404531D01*
X2896048Y-2336132D01*
X2782306Y-2289019D01*
X2661557Y-2265000D01*
X2538443Y-2265000D01*
X2417694Y-2289019D01*
X2303952Y-2336132D01*
X2201586Y-2404531D01*
X2114531Y-2491586D01*
X2046132Y-2593952D01*
X2017423Y-2663263D01*
X2000813Y-2649632D01*
X1922763Y-2607914D01*
X1838074Y-2582224D01*
X1750000Y-2573549D01*
X100000Y-2573549D01*
X11926Y-2582224D01*
X-72763Y-2607914D01*
X-150813Y-2649632D01*
X-219224Y-2705776D01*
X-275368Y-2774187D01*
X-317086Y-2852237D01*
X-342776Y-2936926D01*
X-351451Y-3025000D01*
X-501042Y-3025000D01*
X-474352Y-2992478D01*
X-446495Y-2940361D01*
X-429340Y-2883810D01*
X-423548Y-2825000D01*
X-425000Y-2654000D01*
X-500000Y-2579000D01*
X-1046000Y-2579000D01*
X-1354000Y-2579000D01*
X-1900000Y-2579000D01*
X-1975000Y-2654000D01*
X-1976452Y-2825000D01*
X-2175000Y-2825000D01*
X-2175000Y-2025000D01*
X-1976452Y-2025000D01*
X-1975000Y-2196000D01*
X-1900000Y-2271000D01*
X-1354000Y-2271000D01*
X-1354000Y-1800000D01*
X-1046000Y-1800000D01*
X-1046000Y-2271000D01*
X-500000Y-2271000D01*
X-425000Y-2196000D01*
X-423548Y-2025000D01*
X-429340Y-1966190D01*
X-446495Y-1909639D01*
X-474352Y-1857522D01*
X-511841Y-1811841D01*
X-557522Y-1774352D01*
X-609639Y-1746495D01*
X-666190Y-1729340D01*
X-725000Y-1723548D01*
X-971000Y-1725000D01*
X-1046000Y-1800000D01*
X-1354000Y-1800000D01*
X-1429000Y-1725000D01*
X-1675000Y-1723548D01*
X-1733810Y-1729340D01*
X-1790361Y-1746495D01*
X-1842478Y-1774352D01*
X-1888159Y-1811841D01*
X-1925648Y-1857522D01*
X-1953505Y-1909639D01*
X-1970660Y-1966190D01*
X-1976452Y-2025000D01*
X-2175000Y-2025000D01*
X-2175000Y675000D01*
X-1976452Y675000D01*
X-1970660Y616190D01*
X-1953505Y559639D01*
X-1925648Y507522D01*
X-1888159Y461841D01*
X-1842478Y424352D01*
X-1790361Y396495D01*
X-1733810Y379340D01*
X-1675000Y373548D01*
X-1429000Y375000D01*
X-1354000Y450000D01*
X-1354000Y971000D01*
X-1046000Y971000D01*
X-1046000Y450000D01*
X-971000Y375000D01*
X-725000Y373548D01*
X-666190Y379340D01*
X-609639Y396495D01*
X-557522Y424352D01*
X-511841Y461841D01*
X-474352Y507522D01*
X-446495Y559639D01*
X-429340Y616190D01*
X-423548Y675000D01*
X-425000Y896000D01*
X-500000Y971000D01*
X-1046000Y971000D01*
X-1354000Y971000D01*
X-1900000Y971000D01*
X-1975000Y896000D01*
X-1976452Y675000D01*
X-2175000Y675000D01*
X-2175000Y1575000D01*
X-1976452Y1575000D01*
X-1975000Y1354000D01*
X-1900000Y1279000D01*
X-1354000Y1279000D01*
X-1354000Y1800000D01*
X-1046000Y1800000D01*
X-1046000Y1279000D01*
X-500000Y1279000D01*
X-425000Y1354000D01*
X-423548Y1575000D01*
X-429340Y1633810D01*
X-446495Y1690361D01*
X-474352Y1742478D01*
X-511841Y1788159D01*
X-557522Y1825648D01*
X-609639Y1853505D01*
X-666190Y1870660D01*
X-725000Y1876452D01*
X-971000Y1875000D01*
X-1046000Y1800000D01*
X-1354000Y1800000D01*
X-1429000Y1875000D01*
X-1675000Y1876452D01*
X-1733810Y1870660D01*
X-1790361Y1853505D01*
X-1842478Y1825648D01*
X-1888159Y1788159D01*
X-1925648Y1742478D01*
X-1953505Y1690361D01*
X-1970660Y1633810D01*
X-1976452Y1575000D01*
X-2175000Y1575000D01*
X-2175000Y3984104D01*
X-2151094Y4227922D01*
X-2146349Y4243637D01*
X-2138424Y4163173D01*
X-2092679Y4012372D01*
X-2018393Y3873394D01*
X-1918422Y3751578D01*
X-1796606Y3651607D01*
X-1657628Y3577321D01*
X-1506827Y3531576D01*
X-1389293Y3520000D01*
X-984300Y3520000D01*
X-1077849Y3426451D01*
X-1450000Y3426451D01*
X-1552705Y3416335D01*
X-1651464Y3386377D01*
X-1742481Y3337728D01*
X-1822257Y3272257D01*
X-1887728Y3192481D01*
X-1936377Y3101464D01*
X-1966335Y3002705D01*
X-1976451Y2900000D01*
X-1976451Y2450000D01*
X-1966335Y2347295D01*
X-1936377Y2248536D01*
X-1887728Y2157519D01*
X-1822257Y2077743D01*
X-1742481Y2012272D01*
X-1651464Y1963623D01*
X-1552705Y1933665D01*
X-1450000Y1923549D01*
X-950000Y1923549D01*
X-847295Y1933665D01*
X-748536Y1963623D01*
X-657519Y2012272D01*
X-577743Y2077743D01*
X-512272Y2157519D01*
X-463623Y2248536D01*
X-433665Y2347295D01*
X-423549Y2450000D01*
X-423549Y2878671D01*
X-322037Y2980183D01*
X-317776Y2936926D01*
X-292086Y2852237D01*
X-250368Y2774187D01*
X-194224Y2705776D01*
X-125813Y2649632D01*
X-47763Y2607914D01*
X36926Y2582224D01*
X125000Y2573549D01*
X1725000Y2573549D01*
X1813074Y2582224D01*
X1897763Y2607914D01*
X1975813Y2649632D01*
X2011080Y2678575D01*
X2046132Y2593952D01*
X2114531Y2491586D01*
X2201586Y2404531D01*
X2300000Y2338773D01*
X2300000Y2108000D01*
X2305764Y2049473D01*
X2322836Y1993195D01*
X2350559Y1941329D01*
X2387868Y1895868D01*
X3319249Y964487D01*
X3330627Y950623D01*
X3965625Y315623D01*
X3980499Y297499D01*
X3998621Y282627D01*
X3998622Y282626D01*
X4052827Y238141D01*
X4135346Y194034D01*
X4224884Y166873D01*
X4318000Y157702D01*
X4341332Y160000D01*
X4737814Y160000D01*
X4799187Y109632D01*
X4877237Y67914D01*
X4961926Y42224D01*
X5050000Y33549D01*
X6700000Y33549D01*
X6788074Y42224D01*
X6872763Y67914D01*
X6950813Y109632D01*
X7019224Y165776D01*
X7034180Y184000D01*
X7511000Y184000D01*
X7511000Y730000D01*
X7819000Y730000D01*
X7819000Y184000D01*
X8340000Y184000D01*
X8415000Y259000D01*
X8416452Y505000D01*
X8410660Y563810D01*
X8393505Y620361D01*
X8365648Y672478D01*
X8328159Y718159D01*
X8282478Y755648D01*
X8230361Y783505D01*
X8173810Y800660D01*
X8115000Y806452D01*
X7894000Y805000D01*
X7819000Y730000D01*
X7511000Y730000D01*
X7436000Y805000D01*
X7215000Y806452D01*
X7156190Y800660D01*
X7150091Y798810D01*
X7142776Y873074D01*
X7117086Y957763D01*
X7075368Y1035813D01*
X7019224Y1104224D01*
X6950813Y1160368D01*
X6872763Y1202086D01*
X6788074Y1227776D01*
X6700000Y1236451D01*
X5050000Y1236451D01*
X4961926Y1227776D01*
X4877237Y1202086D01*
X4799187Y1160368D01*
X4737814Y1110000D01*
X4514752Y1110000D01*
X4364000Y1260751D01*
X4364000Y3902592D01*
X4422679Y4012372D01*
X4462911Y4145000D01*
X4598548Y4145000D01*
X4604340Y4086190D01*
X4621495Y4029639D01*
X4649352Y3977522D01*
X4686841Y3931841D01*
X4732522Y3894352D01*
X4784639Y3866495D01*
X4841190Y3849340D01*
X4900000Y3843548D01*
X5646000Y3845000D01*
X5721000Y3920000D01*
X5721000Y4291000D01*
X4675000Y4291000D01*
X4600000Y4216000D01*
X4598548Y4145000D01*
X4462911Y4145000D01*
X4468424Y4163173D01*
X4483870Y4320000D01*
X4472544Y4435000D01*
X12448548Y4435000D01*
X12450000Y4039000D01*
X12525000Y3964000D01*
X13846000Y3964000D01*
X13846000Y4660000D01*
X13771000Y4735000D01*
X12750000Y4736452D01*
X12691190Y4730660D01*
X12634639Y4713505D01*
X12582522Y4685648D01*
X12536841Y4648159D01*
X12499352Y4602478D01*
X12471495Y4550361D01*
X12454340Y4493810D01*
X12448548Y4435000D01*
X4472544Y4435000D01*
X4468424Y4476827D01*
X4422679Y4627628D01*
X4359942Y4745000D01*
X4598548Y4745000D01*
X4600000Y4674000D01*
X4675000Y4599000D01*
X5721000Y4599000D01*
X5721000Y4970000D01*
X6029000Y4970000D01*
X6029000Y4599000D01*
X7075000Y4599000D01*
X7150000Y4674000D01*
X7151452Y4745000D01*
X7145660Y4803810D01*
X7128505Y4860361D01*
X7100648Y4912478D01*
X7063159Y4958159D01*
X7017478Y4995648D01*
X6965361Y5023505D01*
X6908810Y5040660D01*
X6850000Y5046452D01*
X6104000Y5045000D01*
X6029000Y4970000D01*
X5721000Y4970000D01*
X5646000Y5045000D01*
X4900000Y5046452D01*
X4841190Y5040660D01*
X4784639Y5023505D01*
X4732522Y4995648D01*
X4686841Y4958159D01*
X4649352Y4912478D01*
X4621495Y4860361D01*
X4604340Y4803810D01*
X4598548Y4745000D01*
X4359942Y4745000D01*
X4348393Y4766606D01*
X4248422Y4888422D01*
X4126606Y4988393D01*
X3987628Y5062679D01*
X3836827Y5108424D01*
X3719293Y5120000D01*
X2540707Y5120000D01*
X2423173Y5108424D01*
X2272372Y5062679D01*
X2133394Y4988393D01*
X2043621Y4914719D01*
X1975813Y4970368D01*
X1897763Y5012086D01*
X1813074Y5037776D01*
X1725000Y5046451D01*
X125000Y5046451D01*
X36926Y5037776D01*
X-47763Y5012086D01*
X-125813Y4970368D01*
X-194224Y4914224D01*
X-201788Y4905008D01*
X-303394Y4988393D01*
X-442372Y5062679D01*
X-593173Y5108424D01*
X-710707Y5120000D01*
X-1331169Y5120000D01*
X-1235953Y5149474D01*
X-993085Y5175000D01*
X13984104Y5175000D01*
X14227922Y5151094D01*
G04 #@! TA.AperFunction,Conductor*
D19*
G36*
X14227922Y5151094D02*
G01*
X14447165Y5084900D01*
X14649370Y4977386D01*
X14826847Y4832639D01*
X14906823Y4735964D01*
X14229000Y4735000D01*
X14154000Y4660000D01*
X14154000Y3964000D01*
X14174000Y3964000D01*
X14174000Y3656000D01*
X14154000Y3656000D01*
X14154000Y2960000D01*
X14229000Y2885000D01*
X15175000Y2883655D01*
X15175000Y2196451D01*
X12750000Y2196451D01*
X12691190Y2190659D01*
X12634640Y2173504D01*
X12582523Y2145647D01*
X12536842Y2108158D01*
X12499353Y2062477D01*
X12471496Y2010360D01*
X12454341Y1953810D01*
X12448549Y1895000D01*
X12448549Y1670000D01*
X12395685Y1670000D01*
X10880685Y3185000D01*
X12448548Y3185000D01*
X12454340Y3126190D01*
X12471495Y3069639D01*
X12499352Y3017522D01*
X12536841Y2971841D01*
X12582522Y2934352D01*
X12634639Y2906495D01*
X12691190Y2889340D01*
X12750000Y2883548D01*
X13771000Y2885000D01*
X13846000Y2960000D01*
X13846000Y3656000D01*
X12525000Y3656000D01*
X12450000Y3581000D01*
X12448548Y3185000D01*
X10880685Y3185000D01*
X10726735Y3338950D01*
X10714211Y3354211D01*
X10653303Y3404197D01*
X10583814Y3441340D01*
X10508414Y3464212D01*
X10449647Y3470000D01*
X10449646Y3470000D01*
X10430000Y3471935D01*
X10410354Y3470000D01*
X8376451Y3470000D01*
X8376451Y3715000D01*
X8366816Y3812828D01*
X8338280Y3906897D01*
X8291941Y3993591D01*
X8229579Y4069579D01*
X8153591Y4131941D01*
X8066897Y4178280D01*
X7972828Y4206816D01*
X7875000Y4216451D01*
X7325000Y4216451D01*
X7227172Y4206816D01*
X7150662Y4183607D01*
X7150000Y4216000D01*
X7075000Y4291000D01*
X6029000Y4291000D01*
X6029000Y3920000D01*
X6104000Y3845000D01*
X6842507Y3843563D01*
X6833184Y3812828D01*
X6827567Y3755796D01*
X6788074Y3767776D01*
X6700000Y3776451D01*
X5050000Y3776451D01*
X4961926Y3767776D01*
X4877237Y3742086D01*
X4799187Y3700368D01*
X4730776Y3644224D01*
X4674632Y3575813D01*
X4632914Y3497763D01*
X4607224Y3413074D01*
X4598549Y3325000D01*
X4598549Y3025000D01*
X4607224Y2936926D01*
X4632914Y2852237D01*
X4674632Y2774187D01*
X4730776Y2705776D01*
X4799187Y2649632D01*
X4877237Y2607914D01*
X4961926Y2582224D01*
X5050000Y2573549D01*
X6700000Y2573549D01*
X6788074Y2582224D01*
X6872763Y2607914D01*
X6950813Y2649632D01*
X7019224Y2705776D01*
X7075368Y2774187D01*
X7075803Y2775000D01*
X7430354Y2775000D01*
X7450000Y2773065D01*
X7469646Y2775000D01*
X7469647Y2775000D01*
X7528414Y2780788D01*
X7561625Y2790862D01*
X7565789Y2785789D01*
X7626697Y2735803D01*
X7696186Y2698660D01*
X7771586Y2675788D01*
X7830353Y2670000D01*
X7830363Y2670000D01*
X7849999Y2668066D01*
X7869635Y2670000D01*
X10264315Y2670000D01*
X11933263Y1001052D01*
X11945789Y985789D01*
X12006697Y935803D01*
X12076186Y898660D01*
X12151586Y875788D01*
X12210353Y870000D01*
X12210363Y870000D01*
X12229999Y868066D01*
X12249635Y870000D01*
X12448549Y870000D01*
X12448549Y645000D01*
X12454341Y586190D01*
X12471496Y529640D01*
X12499353Y477523D01*
X12536842Y431842D01*
X12582523Y394353D01*
X12634640Y366496D01*
X12691190Y349341D01*
X12750000Y343549D01*
X15175000Y343549D01*
X15175001Y-343549D01*
X12750000Y-343549D01*
X12691190Y-349341D01*
X12655771Y-360086D01*
X10121737Y2173948D01*
X10109211Y2189211D01*
X10048303Y2239197D01*
X9978814Y2276340D01*
X9903414Y2299212D01*
X9844647Y2305000D01*
X9844646Y2305000D01*
X9825000Y2306935D01*
X9805354Y2305000D01*
X8312568Y2305000D01*
X8291941Y2343591D01*
X8229579Y2419579D01*
X8153591Y2481941D01*
X8066897Y2528280D01*
X7972828Y2556816D01*
X7875000Y2566451D01*
X7325000Y2566451D01*
X7227172Y2556816D01*
X7133103Y2528280D01*
X7046409Y2481941D01*
X6970421Y2419579D01*
X6967820Y2416410D01*
X6950813Y2430368D01*
X6872763Y2472086D01*
X6788074Y2497776D01*
X6700000Y2506451D01*
X5050000Y2506451D01*
X4961926Y2497776D01*
X4877237Y2472086D01*
X4799187Y2430368D01*
X4730776Y2374224D01*
X4674632Y2305813D01*
X4632914Y2227763D01*
X4607224Y2143074D01*
X4598549Y2055000D01*
X4598549Y1755000D01*
X4607224Y1666926D01*
X4632914Y1582237D01*
X4674632Y1504187D01*
X4730776Y1435776D01*
X4799187Y1379632D01*
X4877237Y1337914D01*
X4961926Y1312224D01*
X5050000Y1303549D01*
X6700000Y1303549D01*
X6788074Y1312224D01*
X6872763Y1337914D01*
X6924961Y1365814D01*
X6970421Y1310421D01*
X7046409Y1248059D01*
X7133103Y1201720D01*
X7227172Y1173184D01*
X7325000Y1163549D01*
X7875000Y1163549D01*
X7972828Y1173184D01*
X8066897Y1201720D01*
X8153591Y1248059D01*
X8229579Y1310421D01*
X8291941Y1386409D01*
X8338280Y1473103D01*
X8347956Y1505000D01*
X9659315Y1505000D01*
X10674120Y490195D01*
X10619746Y467672D01*
X10529665Y407482D01*
X10453056Y330873D01*
X10392866Y240792D01*
X10351405Y140698D01*
X10330269Y34439D01*
X10330269Y-4045D01*
X10031047Y-303268D01*
X10015790Y-315789D01*
X10003268Y-331047D01*
X10003265Y-331050D01*
X9965803Y-376698D01*
X9941525Y-422119D01*
X9940360Y-421496D01*
X9927546Y-417609D01*
X9956335Y-322705D01*
X9966451Y-220000D01*
X9966451Y280000D01*
X9956335Y382705D01*
X9926377Y481464D01*
X9877728Y572481D01*
X9812257Y652257D01*
X9732481Y717728D01*
X9641464Y766377D01*
X9542705Y796335D01*
X9440000Y806451D01*
X8990000Y806451D01*
X8887295Y796335D01*
X8788536Y766377D01*
X8697519Y717728D01*
X8617743Y652257D01*
X8552272Y572481D01*
X8503623Y481464D01*
X8473665Y382705D01*
X8463549Y280000D01*
X8463549Y-155766D01*
X8415031Y-204284D01*
X8415000Y-199000D01*
X8340000Y-124000D01*
X7819000Y-124000D01*
X7819000Y-144000D01*
X7511000Y-144000D01*
X7511000Y-124000D01*
X6990000Y-124000D01*
X6980228Y-133772D01*
X6950813Y-109632D01*
X6872763Y-67914D01*
X6788074Y-42224D01*
X6700000Y-33549D01*
X5050000Y-33549D01*
X4961926Y-42224D01*
X4877237Y-67914D01*
X4799187Y-109632D01*
X4730776Y-165776D01*
X4674632Y-234187D01*
X4632914Y-312237D01*
X4607224Y-396926D01*
X4598549Y-485000D01*
X4598549Y-732864D01*
X2193312Y1672373D01*
X2201451Y1755000D01*
X2201451Y2055000D01*
X2192776Y2143074D01*
X2167086Y2227763D01*
X2125368Y2305813D01*
X2069224Y2374224D01*
X2000813Y2430368D01*
X1922763Y2472086D01*
X1838074Y2497776D01*
X1750000Y2506451D01*
X100000Y2506451D01*
X11926Y2497776D01*
X-72763Y2472086D01*
X-150813Y2430368D01*
X-219224Y2374224D01*
X-275368Y2305813D01*
X-317086Y2227763D01*
X-342776Y2143074D01*
X-351451Y2055000D01*
X-351451Y1755000D01*
X-342776Y1666926D01*
X-317086Y1582237D01*
X-275368Y1504187D01*
X-219224Y1435776D01*
X-150813Y1379632D01*
X-72763Y1337914D01*
X11926Y1312224D01*
X100000Y1303549D01*
X1430766Y1303549D01*
X1497864Y1236451D01*
X100000Y1236451D01*
X11926Y1227776D01*
X-72763Y1202086D01*
X-150813Y1160368D01*
X-219224Y1104224D01*
X-275368Y1035813D01*
X-317086Y957763D01*
X-342776Y873074D01*
X-351451Y785000D01*
X-351451Y485000D01*
X-342776Y396926D01*
X-317086Y312237D01*
X-275368Y234187D01*
X-219224Y165776D01*
X-150813Y109632D01*
X-72763Y67914D01*
X11926Y42224D01*
X100000Y33549D01*
X1302178Y33549D01*
X1369276Y-33549D01*
X100000Y-33549D01*
X11926Y-42224D01*
X-72763Y-67914D01*
X-150813Y-109632D01*
X-219224Y-165776D01*
X-275368Y-234187D01*
X-317086Y-312237D01*
X-342776Y-396926D01*
X-351451Y-485000D01*
X-351451Y-785000D01*
X-345049Y-850000D01*
X-371814Y-850000D01*
X-423549Y-798265D01*
X-423549Y-575000D01*
X-433184Y-477172D01*
X-461720Y-383103D01*
X-508059Y-296409D01*
X-570421Y-220421D01*
X-646409Y-158059D01*
X-733103Y-111720D01*
X-827172Y-83184D01*
X-925000Y-73549D01*
X-1475000Y-73549D01*
X-1572828Y-83184D01*
X-1666897Y-111720D01*
X-1753591Y-158059D01*
X-1829579Y-220421D01*
X-1891941Y-296409D01*
X-1938280Y-383103D01*
X-1966816Y-477172D01*
X-1976451Y-575000D01*
X-1976451Y-975000D01*
X-1966816Y-1072828D01*
X-1938280Y-1166897D01*
X-1891941Y-1253591D01*
X-1829579Y-1329579D01*
X-1753591Y-1391941D01*
X-1666897Y-1438280D01*
X-1572828Y-1466816D01*
X-1475000Y-1476451D01*
X-925000Y-1476451D01*
X-881062Y-1472124D01*
X-834233Y-1518953D01*
X-821711Y-1534211D01*
X-806453Y-1546733D01*
X-806451Y-1546735D01*
X-802472Y-1550000D01*
X-760803Y-1584197D01*
X-691314Y-1621340D01*
X-615914Y-1644212D01*
X-557147Y-1650000D01*
X-557137Y-1650000D01*
X-537501Y-1651934D01*
X-517865Y-1650000D01*
X-337642Y-1650000D01*
X-342776Y-1666926D01*
X-351451Y-1755000D01*
X-351451Y-2055000D01*
X-342776Y-2143074D01*
X-317086Y-2227763D01*
X-275368Y-2305813D01*
X-219224Y-2374224D01*
X-150813Y-2430368D01*
X-72763Y-2472086D01*
X11926Y-2497776D01*
X100000Y-2506451D01*
X1750000Y-2506451D01*
X1838074Y-2497776D01*
X1922763Y-2472086D01*
X2000813Y-2430368D01*
X2069224Y-2374224D01*
X2125368Y-2305813D01*
X2167086Y-2227763D01*
X2192776Y-2143074D01*
X2200533Y-2064325D01*
X2249015Y-2084407D01*
X2355274Y-2105543D01*
X2463614Y-2105543D01*
X2569873Y-2084407D01*
X2669967Y-2042946D01*
X2760048Y-1982756D01*
X2836657Y-1906147D01*
X2896847Y-1816066D01*
X2938308Y-1715972D01*
X2951857Y-1647854D01*
X4077966Y-2773963D01*
X4090488Y-2789221D01*
X4105746Y-2801743D01*
X4105748Y-2801745D01*
X4134085Y-2825000D01*
X4151396Y-2839207D01*
X4220885Y-2876350D01*
X4296285Y-2899222D01*
X4355052Y-2905010D01*
X4355062Y-2905010D01*
X4374698Y-2906944D01*
X4394334Y-2905010D01*
X4616906Y-2905010D01*
X4607224Y-2936926D01*
X4598549Y-3025000D01*
X4598549Y-3325000D01*
X4607224Y-3413074D01*
X4632914Y-3497763D01*
X4674632Y-3575813D01*
X4730776Y-3644224D01*
X4799187Y-3700368D01*
X4877237Y-3742086D01*
X4961926Y-3767776D01*
X5050000Y-3776451D01*
X6700000Y-3776451D01*
X6788074Y-3767776D01*
X6872763Y-3742086D01*
X6950813Y-3700368D01*
X7019224Y-3644224D01*
X7030315Y-3630710D01*
X7070421Y-3679579D01*
X7146409Y-3741941D01*
X7233103Y-3788280D01*
X7327172Y-3816816D01*
X7425000Y-3826451D01*
X7975000Y-3826451D01*
X8072828Y-3816816D01*
X8166897Y-3788280D01*
X8253591Y-3741941D01*
X8329579Y-3679579D01*
X8391941Y-3603591D01*
X8433949Y-3525000D01*
X8555354Y-3525000D01*
X8575000Y-3526935D01*
X8594646Y-3525000D01*
X8594647Y-3525000D01*
X8653414Y-3519212D01*
X8728814Y-3496340D01*
X8798303Y-3459197D01*
X8859211Y-3409211D01*
X8871737Y-3393948D01*
X9564234Y-2701451D01*
X9825000Y-2701451D01*
X9883810Y-2695659D01*
X9940360Y-2678504D01*
X9992477Y-2650647D01*
X10038158Y-2613158D01*
X10075337Y-2567854D01*
X10138305Y-2534197D01*
X10199213Y-2484211D01*
X10211739Y-2468948D01*
X10568949Y-2111738D01*
X10584211Y-2099213D01*
X10634197Y-2038305D01*
X10671340Y-1968816D01*
X10694212Y-1893416D01*
X10700000Y-1834649D01*
X10700000Y-1834639D01*
X10701934Y-1815003D01*
X10700000Y-1795367D01*
X10700000Y-765685D01*
X10895955Y-569731D01*
X10934439Y-569731D01*
X11040698Y-548595D01*
X11140792Y-507134D01*
X11230873Y-446944D01*
X11307482Y-370335D01*
X11367672Y-280254D01*
X11390195Y-225880D01*
X12448549Y-1284235D01*
X12448549Y-1895000D01*
X12454341Y-1953810D01*
X12471496Y-2010360D01*
X12499353Y-2062477D01*
X12536842Y-2108158D01*
X12582523Y-2145647D01*
X12634640Y-2173504D01*
X12691190Y-2190659D01*
X12750000Y-2196451D01*
X15175001Y-2196451D01*
X15175001Y-2883549D01*
X12750000Y-2883549D01*
X12691190Y-2889341D01*
X12634640Y-2906496D01*
X12582523Y-2934353D01*
X12536842Y-2971842D01*
X12499353Y-3017523D01*
X12471496Y-3069640D01*
X12454341Y-3126190D01*
X12448549Y-3185000D01*
X12448549Y-3224418D01*
X12381574Y-3179667D01*
X12254182Y-3126900D01*
X12118944Y-3099999D01*
X11981056Y-3099999D01*
X11845818Y-3126900D01*
X11718426Y-3179667D01*
X11603776Y-3256273D01*
X11506274Y-3353775D01*
X11429668Y-3468425D01*
X11376901Y-3595817D01*
X11350000Y-3731055D01*
X11350000Y-3868943D01*
X11376901Y-4004181D01*
X11429668Y-4131573D01*
X11475389Y-4200000D01*
X8304696Y-4200000D01*
X8253591Y-4158059D01*
X8166897Y-4111720D01*
X8072828Y-4083184D01*
X7975000Y-4073549D01*
X7425000Y-4073549D01*
X7327172Y-4083184D01*
X7233103Y-4111720D01*
X7146409Y-4158059D01*
X7131631Y-4170187D01*
X7117086Y-4122237D01*
X7075368Y-4044187D01*
X7019224Y-3975776D01*
X6950813Y-3919632D01*
X6872763Y-3877914D01*
X6788074Y-3852224D01*
X6700000Y-3843549D01*
X5050000Y-3843549D01*
X4961926Y-3852224D01*
X4877237Y-3877914D01*
X4799187Y-3919632D01*
X4730776Y-3975776D01*
X4674632Y-4044187D01*
X4632914Y-4122237D01*
X4607224Y-4206926D01*
X4598549Y-4295000D01*
X4598549Y-4595000D01*
X4607224Y-4683074D01*
X4632914Y-4767763D01*
X4674632Y-4845813D01*
X4730776Y-4914224D01*
X4799187Y-4970368D01*
X4877237Y-5012086D01*
X4961926Y-5037776D01*
X5050000Y-5046451D01*
X6700000Y-5046451D01*
X6788074Y-5037776D01*
X6872763Y-5012086D01*
X6924479Y-4984444D01*
X6933184Y-5072828D01*
X6961720Y-5166897D01*
X6966051Y-5175000D01*
X-984104Y-5175000D01*
X-1227922Y-5151094D01*
X-1330909Y-5120000D01*
X-710707Y-5120000D01*
X-593173Y-5108424D01*
X-442372Y-5062679D01*
X-303394Y-4988393D01*
X-201788Y-4905008D01*
X-194224Y-4914224D01*
X-125813Y-4970368D01*
X-47763Y-5012086D01*
X36926Y-5037776D01*
X125000Y-5046451D01*
X1725000Y-5046451D01*
X1813074Y-5037776D01*
X1897763Y-5012086D01*
X1975813Y-4970368D01*
X2043621Y-4914719D01*
X2133394Y-4988393D01*
X2272372Y-5062679D01*
X2423173Y-5108424D01*
X2540707Y-5120000D01*
X3719293Y-5120000D01*
X3836827Y-5108424D01*
X3987628Y-5062679D01*
X4126606Y-4988393D01*
X4248422Y-4888422D01*
X4348393Y-4766606D01*
X4422679Y-4627628D01*
X4468424Y-4476827D01*
X4483870Y-4320000D01*
X4468424Y-4163173D01*
X4422679Y-4012372D01*
X4348393Y-3873394D01*
X4248422Y-3751578D01*
X4126606Y-3651607D01*
X3987628Y-3577321D01*
X3836827Y-3531576D01*
X3719293Y-3520000D01*
X2540707Y-3520000D01*
X2423173Y-3531576D01*
X2272372Y-3577321D01*
X2133394Y-3651607D01*
X2011578Y-3751578D01*
X1911607Y-3873394D01*
X1906652Y-3882665D01*
X1897763Y-3877914D01*
X1813074Y-3852224D01*
X1725000Y-3843549D01*
X125000Y-3843549D01*
X36926Y-3852224D01*
X-47763Y-3877914D01*
X-72207Y-3890980D01*
X-81607Y-3873394D01*
X-181578Y-3751578D01*
X-303394Y-3651607D01*
X-442372Y-3577321D01*
X-593173Y-3531576D01*
X-710707Y-3520000D01*
X-1389293Y-3520000D01*
X-1506827Y-3531576D01*
X-1657628Y-3577321D01*
X-1796606Y-3651607D01*
X-1918422Y-3751578D01*
X-2018393Y-3873394D01*
X-2092679Y-4012372D01*
X-2138424Y-4163173D01*
X-2146529Y-4245469D01*
X-2149474Y-4235958D01*
X-2175000Y-3993085D01*
X-2175000Y-2825000D01*
X-1976452Y-2825000D01*
X-1970660Y-2883810D01*
X-1953505Y-2940361D01*
X-1925648Y-2992478D01*
X-1888159Y-3038159D01*
X-1842478Y-3075648D01*
X-1790361Y-3103505D01*
X-1733810Y-3120660D01*
X-1675000Y-3126452D01*
X-1429000Y-3125000D01*
X-1354000Y-3050000D01*
X-1354000Y-2579000D01*
X-1046000Y-2579000D01*
X-1046000Y-3050000D01*
X-971000Y-3125000D01*
X-725000Y-3126452D01*
X-666190Y-3120660D01*
X-609639Y-3103505D01*
X-557522Y-3075648D01*
X-511841Y-3038159D01*
X-501042Y-3025000D01*
X-351451Y-3025000D01*
X-351451Y-3325000D01*
X-342776Y-3413074D01*
X-317086Y-3497763D01*
X-275368Y-3575813D01*
X-219224Y-3644224D01*
X-150813Y-3700368D01*
X-72763Y-3742086D01*
X11926Y-3767776D01*
X100000Y-3776451D01*
X1750000Y-3776451D01*
X1838074Y-3767776D01*
X1922763Y-3742086D01*
X2000813Y-3700368D01*
X2069224Y-3644224D01*
X2125368Y-3575813D01*
X2167086Y-3497763D01*
X2192776Y-3413074D01*
X2196938Y-3370821D01*
X2201586Y-3375469D01*
X2303952Y-3443868D01*
X2417694Y-3490981D01*
X2538443Y-3515000D01*
X2661557Y-3515000D01*
X2782306Y-3490981D01*
X2896048Y-3443868D01*
X2998414Y-3375469D01*
X3085469Y-3288414D01*
X3153868Y-3186048D01*
X3200981Y-3072306D01*
X3225000Y-2951557D01*
X3225000Y-2828443D01*
X3200981Y-2707694D01*
X3153868Y-2593952D01*
X3085469Y-2491586D01*
X2998414Y-2404531D01*
X2896048Y-2336132D01*
X2782306Y-2289019D01*
X2661557Y-2265000D01*
X2538443Y-2265000D01*
X2417694Y-2289019D01*
X2303952Y-2336132D01*
X2201586Y-2404531D01*
X2114531Y-2491586D01*
X2046132Y-2593952D01*
X2017423Y-2663263D01*
X2000813Y-2649632D01*
X1922763Y-2607914D01*
X1838074Y-2582224D01*
X1750000Y-2573549D01*
X100000Y-2573549D01*
X11926Y-2582224D01*
X-72763Y-2607914D01*
X-150813Y-2649632D01*
X-219224Y-2705776D01*
X-275368Y-2774187D01*
X-317086Y-2852237D01*
X-342776Y-2936926D01*
X-351451Y-3025000D01*
X-501042Y-3025000D01*
X-474352Y-2992478D01*
X-446495Y-2940361D01*
X-429340Y-2883810D01*
X-423548Y-2825000D01*
X-425000Y-2654000D01*
X-500000Y-2579000D01*
X-1046000Y-2579000D01*
X-1354000Y-2579000D01*
X-1900000Y-2579000D01*
X-1975000Y-2654000D01*
X-1976452Y-2825000D01*
X-2175000Y-2825000D01*
X-2175000Y-2025000D01*
X-1976452Y-2025000D01*
X-1975000Y-2196000D01*
X-1900000Y-2271000D01*
X-1354000Y-2271000D01*
X-1354000Y-1800000D01*
X-1046000Y-1800000D01*
X-1046000Y-2271000D01*
X-500000Y-2271000D01*
X-425000Y-2196000D01*
X-423548Y-2025000D01*
X-429340Y-1966190D01*
X-446495Y-1909639D01*
X-474352Y-1857522D01*
X-511841Y-1811841D01*
X-557522Y-1774352D01*
X-609639Y-1746495D01*
X-666190Y-1729340D01*
X-725000Y-1723548D01*
X-971000Y-1725000D01*
X-1046000Y-1800000D01*
X-1354000Y-1800000D01*
X-1429000Y-1725000D01*
X-1675000Y-1723548D01*
X-1733810Y-1729340D01*
X-1790361Y-1746495D01*
X-1842478Y-1774352D01*
X-1888159Y-1811841D01*
X-1925648Y-1857522D01*
X-1953505Y-1909639D01*
X-1970660Y-1966190D01*
X-1976452Y-2025000D01*
X-2175000Y-2025000D01*
X-2175000Y675000D01*
X-1976452Y675000D01*
X-1970660Y616190D01*
X-1953505Y559639D01*
X-1925648Y507522D01*
X-1888159Y461841D01*
X-1842478Y424352D01*
X-1790361Y396495D01*
X-1733810Y379340D01*
X-1675000Y373548D01*
X-1429000Y375000D01*
X-1354000Y450000D01*
X-1354000Y971000D01*
X-1046000Y971000D01*
X-1046000Y450000D01*
X-971000Y375000D01*
X-725000Y373548D01*
X-666190Y379340D01*
X-609639Y396495D01*
X-557522Y424352D01*
X-511841Y461841D01*
X-474352Y507522D01*
X-446495Y559639D01*
X-429340Y616190D01*
X-423548Y675000D01*
X-425000Y896000D01*
X-500000Y971000D01*
X-1046000Y971000D01*
X-1354000Y971000D01*
X-1900000Y971000D01*
X-1975000Y896000D01*
X-1976452Y675000D01*
X-2175000Y675000D01*
X-2175000Y1575000D01*
X-1976452Y1575000D01*
X-1975000Y1354000D01*
X-1900000Y1279000D01*
X-1354000Y1279000D01*
X-1354000Y1800000D01*
X-1046000Y1800000D01*
X-1046000Y1279000D01*
X-500000Y1279000D01*
X-425000Y1354000D01*
X-423548Y1575000D01*
X-429340Y1633810D01*
X-446495Y1690361D01*
X-474352Y1742478D01*
X-511841Y1788159D01*
X-557522Y1825648D01*
X-609639Y1853505D01*
X-666190Y1870660D01*
X-725000Y1876452D01*
X-971000Y1875000D01*
X-1046000Y1800000D01*
X-1354000Y1800000D01*
X-1429000Y1875000D01*
X-1675000Y1876452D01*
X-1733810Y1870660D01*
X-1790361Y1853505D01*
X-1842478Y1825648D01*
X-1888159Y1788159D01*
X-1925648Y1742478D01*
X-1953505Y1690361D01*
X-1970660Y1633810D01*
X-1976452Y1575000D01*
X-2175000Y1575000D01*
X-2175000Y3984104D01*
X-2151094Y4227922D01*
X-2146349Y4243637D01*
X-2138424Y4163173D01*
X-2092679Y4012372D01*
X-2018393Y3873394D01*
X-1918422Y3751578D01*
X-1796606Y3651607D01*
X-1657628Y3577321D01*
X-1506827Y3531576D01*
X-1389293Y3520000D01*
X-984300Y3520000D01*
X-1077849Y3426451D01*
X-1450000Y3426451D01*
X-1552705Y3416335D01*
X-1651464Y3386377D01*
X-1742481Y3337728D01*
X-1822257Y3272257D01*
X-1887728Y3192481D01*
X-1936377Y3101464D01*
X-1966335Y3002705D01*
X-1976451Y2900000D01*
X-1976451Y2450000D01*
X-1966335Y2347295D01*
X-1936377Y2248536D01*
X-1887728Y2157519D01*
X-1822257Y2077743D01*
X-1742481Y2012272D01*
X-1651464Y1963623D01*
X-1552705Y1933665D01*
X-1450000Y1923549D01*
X-950000Y1923549D01*
X-847295Y1933665D01*
X-748536Y1963623D01*
X-657519Y2012272D01*
X-577743Y2077743D01*
X-512272Y2157519D01*
X-463623Y2248536D01*
X-433665Y2347295D01*
X-423549Y2450000D01*
X-423549Y2878671D01*
X-322037Y2980183D01*
X-317776Y2936926D01*
X-292086Y2852237D01*
X-250368Y2774187D01*
X-194224Y2705776D01*
X-125813Y2649632D01*
X-47763Y2607914D01*
X36926Y2582224D01*
X125000Y2573549D01*
X1725000Y2573549D01*
X1813074Y2582224D01*
X1897763Y2607914D01*
X1975813Y2649632D01*
X2011080Y2678575D01*
X2046132Y2593952D01*
X2114531Y2491586D01*
X2201586Y2404531D01*
X2300000Y2338773D01*
X2300000Y2108000D01*
X2305764Y2049473D01*
X2322836Y1993195D01*
X2350559Y1941329D01*
X2387868Y1895868D01*
X3319249Y964487D01*
X3330627Y950623D01*
X3965625Y315623D01*
X3980499Y297499D01*
X3998621Y282627D01*
X3998622Y282626D01*
X4052827Y238141D01*
X4135346Y194034D01*
X4224884Y166873D01*
X4318000Y157702D01*
X4341332Y160000D01*
X4737814Y160000D01*
X4799187Y109632D01*
X4877237Y67914D01*
X4961926Y42224D01*
X5050000Y33549D01*
X6700000Y33549D01*
X6788074Y42224D01*
X6872763Y67914D01*
X6950813Y109632D01*
X7019224Y165776D01*
X7034180Y184000D01*
X7511000Y184000D01*
X7511000Y730000D01*
X7819000Y730000D01*
X7819000Y184000D01*
X8340000Y184000D01*
X8415000Y259000D01*
X8416452Y505000D01*
X8410660Y563810D01*
X8393505Y620361D01*
X8365648Y672478D01*
X8328159Y718159D01*
X8282478Y755648D01*
X8230361Y783505D01*
X8173810Y800660D01*
X8115000Y806452D01*
X7894000Y805000D01*
X7819000Y730000D01*
X7511000Y730000D01*
X7436000Y805000D01*
X7215000Y806452D01*
X7156190Y800660D01*
X7150091Y798810D01*
X7142776Y873074D01*
X7117086Y957763D01*
X7075368Y1035813D01*
X7019224Y1104224D01*
X6950813Y1160368D01*
X6872763Y1202086D01*
X6788074Y1227776D01*
X6700000Y1236451D01*
X5050000Y1236451D01*
X4961926Y1227776D01*
X4877237Y1202086D01*
X4799187Y1160368D01*
X4737814Y1110000D01*
X4514752Y1110000D01*
X4364000Y1260751D01*
X4364000Y3902592D01*
X4422679Y4012372D01*
X4462911Y4145000D01*
X4598548Y4145000D01*
X4604340Y4086190D01*
X4621495Y4029639D01*
X4649352Y3977522D01*
X4686841Y3931841D01*
X4732522Y3894352D01*
X4784639Y3866495D01*
X4841190Y3849340D01*
X4900000Y3843548D01*
X5646000Y3845000D01*
X5721000Y3920000D01*
X5721000Y4291000D01*
X4675000Y4291000D01*
X4600000Y4216000D01*
X4598548Y4145000D01*
X4462911Y4145000D01*
X4468424Y4163173D01*
X4483870Y4320000D01*
X4472544Y4435000D01*
X12448548Y4435000D01*
X12450000Y4039000D01*
X12525000Y3964000D01*
X13846000Y3964000D01*
X13846000Y4660000D01*
X13771000Y4735000D01*
X12750000Y4736452D01*
X12691190Y4730660D01*
X12634639Y4713505D01*
X12582522Y4685648D01*
X12536841Y4648159D01*
X12499352Y4602478D01*
X12471495Y4550361D01*
X12454340Y4493810D01*
X12448548Y4435000D01*
X4472544Y4435000D01*
X4468424Y4476827D01*
X4422679Y4627628D01*
X4359942Y4745000D01*
X4598548Y4745000D01*
X4600000Y4674000D01*
X4675000Y4599000D01*
X5721000Y4599000D01*
X5721000Y4970000D01*
X6029000Y4970000D01*
X6029000Y4599000D01*
X7075000Y4599000D01*
X7150000Y4674000D01*
X7151452Y4745000D01*
X7145660Y4803810D01*
X7128505Y4860361D01*
X7100648Y4912478D01*
X7063159Y4958159D01*
X7017478Y4995648D01*
X6965361Y5023505D01*
X6908810Y5040660D01*
X6850000Y5046452D01*
X6104000Y5045000D01*
X6029000Y4970000D01*
X5721000Y4970000D01*
X5646000Y5045000D01*
X4900000Y5046452D01*
X4841190Y5040660D01*
X4784639Y5023505D01*
X4732522Y4995648D01*
X4686841Y4958159D01*
X4649352Y4912478D01*
X4621495Y4860361D01*
X4604340Y4803810D01*
X4598548Y4745000D01*
X4359942Y4745000D01*
X4348393Y4766606D01*
X4248422Y4888422D01*
X4126606Y4988393D01*
X3987628Y5062679D01*
X3836827Y5108424D01*
X3719293Y5120000D01*
X2540707Y5120000D01*
X2423173Y5108424D01*
X2272372Y5062679D01*
X2133394Y4988393D01*
X2043621Y4914719D01*
X1975813Y4970368D01*
X1897763Y5012086D01*
X1813074Y5037776D01*
X1725000Y5046451D01*
X125000Y5046451D01*
X36926Y5037776D01*
X-47763Y5012086D01*
X-125813Y4970368D01*
X-194224Y4914224D01*
X-201788Y4905008D01*
X-303394Y4988393D01*
X-442372Y5062679D01*
X-593173Y5108424D01*
X-710707Y5120000D01*
X-1331169Y5120000D01*
X-1235953Y5149474D01*
X-993085Y5175000D01*
X13984104Y5175000D01*
X14227922Y5151094D01*
G37*
G04 #@! TD.AperFunction*
D17*
X1791576Y4163173D02*
X1837321Y4012372D01*
X1911607Y3873394D01*
X2011578Y3751578D01*
X2133394Y3651607D01*
X2272372Y3577321D01*
X2423173Y3531576D01*
X2540707Y3520000D01*
X3719293Y3520000D01*
X3836827Y3531576D01*
X3964000Y3570154D01*
X3964000Y1136103D01*
X3656713Y1192709D01*
X2700000Y2149422D01*
X2700000Y2272647D01*
X2782306Y2289019D01*
X2896048Y2336132D01*
X2998414Y2404531D01*
X3085469Y2491586D01*
X3153868Y2593952D01*
X3200981Y2707694D01*
X3225000Y2828443D01*
X3225000Y2951557D01*
X3200981Y3072306D01*
X3153868Y3186048D01*
X3085469Y3288414D01*
X2998414Y3375469D01*
X2896048Y3443868D01*
X2782306Y3490981D01*
X2661557Y3515000D01*
X2538443Y3515000D01*
X2417694Y3490981D01*
X2303952Y3443868D01*
X2201586Y3375469D01*
X2174179Y3348062D01*
X2167776Y3413074D01*
X2142086Y3497763D01*
X2100368Y3575813D01*
X2044224Y3644224D01*
X1975813Y3700368D01*
X1897763Y3742086D01*
X1813074Y3767776D01*
X1725000Y3776451D01*
X125000Y3776451D01*
X36926Y3767776D01*
X-45385Y3742807D01*
X-124142Y3821564D01*
X-81607Y3873394D01*
X-7321Y4012372D01*
X38424Y4163173D01*
X43824Y4218000D01*
X1786176Y4218000D01*
X1791576Y4163173D01*
G04 #@! TA.AperFunction,Conductor*
D19*
G36*
X1791576Y4163173D02*
G01*
X1837321Y4012372D01*
X1911607Y3873394D01*
X2011578Y3751578D01*
X2133394Y3651607D01*
X2272372Y3577321D01*
X2423173Y3531576D01*
X2540707Y3520000D01*
X3719293Y3520000D01*
X3836827Y3531576D01*
X3964000Y3570154D01*
X3964000Y1136103D01*
X3656713Y1192709D01*
X2700000Y2149422D01*
X2700000Y2272647D01*
X2782306Y2289019D01*
X2896048Y2336132D01*
X2998414Y2404531D01*
X3085469Y2491586D01*
X3153868Y2593952D01*
X3200981Y2707694D01*
X3225000Y2828443D01*
X3225000Y2951557D01*
X3200981Y3072306D01*
X3153868Y3186048D01*
X3085469Y3288414D01*
X2998414Y3375469D01*
X2896048Y3443868D01*
X2782306Y3490981D01*
X2661557Y3515000D01*
X2538443Y3515000D01*
X2417694Y3490981D01*
X2303952Y3443868D01*
X2201586Y3375469D01*
X2174179Y3348062D01*
X2167776Y3413074D01*
X2142086Y3497763D01*
X2100368Y3575813D01*
X2044224Y3644224D01*
X1975813Y3700368D01*
X1897763Y3742086D01*
X1813074Y3767776D01*
X1725000Y3776451D01*
X125000Y3776451D01*
X36926Y3767776D01*
X-45385Y3742807D01*
X-124142Y3821564D01*
X-81607Y3873394D01*
X-7321Y4012372D01*
X38424Y4163173D01*
X43824Y4218000D01*
X1786176Y4218000D01*
X1791576Y4163173D01*
G37*
G04 #@! TD.AperFunction*
D17*
X15175001Y-3984094D02*
X15151094Y-4227922D01*
X15084900Y-4447166D01*
X14977386Y-4649370D01*
X14832639Y-4826847D01*
X14656176Y-4972830D01*
X14454727Y-5081753D01*
X14235958Y-5149474D01*
X13993085Y-5175000D01*
X7400000Y-5175000D01*
X7400000Y-4800000D01*
X11700000Y-4800000D01*
X11719509Y-4798079D01*
X11738268Y-4792388D01*
X11755557Y-4783147D01*
X11770711Y-4770711D01*
X12170711Y-4370711D01*
X12183147Y-4355557D01*
X12192388Y-4338268D01*
X12198079Y-4319509D01*
X12200000Y-4300000D01*
X12200000Y-3900000D01*
X13100000Y-3900000D01*
X13119509Y-3898079D01*
X13138268Y-3892388D01*
X13155557Y-3883147D01*
X13170711Y-3870711D01*
X13183147Y-3855557D01*
X13192388Y-3838268D01*
X13198079Y-3819509D01*
X13200000Y-3800000D01*
X13200000Y-3700000D01*
X15175001Y-3700000D01*
X15175001Y-3984094D01*
G04 #@! TA.AperFunction,Conductor*
D19*
G36*
X15175001Y-3984094D02*
G01*
X15151094Y-4227922D01*
X15084900Y-4447166D01*
X14977386Y-4649370D01*
X14832639Y-4826847D01*
X14656176Y-4972830D01*
X14454727Y-5081753D01*
X14235958Y-5149474D01*
X13993085Y-5175000D01*
X7400000Y-5175000D01*
X7400000Y-4800000D01*
X11700000Y-4800000D01*
X11719509Y-4798079D01*
X11738268Y-4792388D01*
X11755557Y-4783147D01*
X11770711Y-4770711D01*
X12170711Y-4370711D01*
X12183147Y-4355557D01*
X12192388Y-4338268D01*
X12198079Y-4319509D01*
X12200000Y-4300000D01*
X12200000Y-3900000D01*
X13100000Y-3900000D01*
X13119509Y-3898079D01*
X13138268Y-3892388D01*
X13155557Y-3883147D01*
X13170711Y-3870711D01*
X13183147Y-3855557D01*
X13192388Y-3838268D01*
X13198079Y-3819509D01*
X13200000Y-3800000D01*
X13200000Y-3700000D01*
X15175001Y-3700000D01*
X15175001Y-3984094D01*
G37*
G04 #@! TD.AperFunction*
M02*
