G04 #@! TF.GenerationSoftware,KiCad,Pcbnew,5.1.9+dfsg1-1+deb11u1*
G04 #@! TF.CreationDate,2023-05-18T20:17:31+02:00*
G04 #@! TF.ProjectId,base,62617365-2e6b-4696-9361-645f70636258,rev?*
G04 #@! TF.SameCoordinates,Original*
G04 #@! TF.FileFunction,Soldermask,Top*
G04 #@! TF.FilePolarity,Negative*
%FSLAX46Y46*%
G04 Gerber Fmt 4.6, Leading zero omitted, Abs format (unit mm)*
G04 Created by KiCad (PCBNEW 5.1.9+dfsg1-1+deb11u1) date 2023-05-18 20:17:31*
%MOMM*%
%LPD*%
G01*
G04 APERTURE LIST*
%ADD10R,1.060000X0.650000*%
%ADD11R,2.500000X1.250000*%
%ADD12O,1.600000X1.000000*%
%ADD13C,0.650000*%
%ADD14O,2.100000X1.000000*%
%ADD15R,1.450000X0.300000*%
%ADD16R,1.450000X0.600000*%
G04 APERTURE END LIST*
D10*
X6150000Y-1000000D03*
X6150000Y-1950000D03*
X6150000Y-2900000D03*
X8350000Y-2900000D03*
X8350000Y-1000000D03*
D11*
X14000000Y-3810000D03*
X14000000Y-1270000D03*
X14000000Y1270000D03*
X14000000Y3810000D03*
D12*
X-1050000Y-4320000D03*
D13*
X2600000Y-2890000D03*
D12*
X-1050000Y4320000D03*
D13*
X2600000Y2890000D03*
D14*
X3130000Y4320000D03*
X3130000Y-4320000D03*
D15*
X4045000Y250000D03*
X4045000Y-1750000D03*
X4045000Y-1250000D03*
X4045000Y-750000D03*
X4045000Y-250000D03*
X4045000Y750000D03*
X4045000Y1250000D03*
X4045000Y1750000D03*
D16*
X4045000Y-3250000D03*
X4045000Y-2450000D03*
X4045000Y2450000D03*
X4045000Y3250000D03*
X4045000Y3250000D03*
X4045000Y2450000D03*
X4045000Y-2450000D03*
X4045000Y-3250000D03*
G36*
G01*
X5725000Y525000D02*
X5725000Y1075000D01*
G75*
G02*
X5925000Y1275000I200000J0D01*
G01*
X6325000Y1275000D01*
G75*
G02*
X6525000Y1075000I0J-200000D01*
G01*
X6525000Y525000D01*
G75*
G02*
X6325000Y325000I-200000J0D01*
G01*
X5925000Y325000D01*
G75*
G02*
X5725000Y525000I0J200000D01*
G01*
G37*
G36*
G01*
X7375000Y525000D02*
X7375000Y1075000D01*
G75*
G02*
X7575000Y1275000I200000J0D01*
G01*
X7975000Y1275000D01*
G75*
G02*
X8175000Y1075000I0J-200000D01*
G01*
X8175000Y525000D01*
G75*
G02*
X7975000Y325000I-200000J0D01*
G01*
X7575000Y325000D01*
G75*
G02*
X7375000Y525000I0J200000D01*
G01*
G37*
G36*
G01*
X5525000Y2775000D02*
X6075000Y2775000D01*
G75*
G02*
X6275000Y2575000I0J-200000D01*
G01*
X6275000Y2175000D01*
G75*
G02*
X6075000Y1975000I-200000J0D01*
G01*
X5525000Y1975000D01*
G75*
G02*
X5325000Y2175000I0J200000D01*
G01*
X5325000Y2575000D01*
G75*
G02*
X5525000Y2775000I200000J0D01*
G01*
G37*
G36*
G01*
X5525000Y4425000D02*
X6075000Y4425000D01*
G75*
G02*
X6275000Y4225000I0J-200000D01*
G01*
X6275000Y3825000D01*
G75*
G02*
X6075000Y3625000I-200000J0D01*
G01*
X5525000Y3625000D01*
G75*
G02*
X5325000Y3825000I0J200000D01*
G01*
X5325000Y4225000D01*
G75*
G02*
X5525000Y4425000I200000J0D01*
G01*
G37*
G36*
G01*
X8225000Y-4300000D02*
X8225000Y-4800000D01*
G75*
G02*
X8000000Y-5025000I-225000J0D01*
G01*
X7550000Y-5025000D01*
G75*
G02*
X7325000Y-4800000I0J225000D01*
G01*
X7325000Y-4300000D01*
G75*
G02*
X7550000Y-4075000I225000J0D01*
G01*
X8000000Y-4075000D01*
G75*
G02*
X8225000Y-4300000I0J-225000D01*
G01*
G37*
G36*
G01*
X6675000Y-4300000D02*
X6675000Y-4800000D01*
G75*
G02*
X6450000Y-5025000I-225000J0D01*
G01*
X6000000Y-5025000D01*
G75*
G02*
X5775000Y-4800000I0J225000D01*
G01*
X5775000Y-4300000D01*
G75*
G02*
X6000000Y-4075000I225000J0D01*
G01*
X6450000Y-4075000D01*
G75*
G02*
X6675000Y-4300000I0J-225000D01*
G01*
G37*
G36*
G01*
X7650000Y3525000D02*
X7150000Y3525000D01*
G75*
G02*
X6925000Y3750000I0J225000D01*
G01*
X6925000Y4200000D01*
G75*
G02*
X7150000Y4425000I225000J0D01*
G01*
X7650000Y4425000D01*
G75*
G02*
X7875000Y4200000I0J-225000D01*
G01*
X7875000Y3750000D01*
G75*
G02*
X7650000Y3525000I-225000J0D01*
G01*
G37*
G36*
G01*
X7650000Y1975000D02*
X7150000Y1975000D01*
G75*
G02*
X6925000Y2200000I0J225000D01*
G01*
X6925000Y2650000D01*
G75*
G02*
X7150000Y2875000I225000J0D01*
G01*
X7650000Y2875000D01*
G75*
G02*
X7875000Y2650000I0J-225000D01*
G01*
X7875000Y2200000D01*
G75*
G02*
X7650000Y1975000I-225000J0D01*
G01*
G37*
M02*
