G04 #@! TF.GenerationSoftware,KiCad,Pcbnew,5.1.9+dfsg1-1+deb11u1*
G04 #@! TF.CreationDate,2023-05-11T20:21:06+02:00*
G04 #@! TF.ProjectId,base,62617365-2e6b-4696-9361-645f70636258,rev?*
G04 #@! TF.SameCoordinates,Original*
G04 #@! TF.FileFunction,Copper,L1,Top*
G04 #@! TF.FilePolarity,Positive*
%FSLAX46Y46*%
G04 Gerber Fmt 4.6, Leading zero omitted, Abs format (unit mm)*
G04 Created by KiCad (PCBNEW 5.1.9+dfsg1-1+deb11u1) date 2023-05-11 20:21:06*
%MOMM*%
%LPD*%
G01*
G04 APERTURE LIST*
G04 #@! TA.AperFunction,SMDPad,CuDef*
%ADD10R,1.060000X0.650000*%
G04 #@! TD*
G04 #@! TA.AperFunction,SMDPad,CuDef*
%ADD11R,2.500000X1.250000*%
G04 #@! TD*
G04 #@! TA.AperFunction,ComponentPad*
%ADD12O,1.600000X1.000000*%
G04 #@! TD*
G04 #@! TA.AperFunction,ComponentPad*
%ADD13O,2.100000X1.000000*%
G04 #@! TD*
G04 #@! TA.AperFunction,SMDPad,CuDef*
%ADD14R,1.450000X0.300000*%
G04 #@! TD*
G04 #@! TA.AperFunction,SMDPad,CuDef*
%ADD15R,1.450000X0.600000*%
G04 #@! TD*
G04 #@! TA.AperFunction,ViaPad*
%ADD16C,0.500000*%
G04 #@! TD*
G04 #@! TA.AperFunction,ViaPad*
%ADD17C,0.800000*%
G04 #@! TD*
G04 #@! TA.AperFunction,Conductor*
%ADD18C,0.250000*%
G04 #@! TD*
G04 #@! TA.AperFunction,Conductor*
%ADD19C,0.350000*%
G04 #@! TD*
G04 #@! TA.AperFunction,Conductor*
%ADD20C,0.200000*%
G04 #@! TD*
G04 #@! TA.AperFunction,Conductor*
%ADD21C,0.100000*%
G04 #@! TD*
G04 APERTURE END LIST*
D10*
X6150000Y-1000000D03*
X6150000Y-1950000D03*
X6150000Y-2900000D03*
X8350000Y-2900000D03*
X8350000Y-1000000D03*
G04 #@! TA.AperFunction,SMDPad,CuDef*
G36*
G01*
X7675000Y3625000D02*
X7125000Y3625000D01*
G75*
G02*
X6925000Y3825000I0J200000D01*
G01*
X6925000Y4225000D01*
G75*
G02*
X7125000Y4425000I200000J0D01*
G01*
X7675000Y4425000D01*
G75*
G02*
X7875000Y4225000I0J-200000D01*
G01*
X7875000Y3825000D01*
G75*
G02*
X7675000Y3625000I-200000J0D01*
G01*
G37*
G04 #@! TD.AperFunction*
G04 #@! TA.AperFunction,SMDPad,CuDef*
G36*
G01*
X7675000Y1975000D02*
X7125000Y1975000D01*
G75*
G02*
X6925000Y2175000I0J200000D01*
G01*
X6925000Y2575000D01*
G75*
G02*
X7125000Y2775000I200000J0D01*
G01*
X7675000Y2775000D01*
G75*
G02*
X7875000Y2575000I0J-200000D01*
G01*
X7875000Y2175000D01*
G75*
G02*
X7675000Y1975000I-200000J0D01*
G01*
G37*
G04 #@! TD.AperFunction*
D11*
X14000000Y-3810000D03*
X14000000Y-1270000D03*
X14000000Y1270000D03*
X14000000Y3810000D03*
D12*
X-1050000Y-4320000D03*
X-1050000Y4320000D03*
D13*
X3130000Y4320000D03*
X3130000Y-4320000D03*
D14*
X4045000Y250000D03*
X4045000Y-1750000D03*
X4045000Y-1250000D03*
X4045000Y-750000D03*
X4045000Y-250000D03*
X4045000Y750000D03*
X4045000Y1250000D03*
X4045000Y1750000D03*
D15*
X4045000Y-3250000D03*
X4045000Y-2450000D03*
X4045000Y2450000D03*
X4045000Y3250000D03*
X4045000Y3250000D03*
X4045000Y2450000D03*
X4045000Y-2450000D03*
X4045000Y-3250000D03*
G04 #@! TA.AperFunction,SMDPad,CuDef*
G36*
G01*
X5525000Y2775000D02*
X6075000Y2775000D01*
G75*
G02*
X6275000Y2575000I0J-200000D01*
G01*
X6275000Y2175000D01*
G75*
G02*
X6075000Y1975000I-200000J0D01*
G01*
X5525000Y1975000D01*
G75*
G02*
X5325000Y2175000I0J200000D01*
G01*
X5325000Y2575000D01*
G75*
G02*
X5525000Y2775000I200000J0D01*
G01*
G37*
G04 #@! TD.AperFunction*
G04 #@! TA.AperFunction,SMDPad,CuDef*
G36*
G01*
X5525000Y4425000D02*
X6075000Y4425000D01*
G75*
G02*
X6275000Y4225000I0J-200000D01*
G01*
X6275000Y3825000D01*
G75*
G02*
X6075000Y3625000I-200000J0D01*
G01*
X5525000Y3625000D01*
G75*
G02*
X5325000Y3825000I0J200000D01*
G01*
X5325000Y4225000D01*
G75*
G02*
X5525000Y4425000I200000J0D01*
G01*
G37*
G04 #@! TD.AperFunction*
G04 #@! TA.AperFunction,SMDPad,CuDef*
G36*
G01*
X8225000Y-4300000D02*
X8225000Y-4800000D01*
G75*
G02*
X8000000Y-5025000I-225000J0D01*
G01*
X7550000Y-5025000D01*
G75*
G02*
X7325000Y-4800000I0J225000D01*
G01*
X7325000Y-4300000D01*
G75*
G02*
X7550000Y-4075000I225000J0D01*
G01*
X8000000Y-4075000D01*
G75*
G02*
X8225000Y-4300000I0J-225000D01*
G01*
G37*
G04 #@! TD.AperFunction*
G04 #@! TA.AperFunction,SMDPad,CuDef*
G36*
G01*
X6675000Y-4300000D02*
X6675000Y-4800000D01*
G75*
G02*
X6450000Y-5025000I-225000J0D01*
G01*
X6000000Y-5025000D01*
G75*
G02*
X5775000Y-4800000I0J225000D01*
G01*
X5775000Y-4300000D01*
G75*
G02*
X6000000Y-4075000I225000J0D01*
G01*
X6450000Y-4075000D01*
G75*
G02*
X6675000Y-4300000I0J-225000D01*
G01*
G37*
G04 #@! TD.AperFunction*
G04 #@! TA.AperFunction,SMDPad,CuDef*
G36*
G01*
X6415000Y1110000D02*
X6415000Y610000D01*
G75*
G02*
X6190000Y385000I-225000J0D01*
G01*
X5740000Y385000D01*
G75*
G02*
X5515000Y610000I0J225000D01*
G01*
X5515000Y1110000D01*
G75*
G02*
X5740000Y1335000I225000J0D01*
G01*
X6190000Y1335000D01*
G75*
G02*
X6415000Y1110000I0J-225000D01*
G01*
G37*
G04 #@! TD.AperFunction*
G04 #@! TA.AperFunction,SMDPad,CuDef*
G36*
G01*
X7965000Y1110000D02*
X7965000Y610000D01*
G75*
G02*
X7740000Y385000I-225000J0D01*
G01*
X7290000Y385000D01*
G75*
G02*
X7065000Y610000I0J225000D01*
G01*
X7065000Y1110000D01*
G75*
G02*
X7290000Y1335000I225000J0D01*
G01*
X7740000Y1335000D01*
G75*
G02*
X7965000Y1110000I0J-225000D01*
G01*
G37*
G04 #@! TD.AperFunction*
D16*
X4554225Y3948203D03*
X-550000Y-3350000D03*
X9100000Y-3940000D03*
X12250000Y290000D03*
X11300000Y1250000D03*
X8590000Y3620000D03*
X4500000Y-4900000D03*
X4550000Y-3900000D03*
X-1900000Y1900000D03*
X11090000Y-3950000D03*
X10150000Y150000D03*
X11040000Y3370000D03*
X12170000Y3870000D03*
X8510000Y2500000D03*
X10420000Y2260000D03*
X8180000Y4980000D03*
X11340000Y-1150000D03*
X10400000Y-3080000D03*
X7120000Y-50000D03*
X12290000Y2020000D03*
X13420000Y2600000D03*
X12030000Y-2270000D03*
D17*
X12050000Y-3799999D03*
D16*
X8430000Y1290000D03*
X5150000Y-660000D03*
X2893081Y-457694D03*
X2409444Y-1555543D03*
X10850000Y-1700000D03*
X9365000Y-1586D03*
X10880269Y-19731D03*
D18*
X3100000Y-3400000D02*
X3052002Y-3400000D01*
X3250000Y-3250000D02*
X3100000Y-3400000D01*
X4045000Y-3250000D02*
X3250000Y-3250000D01*
X4045000Y3250000D02*
X3200000Y3250000D01*
X3200000Y3250000D02*
X3000000Y3450000D01*
X4550000Y3755000D02*
X4045000Y3250000D01*
X4550000Y3950000D02*
X4550000Y3755000D01*
X4837500Y-3250000D02*
X6137500Y-4550000D01*
X4045000Y-3250000D02*
X4837500Y-3250000D01*
X4552428Y3950000D02*
X4554225Y3948203D01*
X4550000Y3950000D02*
X4552428Y3950000D01*
X4718522Y4112500D02*
X4554225Y3948203D01*
X5935703Y3948203D02*
X6100000Y4112500D01*
X4554225Y3948203D02*
X5935703Y3948203D01*
X6640002Y-1950000D02*
X6150000Y-1950000D01*
X7050000Y-1540002D02*
X6640002Y-1950000D01*
X7050000Y-550000D02*
X7050000Y-1540002D01*
X6137500Y362500D02*
X7050000Y-550000D01*
X6137500Y650000D02*
X6137500Y362500D01*
X4550000Y-3755000D02*
X4045000Y-3250000D01*
X4550000Y-3900000D02*
X4550000Y-3755000D01*
X3550000Y3250000D02*
X3305010Y3494990D01*
X4045000Y3250000D02*
X3550000Y3250000D01*
X3044990Y3494990D02*
X3000000Y3450000D01*
X3305010Y3494990D02*
X3044990Y3494990D01*
X3200000Y3150000D02*
X3274999Y3075001D01*
X3200000Y3250000D02*
X3200000Y3150000D01*
D19*
X5145001Y-2200001D02*
X4895002Y-2450000D01*
X4895002Y-2450000D02*
X4045000Y-2450000D01*
X5270000Y-2900000D02*
X6150000Y-2900000D01*
X5145001Y-2775001D02*
X5270000Y-2900000D01*
X5145001Y-2200001D02*
X5145001Y-2775001D01*
X6137500Y-2912500D02*
X6150000Y-2900000D01*
X6212500Y-2900000D02*
X7862500Y-4550000D01*
X6150000Y-2900000D02*
X6212500Y-2900000D01*
X5735002Y-1000000D02*
X6150000Y-1000000D01*
X5450001Y-1285001D02*
X5735002Y-1000000D01*
X5364999Y-1285001D02*
X5450001Y-1285001D01*
X5145001Y-1504999D02*
X5364999Y-1285001D01*
X5145001Y-2200001D02*
X5145001Y-1504999D01*
X12501990Y-4585002D02*
X13000000Y-4086992D01*
X13000000Y-4086992D02*
X13000000Y-3810000D01*
X7810002Y-4585002D02*
X12501990Y-4585002D01*
X7775000Y-4550000D02*
X7810002Y-4585002D01*
X3194998Y2450000D02*
X4045000Y2450000D01*
X2944999Y2200001D02*
X3194998Y2450000D01*
X2944999Y1244999D02*
X2944999Y2200001D01*
X1774998Y74998D02*
X2944999Y1244999D01*
X1774998Y-1804996D02*
X1774998Y74998D01*
X2160001Y-2189999D02*
X1774998Y-1804996D01*
X2936001Y-2189999D02*
X2160001Y-2189999D01*
X3196002Y-2450000D02*
X2936001Y-2189999D01*
X4045000Y-2450000D02*
X3196002Y-2450000D01*
D18*
X7862500Y650000D02*
X7800000Y650000D01*
D19*
X7550000Y875000D02*
X7775000Y650000D01*
X7350000Y1075000D02*
X7775000Y650000D01*
X7350000Y2375000D02*
X7350000Y1075000D01*
X8350000Y-1000000D02*
X9250001Y-1000000D01*
X9250001Y-1000000D02*
X12050000Y-3799999D01*
X7775000Y650000D02*
X8415000Y1290000D01*
X8415000Y1290000D02*
X8430000Y1290000D01*
X8112000Y-1000000D02*
X8350000Y-1000000D01*
X7745001Y-633001D02*
X8112000Y-1000000D01*
X7745001Y250001D02*
X7745001Y-633001D01*
X7515000Y480002D02*
X7745001Y250001D01*
X7515000Y860000D02*
X7515000Y480002D01*
D20*
X4960002Y-750000D02*
X4045000Y-750000D01*
X4960002Y250000D02*
X5070001Y140001D01*
X5070001Y-640001D02*
X4960002Y-750000D01*
X4045000Y250000D02*
X4960002Y250000D01*
X5070001Y140001D02*
X5070001Y-270001D01*
X5070001Y-270001D02*
X5070001Y-640001D01*
X3129998Y-250000D02*
X4045000Y-250000D01*
X3129998Y-250000D02*
X3019999Y-140001D01*
X3019999Y-140001D02*
X3019999Y640001D01*
X3019999Y640001D02*
X3129998Y750000D01*
X3129998Y750000D02*
X4045000Y750000D01*
X2922304Y-457694D02*
X2893081Y-457694D01*
X3129998Y-250000D02*
X2922304Y-457694D01*
X2925543Y-1555543D02*
X2409444Y-1555543D01*
X4045000Y-1750000D02*
X3120000Y-1750000D01*
X3120000Y-1750000D02*
X2925543Y-1555543D01*
X5062500Y1250000D02*
X6100000Y2287500D01*
X4045000Y1250000D02*
X5062500Y1250000D01*
X14000000Y-2070000D02*
X14000000Y-1270000D01*
X13240000Y-2830000D02*
X14000000Y-2070000D01*
X11800000Y-2830000D02*
X13240000Y-2830000D01*
X10850000Y-1880000D02*
X11800000Y-2830000D01*
X10850000Y-1700000D02*
X10850000Y-1880000D01*
X10850000Y-1700000D02*
X9365000Y-215000D01*
X9365000Y-215000D02*
X9365000Y-1586D01*
X12170000Y1270000D02*
X10880269Y-19731D01*
X13000000Y1270000D02*
X12170000Y1270000D01*
X12920000Y1350000D02*
X13000000Y1270000D01*
X13955998Y1270000D02*
X14000000Y1270000D01*
X11055997Y4170001D02*
X13955998Y1270000D01*
X8325999Y4170001D02*
X11055997Y4170001D01*
X8180998Y4025000D02*
X8325999Y4170001D01*
X7400000Y4025000D02*
X8180998Y4025000D01*
X14227922Y5151094D02*
X14447165Y5084900D01*
X14649370Y4977386D01*
X14826847Y4832639D01*
X14906823Y4735964D01*
X14229000Y4735000D01*
X14154000Y4660000D01*
X14154000Y3964000D01*
X14174000Y3964000D01*
X14174000Y3656000D01*
X14154000Y3656000D01*
X14154000Y2960000D01*
X14229000Y2885000D01*
X15175000Y2883655D01*
X15175000Y2196451D01*
X13595233Y2196451D01*
X12907911Y2883773D01*
X13771000Y2885000D01*
X13846000Y2960000D01*
X13846000Y3656000D01*
X12525000Y3656000D01*
X12450000Y3581000D01*
X12449126Y3342558D01*
X11356684Y4435000D01*
X12448548Y4435000D01*
X12450000Y4039000D01*
X12525000Y3964000D01*
X13846000Y3964000D01*
X13846000Y4660000D01*
X13771000Y4735000D01*
X12750000Y4736452D01*
X12691190Y4730660D01*
X12634639Y4713505D01*
X12582522Y4685648D01*
X12536841Y4648159D01*
X12499352Y4602478D01*
X12471495Y4550361D01*
X12454340Y4493810D01*
X12448548Y4435000D01*
X11356684Y4435000D01*
X11352734Y4438949D01*
X11340208Y4454212D01*
X11279300Y4504198D01*
X11209811Y4541341D01*
X11134411Y4564213D01*
X11075644Y4570001D01*
X11075643Y4570001D01*
X11055997Y4571936D01*
X11036351Y4570001D01*
X8345634Y4570001D01*
X8325998Y4571935D01*
X8306362Y4570001D01*
X8306352Y4570001D01*
X8247585Y4564213D01*
X8172185Y4541341D01*
X8102696Y4504198D01*
X8094995Y4497878D01*
X8091941Y4503591D01*
X8029579Y4579579D01*
X7953591Y4641941D01*
X7866897Y4688280D01*
X7772828Y4716816D01*
X7675000Y4726451D01*
X7125000Y4726451D01*
X7027172Y4716816D01*
X6933103Y4688280D01*
X6846409Y4641941D01*
X6770421Y4579579D01*
X6708059Y4503591D01*
X6661720Y4416897D01*
X6633184Y4322828D01*
X6623549Y4225000D01*
X6623549Y3825000D01*
X6633184Y3727172D01*
X6661720Y3633103D01*
X6708059Y3546409D01*
X6770421Y3470421D01*
X6846409Y3408059D01*
X6933103Y3361720D01*
X7027172Y3333184D01*
X7125000Y3323549D01*
X7675000Y3323549D01*
X7772828Y3333184D01*
X7866897Y3361720D01*
X7953591Y3408059D01*
X8029579Y3470421D01*
X8091941Y3546409D01*
X8133949Y3625000D01*
X8161352Y3625000D01*
X8180998Y3623065D01*
X8200644Y3625000D01*
X8200645Y3625000D01*
X8259412Y3630788D01*
X8334812Y3653660D01*
X8404301Y3690803D01*
X8465209Y3740789D01*
X8477736Y3756053D01*
X8491684Y3770001D01*
X10890312Y3770001D01*
X12545252Y2115060D01*
X12536842Y2108158D01*
X12499353Y2062477D01*
X12471496Y2010360D01*
X12454341Y1953810D01*
X12448549Y1895000D01*
X12448549Y1670000D01*
X12189635Y1670000D01*
X12169999Y1671934D01*
X12150363Y1670000D01*
X12150353Y1670000D01*
X12091586Y1664212D01*
X12016186Y1641340D01*
X11946697Y1604197D01*
X11924095Y1585648D01*
X11901049Y1566735D01*
X11901047Y1566733D01*
X11885789Y1554211D01*
X11873267Y1538953D01*
X10864584Y530269D01*
X10826099Y530269D01*
X10719840Y509133D01*
X10619746Y467672D01*
X10529665Y407482D01*
X10453056Y330873D01*
X10392866Y240792D01*
X10351405Y140698D01*
X10330269Y34439D01*
X10330269Y-73901D01*
X10351405Y-180160D01*
X10392866Y-280254D01*
X10453056Y-370335D01*
X10529665Y-446944D01*
X10619746Y-507134D01*
X10719840Y-548595D01*
X10826099Y-569731D01*
X10934439Y-569731D01*
X11040698Y-548595D01*
X11140792Y-507134D01*
X11230873Y-446944D01*
X11307482Y-370335D01*
X11367672Y-280254D01*
X11409133Y-180160D01*
X11430269Y-73901D01*
X11430269Y-35416D01*
X12335686Y870000D01*
X12448549Y870000D01*
X12448549Y645000D01*
X12454341Y586190D01*
X12471496Y529640D01*
X12499353Y477523D01*
X12536842Y431842D01*
X12582523Y394353D01*
X12634640Y366496D01*
X12691190Y349341D01*
X12750000Y343549D01*
X15175000Y343549D01*
X15175001Y-343549D01*
X12750000Y-343549D01*
X12691190Y-349341D01*
X12634640Y-366496D01*
X12582523Y-394353D01*
X12536842Y-431842D01*
X12499353Y-477523D01*
X12471496Y-529640D01*
X12454341Y-586190D01*
X12448549Y-645000D01*
X12448549Y-1895000D01*
X12454341Y-1953810D01*
X12471496Y-2010360D01*
X12499353Y-2062477D01*
X12536842Y-2108158D01*
X12582523Y-2145647D01*
X12634640Y-2173504D01*
X12691190Y-2190659D01*
X12750000Y-2196451D01*
X13307864Y-2196451D01*
X13074315Y-2430000D01*
X11965686Y-2430000D01*
X11381726Y-1846041D01*
X11400000Y-1754170D01*
X11400000Y-1645830D01*
X11378864Y-1539571D01*
X11337403Y-1439477D01*
X11277213Y-1349396D01*
X11200604Y-1272787D01*
X11110523Y-1212597D01*
X11010429Y-1171136D01*
X10904170Y-1150000D01*
X10865686Y-1150000D01*
X9889130Y-173444D01*
X9893864Y-162015D01*
X9915000Y-55756D01*
X9915000Y52584D01*
X9893864Y158843D01*
X9852403Y258937D01*
X9792213Y349018D01*
X9715604Y425627D01*
X9625523Y485817D01*
X9525429Y527278D01*
X9419170Y548414D01*
X9310830Y548414D01*
X9204571Y527278D01*
X9104477Y485817D01*
X9014396Y425627D01*
X8937787Y349018D01*
X8877597Y258937D01*
X8836136Y158843D01*
X8815000Y52584D01*
X8815000Y-55756D01*
X8836136Y-162015D01*
X8877597Y-262109D01*
X8937787Y-352190D01*
X8976316Y-390719D01*
X8938810Y-379341D01*
X8880000Y-373549D01*
X8220001Y-373549D01*
X8220001Y226669D01*
X8222299Y250001D01*
X8213128Y343117D01*
X8205265Y369038D01*
X8226377Y408536D01*
X8235560Y438810D01*
X8549807Y753056D01*
X8590429Y761136D01*
X8690523Y802597D01*
X8780604Y862787D01*
X8857213Y939396D01*
X8917403Y1029477D01*
X8958864Y1129571D01*
X8980000Y1235830D01*
X8980000Y1344170D01*
X8958864Y1450429D01*
X8917403Y1550523D01*
X8857213Y1640604D01*
X8780604Y1717213D01*
X8690523Y1777403D01*
X8590429Y1818864D01*
X8484170Y1840000D01*
X8375830Y1840000D01*
X8269571Y1818864D01*
X8169477Y1777403D01*
X8079396Y1717213D01*
X8002787Y1640604D01*
X7964875Y1583864D01*
X7941464Y1596377D01*
X7842705Y1626335D01*
X7825000Y1628079D01*
X7825000Y1699010D01*
X7866897Y1711720D01*
X7953591Y1758059D01*
X8029579Y1820421D01*
X8091941Y1896409D01*
X8138280Y1983103D01*
X8166816Y2077172D01*
X8176451Y2175000D01*
X8176451Y2575000D01*
X8166816Y2672828D01*
X8138280Y2766897D01*
X8091941Y2853591D01*
X8029579Y2929579D01*
X7953591Y2991941D01*
X7866897Y3038280D01*
X7772828Y3066816D01*
X7675000Y3076451D01*
X7125000Y3076451D01*
X7027172Y3066816D01*
X6933103Y3038280D01*
X6846409Y2991941D01*
X6770421Y2929579D01*
X6708059Y2853591D01*
X6661720Y2766897D01*
X6633184Y2672828D01*
X6623549Y2575000D01*
X6623549Y2175000D01*
X6633184Y2077172D01*
X6661720Y1983103D01*
X6708059Y1896409D01*
X6770421Y1820421D01*
X6846409Y1758059D01*
X6875000Y1742777D01*
X6875001Y1430176D01*
X6852272Y1402481D01*
X6803623Y1311464D01*
X6773665Y1212705D01*
X6763549Y1110000D01*
X6763549Y610000D01*
X6773665Y507295D01*
X6803623Y408536D01*
X6852272Y317519D01*
X6917743Y237743D01*
X6997519Y172272D01*
X7088536Y123623D01*
X7187295Y93665D01*
X7234207Y89044D01*
X7270001Y53250D01*
X7270002Y-609659D01*
X7267703Y-633001D01*
X7276874Y-726117D01*
X7285463Y-754429D01*
X7304036Y-815655D01*
X7348143Y-898174D01*
X7407501Y-970502D01*
X7425630Y-985380D01*
X7518549Y-1078299D01*
X7518549Y-1325000D01*
X7524341Y-1383810D01*
X7541496Y-1440360D01*
X7569353Y-1492477D01*
X7606842Y-1538158D01*
X7652523Y-1575647D01*
X7704640Y-1603504D01*
X7761190Y-1620659D01*
X7820000Y-1626451D01*
X8880000Y-1626451D01*
X8938810Y-1620659D01*
X8995360Y-1603504D01*
X9047477Y-1575647D01*
X9093158Y-1538158D01*
X9103638Y-1525388D01*
X11350000Y-3771751D01*
X11350000Y-3868943D01*
X11376901Y-4004181D01*
X11420733Y-4110002D01*
X8489855Y-4110002D01*
X8486377Y-4098536D01*
X8437728Y-4007519D01*
X8372257Y-3927743D01*
X8292481Y-3862272D01*
X8201464Y-3813623D01*
X8102705Y-3783665D01*
X8000000Y-3773549D01*
X7757800Y-3773549D01*
X6981451Y-2997201D01*
X6981451Y-2575000D01*
X7518549Y-2575000D01*
X7518549Y-3225000D01*
X7524341Y-3283810D01*
X7541496Y-3340360D01*
X7569353Y-3392477D01*
X7606842Y-3438158D01*
X7652523Y-3475647D01*
X7704640Y-3503504D01*
X7761190Y-3520659D01*
X7820000Y-3526451D01*
X8880000Y-3526451D01*
X8938810Y-3520659D01*
X8995360Y-3503504D01*
X9047477Y-3475647D01*
X9093158Y-3438158D01*
X9130647Y-3392477D01*
X9158504Y-3340360D01*
X9175659Y-3283810D01*
X9181451Y-3225000D01*
X9181451Y-2575000D01*
X9175659Y-2516190D01*
X9158504Y-2459640D01*
X9130647Y-2407523D01*
X9093158Y-2361842D01*
X9047477Y-2324353D01*
X8995360Y-2296496D01*
X8938810Y-2279341D01*
X8880000Y-2273549D01*
X7820000Y-2273549D01*
X7761190Y-2279341D01*
X7704640Y-2296496D01*
X7652523Y-2324353D01*
X7606842Y-2361842D01*
X7569353Y-2407523D01*
X7541496Y-2459640D01*
X7524341Y-2516190D01*
X7518549Y-2575000D01*
X6981451Y-2575000D01*
X6975659Y-2516190D01*
X6958504Y-2459640D01*
X6939989Y-2425001D01*
X6958505Y-2390361D01*
X6975660Y-2333810D01*
X6981452Y-2275000D01*
X6980000Y-2179000D01*
X6905000Y-2104000D01*
X6304000Y-2104000D01*
X6304000Y-2124000D01*
X5996000Y-2124000D01*
X5996000Y-2104000D01*
X5976000Y-2104000D01*
X5976000Y-1796000D01*
X5996000Y-1796000D01*
X5996000Y-1776000D01*
X6304000Y-1776000D01*
X6304000Y-1796000D01*
X6905000Y-1796000D01*
X6980000Y-1721000D01*
X6981452Y-1625000D01*
X6975660Y-1566190D01*
X6958505Y-1509639D01*
X6939989Y-1474999D01*
X6958504Y-1440360D01*
X6975659Y-1383810D01*
X6981451Y-1325000D01*
X6981451Y-675000D01*
X6975659Y-616190D01*
X6958504Y-559640D01*
X6930647Y-507523D01*
X6893158Y-461842D01*
X6847477Y-424353D01*
X6795360Y-396496D01*
X6738810Y-379341D01*
X6680000Y-373549D01*
X5620079Y-373549D01*
X5577213Y-309396D01*
X5500604Y-232787D01*
X5470001Y-212339D01*
X5470001Y87980D01*
X5515000Y83548D01*
X5736000Y85000D01*
X5811000Y160000D01*
X5811000Y706000D01*
X6119000Y706000D01*
X6119000Y160000D01*
X6194000Y85000D01*
X6415000Y83548D01*
X6473810Y89340D01*
X6530361Y106495D01*
X6582478Y134352D01*
X6628159Y171841D01*
X6665648Y217522D01*
X6693505Y269639D01*
X6710660Y326190D01*
X6716452Y385000D01*
X6715000Y631000D01*
X6640000Y706000D01*
X6119000Y706000D01*
X5811000Y706000D01*
X5290000Y706000D01*
X5215000Y631000D01*
X5214572Y558537D01*
X5183305Y584197D01*
X5113816Y621340D01*
X5071451Y634191D01*
X5071451Y848947D01*
X5082146Y850000D01*
X5082147Y850000D01*
X5140914Y855788D01*
X5216314Y878660D01*
X5285803Y915803D01*
X5346711Y965789D01*
X5359237Y981052D01*
X5392185Y1014000D01*
X5811000Y1014000D01*
X5811000Y1034000D01*
X6119000Y1034000D01*
X6119000Y1014000D01*
X6640000Y1014000D01*
X6715000Y1089000D01*
X6716452Y1335000D01*
X6710660Y1393810D01*
X6693505Y1450361D01*
X6665648Y1502478D01*
X6628159Y1548159D01*
X6582478Y1585648D01*
X6530361Y1613505D01*
X6473810Y1630660D01*
X6415000Y1636452D01*
X6194000Y1635000D01*
X6119002Y1560002D01*
X6119002Y1635000D01*
X6013185Y1635000D01*
X6051734Y1673549D01*
X6075000Y1673549D01*
X6172828Y1683184D01*
X6266897Y1711720D01*
X6353591Y1758059D01*
X6429579Y1820421D01*
X6491941Y1896409D01*
X6538280Y1983103D01*
X6566816Y2077172D01*
X6576451Y2175000D01*
X6576451Y2575000D01*
X6566816Y2672828D01*
X6538280Y2766897D01*
X6491941Y2853591D01*
X6429579Y2929579D01*
X6353591Y2991941D01*
X6266897Y3038280D01*
X6172828Y3066816D01*
X6075000Y3076451D01*
X5525000Y3076451D01*
X5427172Y3066816D01*
X5333103Y3038280D01*
X5246409Y2991941D01*
X5170421Y2929579D01*
X5108059Y2853591D01*
X5068532Y2779641D01*
X5065659Y2808810D01*
X5053164Y2849998D01*
X5065660Y2891190D01*
X5071452Y2950000D01*
X5070000Y3021000D01*
X4995000Y3096000D01*
X4199000Y3096000D01*
X4199000Y3076000D01*
X3891000Y3076000D01*
X3891000Y3096000D01*
X3871000Y3096000D01*
X3871000Y3404000D01*
X3891000Y3404000D01*
X3891000Y3424000D01*
X4199000Y3424000D01*
X4199000Y3404000D01*
X4995000Y3404000D01*
X5065355Y3474355D01*
X5074352Y3457522D01*
X5111841Y3411841D01*
X5157522Y3374352D01*
X5209639Y3346495D01*
X5266190Y3329340D01*
X5325000Y3323548D01*
X5571000Y3325000D01*
X5646000Y3400000D01*
X5646000Y3871000D01*
X5954000Y3871000D01*
X5954000Y3400000D01*
X6029000Y3325000D01*
X6275000Y3323548D01*
X6333810Y3329340D01*
X6390361Y3346495D01*
X6442478Y3374352D01*
X6488159Y3411841D01*
X6525648Y3457522D01*
X6553505Y3509639D01*
X6570660Y3566190D01*
X6576452Y3625000D01*
X6575000Y3796000D01*
X6500000Y3871000D01*
X5954000Y3871000D01*
X5646000Y3871000D01*
X5100000Y3871000D01*
X5025000Y3796000D01*
X5024276Y3710691D01*
X5020648Y3717478D01*
X4983159Y3763159D01*
X4937478Y3800648D01*
X4885361Y3828505D01*
X4828810Y3845660D01*
X4770000Y3851452D01*
X4329327Y3850162D01*
X4348393Y3873394D01*
X4422679Y4012372D01*
X4468424Y4163173D01*
X4483870Y4320000D01*
X4473529Y4425000D01*
X5023548Y4425000D01*
X5025000Y4254000D01*
X5100000Y4179000D01*
X5646000Y4179000D01*
X5646000Y4650000D01*
X5954000Y4650000D01*
X5954000Y4179000D01*
X6500000Y4179000D01*
X6575000Y4254000D01*
X6576452Y4425000D01*
X6570660Y4483810D01*
X6553505Y4540361D01*
X6525648Y4592478D01*
X6488159Y4638159D01*
X6442478Y4675648D01*
X6390361Y4703505D01*
X6333810Y4720660D01*
X6275000Y4726452D01*
X6029000Y4725000D01*
X5954000Y4650000D01*
X5646000Y4650000D01*
X5571000Y4725000D01*
X5325000Y4726452D01*
X5266190Y4720660D01*
X5209639Y4703505D01*
X5157522Y4675648D01*
X5111841Y4638159D01*
X5074352Y4592478D01*
X5046495Y4540361D01*
X5029340Y4483810D01*
X5023548Y4425000D01*
X4473529Y4425000D01*
X4468424Y4476827D01*
X4422679Y4627628D01*
X4348393Y4766606D01*
X4248422Y4888422D01*
X4126606Y4988393D01*
X3987628Y5062679D01*
X3836827Y5108424D01*
X3719293Y5120000D01*
X2540707Y5120000D01*
X2423173Y5108424D01*
X2272372Y5062679D01*
X2133394Y4988393D01*
X2011578Y4888422D01*
X1911607Y4766606D01*
X1837321Y4627628D01*
X1791576Y4476827D01*
X1776130Y4320000D01*
X1791576Y4163173D01*
X1837321Y4012372D01*
X1911607Y3873394D01*
X2011578Y3751578D01*
X2133394Y3651607D01*
X2272372Y3577321D01*
X2423173Y3531576D01*
X2540707Y3520000D01*
X3019162Y3520000D01*
X3020000Y3479000D01*
X3094998Y3404002D01*
X3020000Y3404002D01*
X3020000Y3353883D01*
X2998414Y3375469D01*
X2896048Y3443868D01*
X2782306Y3490981D01*
X2661557Y3515000D01*
X2538443Y3515000D01*
X2417694Y3490981D01*
X2303952Y3443868D01*
X2201586Y3375469D01*
X2114531Y3288414D01*
X2046132Y3186048D01*
X1999019Y3072306D01*
X1975000Y2951557D01*
X1975000Y2828443D01*
X1999019Y2707694D01*
X2046132Y2593952D01*
X2114531Y2491586D01*
X2201586Y2404531D01*
X2303952Y2336132D01*
X2417694Y2289019D01*
X2475339Y2277552D01*
X2467701Y2200001D01*
X2470000Y2176659D01*
X2469999Y1441750D01*
X1455627Y427377D01*
X1437498Y412499D01*
X1378140Y340171D01*
X1353362Y293814D01*
X1334033Y257652D01*
X1306871Y168114D01*
X1297700Y74998D01*
X1299999Y51656D01*
X1299998Y-1781663D01*
X1297700Y-1804996D01*
X1306871Y-1898112D01*
X1312354Y-1916187D01*
X1334032Y-1987649D01*
X1378139Y-2070169D01*
X1437497Y-2142497D01*
X1455632Y-2157380D01*
X1807621Y-2509370D01*
X1822500Y-2527500D01*
X1894828Y-2586858D01*
X1977347Y-2630965D01*
X2024834Y-2645370D01*
X1999019Y-2707694D01*
X1975000Y-2828443D01*
X1975000Y-2951557D01*
X1999019Y-3072306D01*
X2046132Y-3186048D01*
X2114531Y-3288414D01*
X2201586Y-3375469D01*
X2303952Y-3443868D01*
X2417694Y-3490981D01*
X2538443Y-3515000D01*
X2661557Y-3515000D01*
X2782306Y-3490981D01*
X2896048Y-3443868D01*
X2998414Y-3375469D01*
X3020000Y-3353883D01*
X3020000Y-3404002D01*
X3094998Y-3404002D01*
X3020000Y-3479000D01*
X3019162Y-3520000D01*
X2540707Y-3520000D01*
X2423173Y-3531576D01*
X2272372Y-3577321D01*
X2133394Y-3651607D01*
X2011578Y-3751578D01*
X1911607Y-3873394D01*
X1837321Y-4012372D01*
X1791576Y-4163173D01*
X1776130Y-4320000D01*
X1791576Y-4476827D01*
X1837321Y-4627628D01*
X1911607Y-4766606D01*
X2011578Y-4888422D01*
X2133394Y-4988393D01*
X2272372Y-5062679D01*
X2423173Y-5108424D01*
X2540707Y-5120000D01*
X3719293Y-5120000D01*
X3836827Y-5108424D01*
X3987628Y-5062679D01*
X4126606Y-4988393D01*
X4248422Y-4888422D01*
X4348393Y-4766606D01*
X4422679Y-4627628D01*
X4468424Y-4476827D01*
X4483870Y-4320000D01*
X4468424Y-4163173D01*
X4441678Y-4075000D01*
X5473548Y-4075000D01*
X5475000Y-4321000D01*
X5550000Y-4396000D01*
X6071000Y-4396000D01*
X6071000Y-3850000D01*
X5996000Y-3775000D01*
X5775000Y-3773548D01*
X5716190Y-3779340D01*
X5659639Y-3796495D01*
X5607522Y-3824352D01*
X5561841Y-3861841D01*
X5524352Y-3907522D01*
X5496495Y-3959639D01*
X5479340Y-4016190D01*
X5473548Y-4075000D01*
X4441678Y-4075000D01*
X4422679Y-4012372D01*
X4348393Y-3873394D01*
X4329327Y-3850162D01*
X4770000Y-3851452D01*
X4828810Y-3845660D01*
X4885361Y-3828505D01*
X4937478Y-3800648D01*
X4983159Y-3763159D01*
X5020648Y-3717478D01*
X5048505Y-3665361D01*
X5065660Y-3608810D01*
X5071452Y-3550000D01*
X5070000Y-3479000D01*
X4995002Y-3404002D01*
X5070000Y-3404002D01*
X5070000Y-3331694D01*
X5087346Y-3340966D01*
X5156044Y-3361805D01*
X5176883Y-3368127D01*
X5269999Y-3377298D01*
X5293331Y-3375000D01*
X5360011Y-3375000D01*
X5369353Y-3392477D01*
X5406842Y-3438158D01*
X5452523Y-3475647D01*
X5504640Y-3503504D01*
X5561190Y-3520659D01*
X5620000Y-3526451D01*
X6167201Y-3526451D01*
X6434875Y-3794125D01*
X6379000Y-3850000D01*
X6379000Y-4396000D01*
X6900000Y-4396000D01*
X6968375Y-4327625D01*
X7023549Y-4382800D01*
X7023549Y-4383861D01*
X7022836Y-4385195D01*
X7005764Y-4441473D01*
X7000000Y-4500000D01*
X7000000Y-5175000D01*
X6934990Y-5175000D01*
X6953505Y-5140361D01*
X6970660Y-5083810D01*
X6976452Y-5025000D01*
X6975000Y-4779000D01*
X6900000Y-4704000D01*
X6379000Y-4704000D01*
X6379000Y-4724000D01*
X6071000Y-4724000D01*
X6071000Y-4704000D01*
X5550000Y-4704000D01*
X5475000Y-4779000D01*
X5473548Y-5025000D01*
X5479340Y-5083810D01*
X5496495Y-5140361D01*
X5515010Y-5175000D01*
X-984104Y-5175000D01*
X-1227922Y-5151094D01*
X-1330909Y-5120000D01*
X-710707Y-5120000D01*
X-593173Y-5108424D01*
X-442372Y-5062679D01*
X-303394Y-4988393D01*
X-181578Y-4888422D01*
X-81607Y-4766606D01*
X-7321Y-4627628D01*
X38424Y-4476827D01*
X53870Y-4320000D01*
X38424Y-4163173D01*
X-7321Y-4012372D01*
X-81607Y-3873394D01*
X-181578Y-3751578D01*
X-303394Y-3651607D01*
X-442372Y-3577321D01*
X-593173Y-3531576D01*
X-710707Y-3520000D01*
X-1389293Y-3520000D01*
X-1506827Y-3531576D01*
X-1657628Y-3577321D01*
X-1796606Y-3651607D01*
X-1918422Y-3751578D01*
X-2018393Y-3873394D01*
X-2092679Y-4012372D01*
X-2138424Y-4163173D01*
X-2146529Y-4245469D01*
X-2149474Y-4235958D01*
X-2175000Y-3993085D01*
X-2175000Y3984104D01*
X-2151094Y4227922D01*
X-2146349Y4243637D01*
X-2138424Y4163173D01*
X-2092679Y4012372D01*
X-2018393Y3873394D01*
X-1918422Y3751578D01*
X-1796606Y3651607D01*
X-1657628Y3577321D01*
X-1506827Y3531576D01*
X-1389293Y3520000D01*
X-710707Y3520000D01*
X-593173Y3531576D01*
X-442372Y3577321D01*
X-303394Y3651607D01*
X-181578Y3751578D01*
X-81607Y3873394D01*
X-7321Y4012372D01*
X38424Y4163173D01*
X53870Y4320000D01*
X38424Y4476827D01*
X-7321Y4627628D01*
X-81607Y4766606D01*
X-181578Y4888422D01*
X-303394Y4988393D01*
X-442372Y5062679D01*
X-593173Y5108424D01*
X-710707Y5120000D01*
X-1331169Y5120000D01*
X-1235953Y5149474D01*
X-993085Y5175000D01*
X13984104Y5175000D01*
X14227922Y5151094D01*
G04 #@! TA.AperFunction,Conductor*
D21*
G36*
X14227922Y5151094D02*
G01*
X14447165Y5084900D01*
X14649370Y4977386D01*
X14826847Y4832639D01*
X14906823Y4735964D01*
X14229000Y4735000D01*
X14154000Y4660000D01*
X14154000Y3964000D01*
X14174000Y3964000D01*
X14174000Y3656000D01*
X14154000Y3656000D01*
X14154000Y2960000D01*
X14229000Y2885000D01*
X15175000Y2883655D01*
X15175000Y2196451D01*
X13595233Y2196451D01*
X12907911Y2883773D01*
X13771000Y2885000D01*
X13846000Y2960000D01*
X13846000Y3656000D01*
X12525000Y3656000D01*
X12450000Y3581000D01*
X12449126Y3342558D01*
X11356684Y4435000D01*
X12448548Y4435000D01*
X12450000Y4039000D01*
X12525000Y3964000D01*
X13846000Y3964000D01*
X13846000Y4660000D01*
X13771000Y4735000D01*
X12750000Y4736452D01*
X12691190Y4730660D01*
X12634639Y4713505D01*
X12582522Y4685648D01*
X12536841Y4648159D01*
X12499352Y4602478D01*
X12471495Y4550361D01*
X12454340Y4493810D01*
X12448548Y4435000D01*
X11356684Y4435000D01*
X11352734Y4438949D01*
X11340208Y4454212D01*
X11279300Y4504198D01*
X11209811Y4541341D01*
X11134411Y4564213D01*
X11075644Y4570001D01*
X11075643Y4570001D01*
X11055997Y4571936D01*
X11036351Y4570001D01*
X8345634Y4570001D01*
X8325998Y4571935D01*
X8306362Y4570001D01*
X8306352Y4570001D01*
X8247585Y4564213D01*
X8172185Y4541341D01*
X8102696Y4504198D01*
X8094995Y4497878D01*
X8091941Y4503591D01*
X8029579Y4579579D01*
X7953591Y4641941D01*
X7866897Y4688280D01*
X7772828Y4716816D01*
X7675000Y4726451D01*
X7125000Y4726451D01*
X7027172Y4716816D01*
X6933103Y4688280D01*
X6846409Y4641941D01*
X6770421Y4579579D01*
X6708059Y4503591D01*
X6661720Y4416897D01*
X6633184Y4322828D01*
X6623549Y4225000D01*
X6623549Y3825000D01*
X6633184Y3727172D01*
X6661720Y3633103D01*
X6708059Y3546409D01*
X6770421Y3470421D01*
X6846409Y3408059D01*
X6933103Y3361720D01*
X7027172Y3333184D01*
X7125000Y3323549D01*
X7675000Y3323549D01*
X7772828Y3333184D01*
X7866897Y3361720D01*
X7953591Y3408059D01*
X8029579Y3470421D01*
X8091941Y3546409D01*
X8133949Y3625000D01*
X8161352Y3625000D01*
X8180998Y3623065D01*
X8200644Y3625000D01*
X8200645Y3625000D01*
X8259412Y3630788D01*
X8334812Y3653660D01*
X8404301Y3690803D01*
X8465209Y3740789D01*
X8477736Y3756053D01*
X8491684Y3770001D01*
X10890312Y3770001D01*
X12545252Y2115060D01*
X12536842Y2108158D01*
X12499353Y2062477D01*
X12471496Y2010360D01*
X12454341Y1953810D01*
X12448549Y1895000D01*
X12448549Y1670000D01*
X12189635Y1670000D01*
X12169999Y1671934D01*
X12150363Y1670000D01*
X12150353Y1670000D01*
X12091586Y1664212D01*
X12016186Y1641340D01*
X11946697Y1604197D01*
X11924095Y1585648D01*
X11901049Y1566735D01*
X11901047Y1566733D01*
X11885789Y1554211D01*
X11873267Y1538953D01*
X10864584Y530269D01*
X10826099Y530269D01*
X10719840Y509133D01*
X10619746Y467672D01*
X10529665Y407482D01*
X10453056Y330873D01*
X10392866Y240792D01*
X10351405Y140698D01*
X10330269Y34439D01*
X10330269Y-73901D01*
X10351405Y-180160D01*
X10392866Y-280254D01*
X10453056Y-370335D01*
X10529665Y-446944D01*
X10619746Y-507134D01*
X10719840Y-548595D01*
X10826099Y-569731D01*
X10934439Y-569731D01*
X11040698Y-548595D01*
X11140792Y-507134D01*
X11230873Y-446944D01*
X11307482Y-370335D01*
X11367672Y-280254D01*
X11409133Y-180160D01*
X11430269Y-73901D01*
X11430269Y-35416D01*
X12335686Y870000D01*
X12448549Y870000D01*
X12448549Y645000D01*
X12454341Y586190D01*
X12471496Y529640D01*
X12499353Y477523D01*
X12536842Y431842D01*
X12582523Y394353D01*
X12634640Y366496D01*
X12691190Y349341D01*
X12750000Y343549D01*
X15175000Y343549D01*
X15175001Y-343549D01*
X12750000Y-343549D01*
X12691190Y-349341D01*
X12634640Y-366496D01*
X12582523Y-394353D01*
X12536842Y-431842D01*
X12499353Y-477523D01*
X12471496Y-529640D01*
X12454341Y-586190D01*
X12448549Y-645000D01*
X12448549Y-1895000D01*
X12454341Y-1953810D01*
X12471496Y-2010360D01*
X12499353Y-2062477D01*
X12536842Y-2108158D01*
X12582523Y-2145647D01*
X12634640Y-2173504D01*
X12691190Y-2190659D01*
X12750000Y-2196451D01*
X13307864Y-2196451D01*
X13074315Y-2430000D01*
X11965686Y-2430000D01*
X11381726Y-1846041D01*
X11400000Y-1754170D01*
X11400000Y-1645830D01*
X11378864Y-1539571D01*
X11337403Y-1439477D01*
X11277213Y-1349396D01*
X11200604Y-1272787D01*
X11110523Y-1212597D01*
X11010429Y-1171136D01*
X10904170Y-1150000D01*
X10865686Y-1150000D01*
X9889130Y-173444D01*
X9893864Y-162015D01*
X9915000Y-55756D01*
X9915000Y52584D01*
X9893864Y158843D01*
X9852403Y258937D01*
X9792213Y349018D01*
X9715604Y425627D01*
X9625523Y485817D01*
X9525429Y527278D01*
X9419170Y548414D01*
X9310830Y548414D01*
X9204571Y527278D01*
X9104477Y485817D01*
X9014396Y425627D01*
X8937787Y349018D01*
X8877597Y258937D01*
X8836136Y158843D01*
X8815000Y52584D01*
X8815000Y-55756D01*
X8836136Y-162015D01*
X8877597Y-262109D01*
X8937787Y-352190D01*
X8976316Y-390719D01*
X8938810Y-379341D01*
X8880000Y-373549D01*
X8220001Y-373549D01*
X8220001Y226669D01*
X8222299Y250001D01*
X8213128Y343117D01*
X8205265Y369038D01*
X8226377Y408536D01*
X8235560Y438810D01*
X8549807Y753056D01*
X8590429Y761136D01*
X8690523Y802597D01*
X8780604Y862787D01*
X8857213Y939396D01*
X8917403Y1029477D01*
X8958864Y1129571D01*
X8980000Y1235830D01*
X8980000Y1344170D01*
X8958864Y1450429D01*
X8917403Y1550523D01*
X8857213Y1640604D01*
X8780604Y1717213D01*
X8690523Y1777403D01*
X8590429Y1818864D01*
X8484170Y1840000D01*
X8375830Y1840000D01*
X8269571Y1818864D01*
X8169477Y1777403D01*
X8079396Y1717213D01*
X8002787Y1640604D01*
X7964875Y1583864D01*
X7941464Y1596377D01*
X7842705Y1626335D01*
X7825000Y1628079D01*
X7825000Y1699010D01*
X7866897Y1711720D01*
X7953591Y1758059D01*
X8029579Y1820421D01*
X8091941Y1896409D01*
X8138280Y1983103D01*
X8166816Y2077172D01*
X8176451Y2175000D01*
X8176451Y2575000D01*
X8166816Y2672828D01*
X8138280Y2766897D01*
X8091941Y2853591D01*
X8029579Y2929579D01*
X7953591Y2991941D01*
X7866897Y3038280D01*
X7772828Y3066816D01*
X7675000Y3076451D01*
X7125000Y3076451D01*
X7027172Y3066816D01*
X6933103Y3038280D01*
X6846409Y2991941D01*
X6770421Y2929579D01*
X6708059Y2853591D01*
X6661720Y2766897D01*
X6633184Y2672828D01*
X6623549Y2575000D01*
X6623549Y2175000D01*
X6633184Y2077172D01*
X6661720Y1983103D01*
X6708059Y1896409D01*
X6770421Y1820421D01*
X6846409Y1758059D01*
X6875000Y1742777D01*
X6875001Y1430176D01*
X6852272Y1402481D01*
X6803623Y1311464D01*
X6773665Y1212705D01*
X6763549Y1110000D01*
X6763549Y610000D01*
X6773665Y507295D01*
X6803623Y408536D01*
X6852272Y317519D01*
X6917743Y237743D01*
X6997519Y172272D01*
X7088536Y123623D01*
X7187295Y93665D01*
X7234207Y89044D01*
X7270001Y53250D01*
X7270002Y-609659D01*
X7267703Y-633001D01*
X7276874Y-726117D01*
X7285463Y-754429D01*
X7304036Y-815655D01*
X7348143Y-898174D01*
X7407501Y-970502D01*
X7425630Y-985380D01*
X7518549Y-1078299D01*
X7518549Y-1325000D01*
X7524341Y-1383810D01*
X7541496Y-1440360D01*
X7569353Y-1492477D01*
X7606842Y-1538158D01*
X7652523Y-1575647D01*
X7704640Y-1603504D01*
X7761190Y-1620659D01*
X7820000Y-1626451D01*
X8880000Y-1626451D01*
X8938810Y-1620659D01*
X8995360Y-1603504D01*
X9047477Y-1575647D01*
X9093158Y-1538158D01*
X9103638Y-1525388D01*
X11350000Y-3771751D01*
X11350000Y-3868943D01*
X11376901Y-4004181D01*
X11420733Y-4110002D01*
X8489855Y-4110002D01*
X8486377Y-4098536D01*
X8437728Y-4007519D01*
X8372257Y-3927743D01*
X8292481Y-3862272D01*
X8201464Y-3813623D01*
X8102705Y-3783665D01*
X8000000Y-3773549D01*
X7757800Y-3773549D01*
X6981451Y-2997201D01*
X6981451Y-2575000D01*
X7518549Y-2575000D01*
X7518549Y-3225000D01*
X7524341Y-3283810D01*
X7541496Y-3340360D01*
X7569353Y-3392477D01*
X7606842Y-3438158D01*
X7652523Y-3475647D01*
X7704640Y-3503504D01*
X7761190Y-3520659D01*
X7820000Y-3526451D01*
X8880000Y-3526451D01*
X8938810Y-3520659D01*
X8995360Y-3503504D01*
X9047477Y-3475647D01*
X9093158Y-3438158D01*
X9130647Y-3392477D01*
X9158504Y-3340360D01*
X9175659Y-3283810D01*
X9181451Y-3225000D01*
X9181451Y-2575000D01*
X9175659Y-2516190D01*
X9158504Y-2459640D01*
X9130647Y-2407523D01*
X9093158Y-2361842D01*
X9047477Y-2324353D01*
X8995360Y-2296496D01*
X8938810Y-2279341D01*
X8880000Y-2273549D01*
X7820000Y-2273549D01*
X7761190Y-2279341D01*
X7704640Y-2296496D01*
X7652523Y-2324353D01*
X7606842Y-2361842D01*
X7569353Y-2407523D01*
X7541496Y-2459640D01*
X7524341Y-2516190D01*
X7518549Y-2575000D01*
X6981451Y-2575000D01*
X6975659Y-2516190D01*
X6958504Y-2459640D01*
X6939989Y-2425001D01*
X6958505Y-2390361D01*
X6975660Y-2333810D01*
X6981452Y-2275000D01*
X6980000Y-2179000D01*
X6905000Y-2104000D01*
X6304000Y-2104000D01*
X6304000Y-2124000D01*
X5996000Y-2124000D01*
X5996000Y-2104000D01*
X5976000Y-2104000D01*
X5976000Y-1796000D01*
X5996000Y-1796000D01*
X5996000Y-1776000D01*
X6304000Y-1776000D01*
X6304000Y-1796000D01*
X6905000Y-1796000D01*
X6980000Y-1721000D01*
X6981452Y-1625000D01*
X6975660Y-1566190D01*
X6958505Y-1509639D01*
X6939989Y-1474999D01*
X6958504Y-1440360D01*
X6975659Y-1383810D01*
X6981451Y-1325000D01*
X6981451Y-675000D01*
X6975659Y-616190D01*
X6958504Y-559640D01*
X6930647Y-507523D01*
X6893158Y-461842D01*
X6847477Y-424353D01*
X6795360Y-396496D01*
X6738810Y-379341D01*
X6680000Y-373549D01*
X5620079Y-373549D01*
X5577213Y-309396D01*
X5500604Y-232787D01*
X5470001Y-212339D01*
X5470001Y87980D01*
X5515000Y83548D01*
X5736000Y85000D01*
X5811000Y160000D01*
X5811000Y706000D01*
X6119000Y706000D01*
X6119000Y160000D01*
X6194000Y85000D01*
X6415000Y83548D01*
X6473810Y89340D01*
X6530361Y106495D01*
X6582478Y134352D01*
X6628159Y171841D01*
X6665648Y217522D01*
X6693505Y269639D01*
X6710660Y326190D01*
X6716452Y385000D01*
X6715000Y631000D01*
X6640000Y706000D01*
X6119000Y706000D01*
X5811000Y706000D01*
X5290000Y706000D01*
X5215000Y631000D01*
X5214572Y558537D01*
X5183305Y584197D01*
X5113816Y621340D01*
X5071451Y634191D01*
X5071451Y848947D01*
X5082146Y850000D01*
X5082147Y850000D01*
X5140914Y855788D01*
X5216314Y878660D01*
X5285803Y915803D01*
X5346711Y965789D01*
X5359237Y981052D01*
X5392185Y1014000D01*
X5811000Y1014000D01*
X5811000Y1034000D01*
X6119000Y1034000D01*
X6119000Y1014000D01*
X6640000Y1014000D01*
X6715000Y1089000D01*
X6716452Y1335000D01*
X6710660Y1393810D01*
X6693505Y1450361D01*
X6665648Y1502478D01*
X6628159Y1548159D01*
X6582478Y1585648D01*
X6530361Y1613505D01*
X6473810Y1630660D01*
X6415000Y1636452D01*
X6194000Y1635000D01*
X6119002Y1560002D01*
X6119002Y1635000D01*
X6013185Y1635000D01*
X6051734Y1673549D01*
X6075000Y1673549D01*
X6172828Y1683184D01*
X6266897Y1711720D01*
X6353591Y1758059D01*
X6429579Y1820421D01*
X6491941Y1896409D01*
X6538280Y1983103D01*
X6566816Y2077172D01*
X6576451Y2175000D01*
X6576451Y2575000D01*
X6566816Y2672828D01*
X6538280Y2766897D01*
X6491941Y2853591D01*
X6429579Y2929579D01*
X6353591Y2991941D01*
X6266897Y3038280D01*
X6172828Y3066816D01*
X6075000Y3076451D01*
X5525000Y3076451D01*
X5427172Y3066816D01*
X5333103Y3038280D01*
X5246409Y2991941D01*
X5170421Y2929579D01*
X5108059Y2853591D01*
X5068532Y2779641D01*
X5065659Y2808810D01*
X5053164Y2849998D01*
X5065660Y2891190D01*
X5071452Y2950000D01*
X5070000Y3021000D01*
X4995000Y3096000D01*
X4199000Y3096000D01*
X4199000Y3076000D01*
X3891000Y3076000D01*
X3891000Y3096000D01*
X3871000Y3096000D01*
X3871000Y3404000D01*
X3891000Y3404000D01*
X3891000Y3424000D01*
X4199000Y3424000D01*
X4199000Y3404000D01*
X4995000Y3404000D01*
X5065355Y3474355D01*
X5074352Y3457522D01*
X5111841Y3411841D01*
X5157522Y3374352D01*
X5209639Y3346495D01*
X5266190Y3329340D01*
X5325000Y3323548D01*
X5571000Y3325000D01*
X5646000Y3400000D01*
X5646000Y3871000D01*
X5954000Y3871000D01*
X5954000Y3400000D01*
X6029000Y3325000D01*
X6275000Y3323548D01*
X6333810Y3329340D01*
X6390361Y3346495D01*
X6442478Y3374352D01*
X6488159Y3411841D01*
X6525648Y3457522D01*
X6553505Y3509639D01*
X6570660Y3566190D01*
X6576452Y3625000D01*
X6575000Y3796000D01*
X6500000Y3871000D01*
X5954000Y3871000D01*
X5646000Y3871000D01*
X5100000Y3871000D01*
X5025000Y3796000D01*
X5024276Y3710691D01*
X5020648Y3717478D01*
X4983159Y3763159D01*
X4937478Y3800648D01*
X4885361Y3828505D01*
X4828810Y3845660D01*
X4770000Y3851452D01*
X4329327Y3850162D01*
X4348393Y3873394D01*
X4422679Y4012372D01*
X4468424Y4163173D01*
X4483870Y4320000D01*
X4473529Y4425000D01*
X5023548Y4425000D01*
X5025000Y4254000D01*
X5100000Y4179000D01*
X5646000Y4179000D01*
X5646000Y4650000D01*
X5954000Y4650000D01*
X5954000Y4179000D01*
X6500000Y4179000D01*
X6575000Y4254000D01*
X6576452Y4425000D01*
X6570660Y4483810D01*
X6553505Y4540361D01*
X6525648Y4592478D01*
X6488159Y4638159D01*
X6442478Y4675648D01*
X6390361Y4703505D01*
X6333810Y4720660D01*
X6275000Y4726452D01*
X6029000Y4725000D01*
X5954000Y4650000D01*
X5646000Y4650000D01*
X5571000Y4725000D01*
X5325000Y4726452D01*
X5266190Y4720660D01*
X5209639Y4703505D01*
X5157522Y4675648D01*
X5111841Y4638159D01*
X5074352Y4592478D01*
X5046495Y4540361D01*
X5029340Y4483810D01*
X5023548Y4425000D01*
X4473529Y4425000D01*
X4468424Y4476827D01*
X4422679Y4627628D01*
X4348393Y4766606D01*
X4248422Y4888422D01*
X4126606Y4988393D01*
X3987628Y5062679D01*
X3836827Y5108424D01*
X3719293Y5120000D01*
X2540707Y5120000D01*
X2423173Y5108424D01*
X2272372Y5062679D01*
X2133394Y4988393D01*
X2011578Y4888422D01*
X1911607Y4766606D01*
X1837321Y4627628D01*
X1791576Y4476827D01*
X1776130Y4320000D01*
X1791576Y4163173D01*
X1837321Y4012372D01*
X1911607Y3873394D01*
X2011578Y3751578D01*
X2133394Y3651607D01*
X2272372Y3577321D01*
X2423173Y3531576D01*
X2540707Y3520000D01*
X3019162Y3520000D01*
X3020000Y3479000D01*
X3094998Y3404002D01*
X3020000Y3404002D01*
X3020000Y3353883D01*
X2998414Y3375469D01*
X2896048Y3443868D01*
X2782306Y3490981D01*
X2661557Y3515000D01*
X2538443Y3515000D01*
X2417694Y3490981D01*
X2303952Y3443868D01*
X2201586Y3375469D01*
X2114531Y3288414D01*
X2046132Y3186048D01*
X1999019Y3072306D01*
X1975000Y2951557D01*
X1975000Y2828443D01*
X1999019Y2707694D01*
X2046132Y2593952D01*
X2114531Y2491586D01*
X2201586Y2404531D01*
X2303952Y2336132D01*
X2417694Y2289019D01*
X2475339Y2277552D01*
X2467701Y2200001D01*
X2470000Y2176659D01*
X2469999Y1441750D01*
X1455627Y427377D01*
X1437498Y412499D01*
X1378140Y340171D01*
X1353362Y293814D01*
X1334033Y257652D01*
X1306871Y168114D01*
X1297700Y74998D01*
X1299999Y51656D01*
X1299998Y-1781663D01*
X1297700Y-1804996D01*
X1306871Y-1898112D01*
X1312354Y-1916187D01*
X1334032Y-1987649D01*
X1378139Y-2070169D01*
X1437497Y-2142497D01*
X1455632Y-2157380D01*
X1807621Y-2509370D01*
X1822500Y-2527500D01*
X1894828Y-2586858D01*
X1977347Y-2630965D01*
X2024834Y-2645370D01*
X1999019Y-2707694D01*
X1975000Y-2828443D01*
X1975000Y-2951557D01*
X1999019Y-3072306D01*
X2046132Y-3186048D01*
X2114531Y-3288414D01*
X2201586Y-3375469D01*
X2303952Y-3443868D01*
X2417694Y-3490981D01*
X2538443Y-3515000D01*
X2661557Y-3515000D01*
X2782306Y-3490981D01*
X2896048Y-3443868D01*
X2998414Y-3375469D01*
X3020000Y-3353883D01*
X3020000Y-3404002D01*
X3094998Y-3404002D01*
X3020000Y-3479000D01*
X3019162Y-3520000D01*
X2540707Y-3520000D01*
X2423173Y-3531576D01*
X2272372Y-3577321D01*
X2133394Y-3651607D01*
X2011578Y-3751578D01*
X1911607Y-3873394D01*
X1837321Y-4012372D01*
X1791576Y-4163173D01*
X1776130Y-4320000D01*
X1791576Y-4476827D01*
X1837321Y-4627628D01*
X1911607Y-4766606D01*
X2011578Y-4888422D01*
X2133394Y-4988393D01*
X2272372Y-5062679D01*
X2423173Y-5108424D01*
X2540707Y-5120000D01*
X3719293Y-5120000D01*
X3836827Y-5108424D01*
X3987628Y-5062679D01*
X4126606Y-4988393D01*
X4248422Y-4888422D01*
X4348393Y-4766606D01*
X4422679Y-4627628D01*
X4468424Y-4476827D01*
X4483870Y-4320000D01*
X4468424Y-4163173D01*
X4441678Y-4075000D01*
X5473548Y-4075000D01*
X5475000Y-4321000D01*
X5550000Y-4396000D01*
X6071000Y-4396000D01*
X6071000Y-3850000D01*
X5996000Y-3775000D01*
X5775000Y-3773548D01*
X5716190Y-3779340D01*
X5659639Y-3796495D01*
X5607522Y-3824352D01*
X5561841Y-3861841D01*
X5524352Y-3907522D01*
X5496495Y-3959639D01*
X5479340Y-4016190D01*
X5473548Y-4075000D01*
X4441678Y-4075000D01*
X4422679Y-4012372D01*
X4348393Y-3873394D01*
X4329327Y-3850162D01*
X4770000Y-3851452D01*
X4828810Y-3845660D01*
X4885361Y-3828505D01*
X4937478Y-3800648D01*
X4983159Y-3763159D01*
X5020648Y-3717478D01*
X5048505Y-3665361D01*
X5065660Y-3608810D01*
X5071452Y-3550000D01*
X5070000Y-3479000D01*
X4995002Y-3404002D01*
X5070000Y-3404002D01*
X5070000Y-3331694D01*
X5087346Y-3340966D01*
X5156044Y-3361805D01*
X5176883Y-3368127D01*
X5269999Y-3377298D01*
X5293331Y-3375000D01*
X5360011Y-3375000D01*
X5369353Y-3392477D01*
X5406842Y-3438158D01*
X5452523Y-3475647D01*
X5504640Y-3503504D01*
X5561190Y-3520659D01*
X5620000Y-3526451D01*
X6167201Y-3526451D01*
X6434875Y-3794125D01*
X6379000Y-3850000D01*
X6379000Y-4396000D01*
X6900000Y-4396000D01*
X6968375Y-4327625D01*
X7023549Y-4382800D01*
X7023549Y-4383861D01*
X7022836Y-4385195D01*
X7005764Y-4441473D01*
X7000000Y-4500000D01*
X7000000Y-5175000D01*
X6934990Y-5175000D01*
X6953505Y-5140361D01*
X6970660Y-5083810D01*
X6976452Y-5025000D01*
X6975000Y-4779000D01*
X6900000Y-4704000D01*
X6379000Y-4704000D01*
X6379000Y-4724000D01*
X6071000Y-4724000D01*
X6071000Y-4704000D01*
X5550000Y-4704000D01*
X5475000Y-4779000D01*
X5473548Y-5025000D01*
X5479340Y-5083810D01*
X5496495Y-5140361D01*
X5515010Y-5175000D01*
X-984104Y-5175000D01*
X-1227922Y-5151094D01*
X-1330909Y-5120000D01*
X-710707Y-5120000D01*
X-593173Y-5108424D01*
X-442372Y-5062679D01*
X-303394Y-4988393D01*
X-181578Y-4888422D01*
X-81607Y-4766606D01*
X-7321Y-4627628D01*
X38424Y-4476827D01*
X53870Y-4320000D01*
X38424Y-4163173D01*
X-7321Y-4012372D01*
X-81607Y-3873394D01*
X-181578Y-3751578D01*
X-303394Y-3651607D01*
X-442372Y-3577321D01*
X-593173Y-3531576D01*
X-710707Y-3520000D01*
X-1389293Y-3520000D01*
X-1506827Y-3531576D01*
X-1657628Y-3577321D01*
X-1796606Y-3651607D01*
X-1918422Y-3751578D01*
X-2018393Y-3873394D01*
X-2092679Y-4012372D01*
X-2138424Y-4163173D01*
X-2146529Y-4245469D01*
X-2149474Y-4235958D01*
X-2175000Y-3993085D01*
X-2175000Y3984104D01*
X-2151094Y4227922D01*
X-2146349Y4243637D01*
X-2138424Y4163173D01*
X-2092679Y4012372D01*
X-2018393Y3873394D01*
X-1918422Y3751578D01*
X-1796606Y3651607D01*
X-1657628Y3577321D01*
X-1506827Y3531576D01*
X-1389293Y3520000D01*
X-710707Y3520000D01*
X-593173Y3531576D01*
X-442372Y3577321D01*
X-303394Y3651607D01*
X-181578Y3751578D01*
X-81607Y3873394D01*
X-7321Y4012372D01*
X38424Y4163173D01*
X53870Y4320000D01*
X38424Y4476827D01*
X-7321Y4627628D01*
X-81607Y4766606D01*
X-181578Y4888422D01*
X-303394Y4988393D01*
X-442372Y5062679D01*
X-593173Y5108424D01*
X-710707Y5120000D01*
X-1331169Y5120000D01*
X-1235953Y5149474D01*
X-993085Y5175000D01*
X13984104Y5175000D01*
X14227922Y5151094D01*
G37*
G04 #@! TD.AperFunction*
D20*
X4199000Y-3096000D02*
X4219000Y-3096000D01*
X4219000Y-3404000D01*
X4199000Y-3404000D01*
X4199000Y-3424000D01*
X3891000Y-3424000D01*
X3891000Y-3404000D01*
X3871000Y-3404000D01*
X3871000Y-3096000D01*
X3891000Y-3096000D01*
X3891000Y-3076000D01*
X4199000Y-3076000D01*
X4199000Y-3096000D01*
G04 #@! TA.AperFunction,Conductor*
D21*
G36*
X4199000Y-3096000D02*
G01*
X4219000Y-3096000D01*
X4219000Y-3404000D01*
X4199000Y-3404000D01*
X4199000Y-3424000D01*
X3891000Y-3424000D01*
X3891000Y-3404000D01*
X3871000Y-3404000D01*
X3871000Y-3096000D01*
X3891000Y-3096000D01*
X3891000Y-3076000D01*
X4199000Y-3076000D01*
X4199000Y-3096000D01*
G37*
G04 #@! TD.AperFunction*
D20*
X15175001Y-3984094D02*
X15151094Y-4227922D01*
X15084900Y-4447166D01*
X14977386Y-4649370D01*
X14832639Y-4826847D01*
X14656176Y-4972830D01*
X14454727Y-5081753D01*
X14235958Y-5149474D01*
X13993085Y-5175000D01*
X7400000Y-5175000D01*
X7400000Y-4601980D01*
X12398040Y-4699981D01*
X12417583Y-4698442D01*
X12436450Y-4693120D01*
X12453916Y-4684220D01*
X12470711Y-4670711D01*
X13441422Y-3700000D01*
X15175001Y-3700000D01*
X15175001Y-3984094D01*
G04 #@! TA.AperFunction,Conductor*
D21*
G36*
X15175001Y-3984094D02*
G01*
X15151094Y-4227922D01*
X15084900Y-4447166D01*
X14977386Y-4649370D01*
X14832639Y-4826847D01*
X14656176Y-4972830D01*
X14454727Y-5081753D01*
X14235958Y-5149474D01*
X13993085Y-5175000D01*
X7400000Y-5175000D01*
X7400000Y-4601980D01*
X12398040Y-4699981D01*
X12417583Y-4698442D01*
X12436450Y-4693120D01*
X12453916Y-4684220D01*
X12470711Y-4670711D01*
X13441422Y-3700000D01*
X15175001Y-3700000D01*
X15175001Y-3984094D01*
G37*
G04 #@! TD.AperFunction*
M02*
