G04 #@! TF.GenerationSoftware,KiCad,Pcbnew,5.1.9+dfsg1-1+deb11u1*
G04 #@! TF.CreationDate,2023-05-11T20:21:06+02:00*
G04 #@! TF.ProjectId,base,62617365-2e6b-4696-9361-645f70636258,rev?*
G04 #@! TF.SameCoordinates,Original*
G04 #@! TF.FileFunction,Soldermask,Top*
G04 #@! TF.FilePolarity,Negative*
%FSLAX46Y46*%
G04 Gerber Fmt 4.6, Leading zero omitted, Abs format (unit mm)*
G04 Created by KiCad (PCBNEW 5.1.9+dfsg1-1+deb11u1) date 2023-05-11 20:21:06*
%MOMM*%
%LPD*%
G01*
G04 APERTURE LIST*
%ADD10R,1.060000X0.650000*%
%ADD11R,2.500000X1.250000*%
%ADD12O,1.600000X1.000000*%
%ADD13C,0.650000*%
%ADD14O,2.100000X1.000000*%
%ADD15R,1.450000X0.300000*%
%ADD16R,1.450000X0.600000*%
G04 APERTURE END LIST*
D10*
X6150000Y-1000000D03*
X6150000Y-1950000D03*
X6150000Y-2900000D03*
X8350000Y-2900000D03*
X8350000Y-1000000D03*
G36*
G01*
X7675000Y3625000D02*
X7125000Y3625000D01*
G75*
G02*
X6925000Y3825000I0J200000D01*
G01*
X6925000Y4225000D01*
G75*
G02*
X7125000Y4425000I200000J0D01*
G01*
X7675000Y4425000D01*
G75*
G02*
X7875000Y4225000I0J-200000D01*
G01*
X7875000Y3825000D01*
G75*
G02*
X7675000Y3625000I-200000J0D01*
G01*
G37*
G36*
G01*
X7675000Y1975000D02*
X7125000Y1975000D01*
G75*
G02*
X6925000Y2175000I0J200000D01*
G01*
X6925000Y2575000D01*
G75*
G02*
X7125000Y2775000I200000J0D01*
G01*
X7675000Y2775000D01*
G75*
G02*
X7875000Y2575000I0J-200000D01*
G01*
X7875000Y2175000D01*
G75*
G02*
X7675000Y1975000I-200000J0D01*
G01*
G37*
D11*
X14000000Y-3810000D03*
X14000000Y-1270000D03*
X14000000Y1270000D03*
X14000000Y3810000D03*
D12*
X-1050000Y-4320000D03*
D13*
X2600000Y-2890000D03*
D12*
X-1050000Y4320000D03*
D13*
X2600000Y2890000D03*
D14*
X3130000Y4320000D03*
X3130000Y-4320000D03*
D15*
X4045000Y250000D03*
X4045000Y-1750000D03*
X4045000Y-1250000D03*
X4045000Y-750000D03*
X4045000Y-250000D03*
X4045000Y750000D03*
X4045000Y1250000D03*
X4045000Y1750000D03*
D16*
X4045000Y-3250000D03*
X4045000Y-2450000D03*
X4045000Y2450000D03*
X4045000Y3250000D03*
X4045000Y3250000D03*
X4045000Y2450000D03*
X4045000Y-2450000D03*
X4045000Y-3250000D03*
G36*
G01*
X5525000Y2775000D02*
X6075000Y2775000D01*
G75*
G02*
X6275000Y2575000I0J-200000D01*
G01*
X6275000Y2175000D01*
G75*
G02*
X6075000Y1975000I-200000J0D01*
G01*
X5525000Y1975000D01*
G75*
G02*
X5325000Y2175000I0J200000D01*
G01*
X5325000Y2575000D01*
G75*
G02*
X5525000Y2775000I200000J0D01*
G01*
G37*
G36*
G01*
X5525000Y4425000D02*
X6075000Y4425000D01*
G75*
G02*
X6275000Y4225000I0J-200000D01*
G01*
X6275000Y3825000D01*
G75*
G02*
X6075000Y3625000I-200000J0D01*
G01*
X5525000Y3625000D01*
G75*
G02*
X5325000Y3825000I0J200000D01*
G01*
X5325000Y4225000D01*
G75*
G02*
X5525000Y4425000I200000J0D01*
G01*
G37*
G36*
G01*
X8225000Y-4300000D02*
X8225000Y-4800000D01*
G75*
G02*
X8000000Y-5025000I-225000J0D01*
G01*
X7550000Y-5025000D01*
G75*
G02*
X7325000Y-4800000I0J225000D01*
G01*
X7325000Y-4300000D01*
G75*
G02*
X7550000Y-4075000I225000J0D01*
G01*
X8000000Y-4075000D01*
G75*
G02*
X8225000Y-4300000I0J-225000D01*
G01*
G37*
G36*
G01*
X6675000Y-4300000D02*
X6675000Y-4800000D01*
G75*
G02*
X6450000Y-5025000I-225000J0D01*
G01*
X6000000Y-5025000D01*
G75*
G02*
X5775000Y-4800000I0J225000D01*
G01*
X5775000Y-4300000D01*
G75*
G02*
X6000000Y-4075000I225000J0D01*
G01*
X6450000Y-4075000D01*
G75*
G02*
X6675000Y-4300000I0J-225000D01*
G01*
G37*
G36*
G01*
X6415000Y1110000D02*
X6415000Y610000D01*
G75*
G02*
X6190000Y385000I-225000J0D01*
G01*
X5740000Y385000D01*
G75*
G02*
X5515000Y610000I0J225000D01*
G01*
X5515000Y1110000D01*
G75*
G02*
X5740000Y1335000I225000J0D01*
G01*
X6190000Y1335000D01*
G75*
G02*
X6415000Y1110000I0J-225000D01*
G01*
G37*
G36*
G01*
X7965000Y1110000D02*
X7965000Y610000D01*
G75*
G02*
X7740000Y385000I-225000J0D01*
G01*
X7290000Y385000D01*
G75*
G02*
X7065000Y610000I0J225000D01*
G01*
X7065000Y1110000D01*
G75*
G02*
X7290000Y1335000I225000J0D01*
G01*
X7740000Y1335000D01*
G75*
G02*
X7965000Y1110000I0J-225000D01*
G01*
G37*
M02*
