G04 #@! TF.GenerationSoftware,KiCad,Pcbnew,5.1.9+dfsg1-1+deb11u1*
G04 #@! TF.CreationDate,2023-05-11T20:21:06+02:00*
G04 #@! TF.ProjectId,base,62617365-2e6b-4696-9361-645f70636258,rev?*
G04 #@! TF.SameCoordinates,Original*
G04 #@! TF.FileFunction,Soldermask,Bot*
G04 #@! TF.FilePolarity,Negative*
%FSLAX46Y46*%
G04 Gerber Fmt 4.6, Leading zero omitted, Abs format (unit mm)*
G04 Created by KiCad (PCBNEW 5.1.9+dfsg1-1+deb11u1) date 2023-05-11 20:21:06*
%MOMM*%
%LPD*%
G01*
G04 APERTURE LIST*
%ADD10R,2.500000X1.250000*%
%ADD11O,1.600000X1.000000*%
%ADD12C,0.650000*%
%ADD13O,2.100000X1.000000*%
%ADD14R,0.650000X0.400000*%
G04 APERTURE END LIST*
G36*
G01*
X8115000Y280000D02*
X8115000Y-220000D01*
G75*
G02*
X7890000Y-445000I-225000J0D01*
G01*
X7440000Y-445000D01*
G75*
G02*
X7215000Y-220000I0J225000D01*
G01*
X7215000Y280000D01*
G75*
G02*
X7440000Y505000I225000J0D01*
G01*
X7890000Y505000D01*
G75*
G02*
X8115000Y280000I0J-225000D01*
G01*
G37*
G36*
G01*
X9665000Y280000D02*
X9665000Y-220000D01*
G75*
G02*
X9440000Y-445000I-225000J0D01*
G01*
X8990000Y-445000D01*
G75*
G02*
X8765000Y-220000I0J225000D01*
G01*
X8765000Y280000D01*
G75*
G02*
X8990000Y505000I225000J0D01*
G01*
X9440000Y505000D01*
G75*
G02*
X9665000Y280000I0J-225000D01*
G01*
G37*
G36*
G01*
X7325000Y3915000D02*
X7875000Y3915000D01*
G75*
G02*
X8075000Y3715000I0J-200000D01*
G01*
X8075000Y3315000D01*
G75*
G02*
X7875000Y3115000I-200000J0D01*
G01*
X7325000Y3115000D01*
G75*
G02*
X7125000Y3315000I0J200000D01*
G01*
X7125000Y3715000D01*
G75*
G02*
X7325000Y3915000I200000J0D01*
G01*
G37*
G36*
G01*
X7325000Y2265000D02*
X7875000Y2265000D01*
G75*
G02*
X8075000Y2065000I0J-200000D01*
G01*
X8075000Y1665000D01*
G75*
G02*
X7875000Y1465000I-200000J0D01*
G01*
X7325000Y1465000D01*
G75*
G02*
X7125000Y1665000I0J200000D01*
G01*
X7125000Y2065000D01*
G75*
G02*
X7325000Y2265000I200000J0D01*
G01*
G37*
D10*
X14000000Y-3810000D03*
X14000000Y-1270000D03*
X14000000Y1270000D03*
X14000000Y3810000D03*
D11*
X-1050000Y-4320000D03*
D12*
X2600000Y-2890000D03*
D11*
X-1050000Y4320000D03*
D12*
X2600000Y2890000D03*
D13*
X3130000Y4320000D03*
X3130000Y-4320000D03*
G36*
G01*
X8025000Y-5075000D02*
X7475000Y-5075000D01*
G75*
G02*
X7275000Y-4875000I0J200000D01*
G01*
X7275000Y-4475000D01*
G75*
G02*
X7475000Y-4275000I200000J0D01*
G01*
X8025000Y-4275000D01*
G75*
G02*
X8225000Y-4475000I0J-200000D01*
G01*
X8225000Y-4875000D01*
G75*
G02*
X8025000Y-5075000I-200000J0D01*
G01*
G37*
G36*
G01*
X8025000Y-3425000D02*
X7475000Y-3425000D01*
G75*
G02*
X7275000Y-3225000I0J200000D01*
G01*
X7275000Y-2825000D01*
G75*
G02*
X7475000Y-2625000I200000J0D01*
G01*
X8025000Y-2625000D01*
G75*
G02*
X8225000Y-2825000I0J-200000D01*
G01*
X8225000Y-3225000D01*
G75*
G02*
X8025000Y-3425000I-200000J0D01*
G01*
G37*
G36*
G01*
X6850000Y4595000D02*
X6850000Y4295000D01*
G75*
G02*
X6700000Y4145000I-150000J0D01*
G01*
X5050000Y4145000D01*
G75*
G02*
X4900000Y4295000I0J150000D01*
G01*
X4900000Y4595000D01*
G75*
G02*
X5050000Y4745000I150000J0D01*
G01*
X6700000Y4745000D01*
G75*
G02*
X6850000Y4595000I0J-150000D01*
G01*
G37*
G36*
G01*
X6850000Y3325000D02*
X6850000Y3025000D01*
G75*
G02*
X6700000Y2875000I-150000J0D01*
G01*
X5050000Y2875000D01*
G75*
G02*
X4900000Y3025000I0J150000D01*
G01*
X4900000Y3325000D01*
G75*
G02*
X5050000Y3475000I150000J0D01*
G01*
X6700000Y3475000D01*
G75*
G02*
X6850000Y3325000I0J-150000D01*
G01*
G37*
G36*
G01*
X6850000Y2055000D02*
X6850000Y1755000D01*
G75*
G02*
X6700000Y1605000I-150000J0D01*
G01*
X5050000Y1605000D01*
G75*
G02*
X4900000Y1755000I0J150000D01*
G01*
X4900000Y2055000D01*
G75*
G02*
X5050000Y2205000I150000J0D01*
G01*
X6700000Y2205000D01*
G75*
G02*
X6850000Y2055000I0J-150000D01*
G01*
G37*
G36*
G01*
X6850000Y785000D02*
X6850000Y485000D01*
G75*
G02*
X6700000Y335000I-150000J0D01*
G01*
X5050000Y335000D01*
G75*
G02*
X4900000Y485000I0J150000D01*
G01*
X4900000Y785000D01*
G75*
G02*
X5050000Y935000I150000J0D01*
G01*
X6700000Y935000D01*
G75*
G02*
X6850000Y785000I0J-150000D01*
G01*
G37*
G36*
G01*
X6850000Y-485000D02*
X6850000Y-785000D01*
G75*
G02*
X6700000Y-935000I-150000J0D01*
G01*
X5050000Y-935000D01*
G75*
G02*
X4900000Y-785000I0J150000D01*
G01*
X4900000Y-485000D01*
G75*
G02*
X5050000Y-335000I150000J0D01*
G01*
X6700000Y-335000D01*
G75*
G02*
X6850000Y-485000I0J-150000D01*
G01*
G37*
G36*
G01*
X6775000Y-1755000D02*
X6775000Y-2055000D01*
G75*
G02*
X6625000Y-2205000I-150000J0D01*
G01*
X5025000Y-2205000D01*
G75*
G02*
X4875000Y-2055000I0J150000D01*
G01*
X4875000Y-1755000D01*
G75*
G02*
X5025000Y-1605000I150000J0D01*
G01*
X6625000Y-1605000D01*
G75*
G02*
X6775000Y-1755000I0J-150000D01*
G01*
G37*
G36*
G01*
X6850000Y-3025000D02*
X6850000Y-3325000D01*
G75*
G02*
X6700000Y-3475000I-150000J0D01*
G01*
X5050000Y-3475000D01*
G75*
G02*
X4900000Y-3325000I0J150000D01*
G01*
X4900000Y-3025000D01*
G75*
G02*
X5050000Y-2875000I150000J0D01*
G01*
X6700000Y-2875000D01*
G75*
G02*
X6850000Y-3025000I0J-150000D01*
G01*
G37*
G36*
G01*
X6850000Y-4295000D02*
X6850000Y-4595000D01*
G75*
G02*
X6700000Y-4745000I-150000J0D01*
G01*
X5050000Y-4745000D01*
G75*
G02*
X4900000Y-4595000I0J150000D01*
G01*
X4900000Y-4295000D01*
G75*
G02*
X5050000Y-4145000I150000J0D01*
G01*
X6700000Y-4145000D01*
G75*
G02*
X6850000Y-4295000I0J-150000D01*
G01*
G37*
G36*
G01*
X1875000Y-4295000D02*
X1875000Y-4595000D01*
G75*
G02*
X1725000Y-4745000I-150000J0D01*
G01*
X125000Y-4745000D01*
G75*
G02*
X-25000Y-4595000I0J150000D01*
G01*
X-25000Y-4295000D01*
G75*
G02*
X125000Y-4145000I150000J0D01*
G01*
X1725000Y-4145000D01*
G75*
G02*
X1875000Y-4295000I0J-150000D01*
G01*
G37*
G36*
G01*
X1900000Y-3025000D02*
X1900000Y-3325000D01*
G75*
G02*
X1750000Y-3475000I-150000J0D01*
G01*
X100000Y-3475000D01*
G75*
G02*
X-50000Y-3325000I0J150000D01*
G01*
X-50000Y-3025000D01*
G75*
G02*
X100000Y-2875000I150000J0D01*
G01*
X1750000Y-2875000D01*
G75*
G02*
X1900000Y-3025000I0J-150000D01*
G01*
G37*
G36*
G01*
X1900000Y-1755000D02*
X1900000Y-2055000D01*
G75*
G02*
X1750000Y-2205000I-150000J0D01*
G01*
X100000Y-2205000D01*
G75*
G02*
X-50000Y-2055000I0J150000D01*
G01*
X-50000Y-1755000D01*
G75*
G02*
X100000Y-1605000I150000J0D01*
G01*
X1750000Y-1605000D01*
G75*
G02*
X1900000Y-1755000I0J-150000D01*
G01*
G37*
G36*
G01*
X1900000Y-485000D02*
X1900000Y-785000D01*
G75*
G02*
X1750000Y-935000I-150000J0D01*
G01*
X100000Y-935000D01*
G75*
G02*
X-50000Y-785000I0J150000D01*
G01*
X-50000Y-485000D01*
G75*
G02*
X100000Y-335000I150000J0D01*
G01*
X1750000Y-335000D01*
G75*
G02*
X1900000Y-485000I0J-150000D01*
G01*
G37*
G36*
G01*
X1900000Y785000D02*
X1900000Y485000D01*
G75*
G02*
X1750000Y335000I-150000J0D01*
G01*
X100000Y335000D01*
G75*
G02*
X-50000Y485000I0J150000D01*
G01*
X-50000Y785000D01*
G75*
G02*
X100000Y935000I150000J0D01*
G01*
X1750000Y935000D01*
G75*
G02*
X1900000Y785000I0J-150000D01*
G01*
G37*
G36*
G01*
X1900000Y2055000D02*
X1900000Y1755000D01*
G75*
G02*
X1750000Y1605000I-150000J0D01*
G01*
X100000Y1605000D01*
G75*
G02*
X-50000Y1755000I0J150000D01*
G01*
X-50000Y2055000D01*
G75*
G02*
X100000Y2205000I150000J0D01*
G01*
X1750000Y2205000D01*
G75*
G02*
X1900000Y2055000I0J-150000D01*
G01*
G37*
G36*
G01*
X1875000Y3325000D02*
X1875000Y3025000D01*
G75*
G02*
X1725000Y2875000I-150000J0D01*
G01*
X125000Y2875000D01*
G75*
G02*
X-25000Y3025000I0J150000D01*
G01*
X-25000Y3325000D01*
G75*
G02*
X125000Y3475000I150000J0D01*
G01*
X1725000Y3475000D01*
G75*
G02*
X1875000Y3325000I0J-150000D01*
G01*
G37*
G36*
G01*
X1875000Y4595000D02*
X1875000Y4295000D01*
G75*
G02*
X1725000Y4145000I-150000J0D01*
G01*
X125000Y4145000D01*
G75*
G02*
X-25000Y4295000I0J150000D01*
G01*
X-25000Y4595000D01*
G75*
G02*
X125000Y4745000I150000J0D01*
G01*
X1725000Y4745000D01*
G75*
G02*
X1875000Y4595000I0J-150000D01*
G01*
G37*
D14*
X7600000Y-2200000D03*
X7600000Y-900000D03*
X9500000Y-1550000D03*
X7600000Y-1550000D03*
X9500000Y-900000D03*
X9500000Y-2200000D03*
G36*
G01*
X-925000Y-2825000D02*
X-1475000Y-2825000D01*
G75*
G02*
X-1675000Y-2625000I0J200000D01*
G01*
X-1675000Y-2225000D01*
G75*
G02*
X-1475000Y-2025000I200000J0D01*
G01*
X-925000Y-2025000D01*
G75*
G02*
X-725000Y-2225000I0J-200000D01*
G01*
X-725000Y-2625000D01*
G75*
G02*
X-925000Y-2825000I-200000J0D01*
G01*
G37*
G36*
G01*
X-925000Y-1175000D02*
X-1475000Y-1175000D01*
G75*
G02*
X-1675000Y-975000I0J200000D01*
G01*
X-1675000Y-575000D01*
G75*
G02*
X-1475000Y-375000I200000J0D01*
G01*
X-925000Y-375000D01*
G75*
G02*
X-725000Y-575000I0J-200000D01*
G01*
X-725000Y-975000D01*
G75*
G02*
X-925000Y-1175000I-200000J0D01*
G01*
G37*
G36*
G01*
X-1450000Y3125000D02*
X-950000Y3125000D01*
G75*
G02*
X-725000Y2900000I0J-225000D01*
G01*
X-725000Y2450000D01*
G75*
G02*
X-950000Y2225000I-225000J0D01*
G01*
X-1450000Y2225000D01*
G75*
G02*
X-1675000Y2450000I0J225000D01*
G01*
X-1675000Y2900000D01*
G75*
G02*
X-1450000Y3125000I225000J0D01*
G01*
G37*
G36*
G01*
X-1450000Y1575000D02*
X-950000Y1575000D01*
G75*
G02*
X-725000Y1350000I0J-225000D01*
G01*
X-725000Y900000D01*
G75*
G02*
X-950000Y675000I-225000J0D01*
G01*
X-1450000Y675000D01*
G75*
G02*
X-1675000Y900000I0J225000D01*
G01*
X-1675000Y1350000D01*
G75*
G02*
X-1450000Y1575000I225000J0D01*
G01*
G37*
M02*
